<svg width="388" height="314" viewBox="0 0 388 314" fill="none" xmlns="http://www.w3.org/2000/svg">
<path d="M194 313.3C301.082 313.3 387.89 308.232 387.89 301.98C387.89 295.728 301.082 290.66 194 290.66C86.9175 290.66 0.109985 295.728 0.109985 301.98C0.109985 308.232 86.9175 313.3 194 313.3Z" fill="#141414"/>
<path d="M227.22 128.98H161.2V302.71H227.22V128.98Z" fill="#007B58"/>
<path opacity="0.5" d="M227.43 128.98H178.2V302.71H227.43V128.98Z" fill="black"/>
<path d="M313.47 188.22H247.45V302.71H313.47V188.22Z" fill="#007B58"/>
<path opacity="0.3" d="M313.47 187.94H264.24V302.71H313.47V187.94Z" fill="black"/>
<path d="M140.55 159.96H74.53V302.7H140.55V159.96Z" fill="#007B58"/>
<path opacity="0.4" d="M140.55 159.62H91.3201V302.71H140.55V159.62Z" fill="black"/>
<path d="M100.23 302.89C100.14 305.02 106.87 307.03 115.23 307.39C123.59 307.75 130.5 306.31 130.59 304.18C130.68 302.05 123.95 300.05 115.59 299.69C107.23 299.33 100.32 300.77 100.23 302.89Z" fill="#007B58"/>
<path d="M100.393 299.031L100.23 302.878L130.623 304.167L130.786 300.321L100.393 299.031Z" fill="#007B58"/>
<path d="M100.39 299.04C100.3 301.17 107.03 303.18 115.39 303.54C123.75 303.9 130.66 302.46 130.75 300.33C130.84 298.2 124.11 296.2 115.75 295.84C107.39 295.48 100.48 296.92 100.39 299.04Z" fill="#007B58"/>
<path opacity="0.4" d="M100.39 299.04C100.3 301.17 107.03 303.18 115.39 303.54C123.75 303.9 130.66 302.46 130.75 300.33C130.84 298.2 124.11 296.2 115.75 295.84C107.39 295.48 100.48 296.92 100.39 299.04Z" fill="white"/>
<path d="M102.33 298.98C102.33 299.118 102.376 299.251 102.46 299.36C103.46 298.11 109.03 297.36 115.67 297.65C122.31 297.94 127.8 299.14 128.67 300.47C128.769 300.372 128.827 300.239 128.83 300.1C128.89 298.66 123.01 297.22 115.68 296.91C108.35 296.6 102.39 297.54 102.33 298.98Z" fill="#007B58"/>
<path opacity="0.4" d="M102.33 298.98C102.33 299.118 102.376 299.251 102.46 299.36C103.46 298.11 109.03 297.36 115.67 297.65C122.31 297.94 127.8 299.14 128.67 300.47C128.769 300.372 128.827 300.239 128.83 300.1C128.89 298.66 123.01 297.22 115.68 296.91C108.35 296.6 102.39 297.54 102.33 298.98Z" fill="#007B58"/>
<path opacity="0.4" d="M102.46 299.36C103.37 300.69 108.84 301.89 115.46 302.17C122.08 302.45 127.67 301.72 128.67 300.47C127.78 299.14 122.31 297.94 115.67 297.65C109.03 297.36 103.48 298.11 102.46 299.36Z" fill="#007B58"/>
<path d="M97.0002 297.06C96.9102 299.19 103.64 301.2 112 301.56C120.36 301.92 127.27 300.48 127.36 298.36C127.45 296.24 120.72 294.22 112.36 293.86C104 293.5 97.1302 294.94 97.0002 297.06Z" fill="#007B58"/>
<path d="M97.2035 293.221L97.0403 297.068L127.433 298.357L127.596 294.511L97.2035 293.221Z" fill="#007B58"/>
<path d="M97.2001 293.22C97.1101 295.34 103.84 297.35 112.2 297.71C120.56 298.07 127.47 296.63 127.56 294.51C127.65 292.39 120.92 290.37 112.56 290.01C104.2 289.65 97.2901 291.09 97.2001 293.22Z" fill="#007B58"/>
<path opacity="0.4" d="M97.2001 293.22C97.1101 295.34 103.84 297.35 112.2 297.71C120.56 298.07 127.47 296.63 127.56 294.51C127.65 292.39 120.92 290.37 112.56 290.01C104.2 289.65 97.2901 291.09 97.2001 293.22Z" fill="white"/>
<path d="M99.1402 293.15C99.136 293.288 99.1822 293.423 99.2702 293.53C100.27 292.28 105.84 291.53 112.48 291.83C119.12 292.13 124.61 293.31 125.48 294.64C125.571 294.541 125.627 294.414 125.64 294.28C125.7 292.84 119.82 291.39 112.49 291.08C105.16 290.77 99.2002 291.71 99.1402 293.15Z" fill="#007B58"/>
<path opacity="0.4" d="M99.1402 293.15C99.136 293.288 99.1822 293.423 99.2702 293.53C100.27 292.28 105.84 291.53 112.48 291.83C119.12 292.13 124.61 293.31 125.48 294.64C125.571 294.541 125.627 294.414 125.64 294.28C125.7 292.84 119.82 291.39 112.49 291.08C105.16 290.77 99.2002 291.71 99.1402 293.15Z" fill="#007B58"/>
<path opacity="0.4" d="M99.27 293.53C100.17 294.86 105.65 296.06 112.27 296.34C118.89 296.62 124.48 295.89 125.48 294.64C124.59 293.31 119.12 292.11 112.48 291.83C105.84 291.55 100.28 292.28 99.27 293.53Z" fill="#007B58"/>
<path d="M97.4501 290.04C97.3601 292.17 104.09 294.18 112.45 294.54C120.81 294.9 127.72 293.46 127.81 291.33C127.9 289.2 121.17 287.2 112.81 286.84C104.45 286.48 97.5401 287.92 97.4501 290.04Z" fill="#007B58"/>
<path d="M97.6171 286.194L97.4539 290.04L127.847 291.33L128.01 287.483L97.6171 286.194Z" fill="#007B58"/>
<path d="M97.61 286.19C97.52 288.32 104.25 290.33 112.61 290.69C120.97 291.05 127.87 289.61 127.96 287.49C128.05 285.37 121.32 283.35 112.96 282.99C104.6 282.63 97.7 284.07 97.61 286.19Z" fill="#007B58"/>
<path opacity="0.4" d="M97.61 286.19C97.52 288.32 104.25 290.33 112.61 290.69C120.97 291.05 127.87 289.61 127.96 287.49C128.05 285.37 121.32 283.35 112.96 282.99C104.6 282.63 97.7 284.07 97.61 286.19Z" fill="white"/>
<path d="M99.55 286.13C99.55 286.268 99.5957 286.401 99.68 286.51C100.68 285.26 106.25 284.51 112.89 284.81C119.53 285.11 125.02 286.29 125.89 287.62C125.989 287.526 126.046 287.396 126.05 287.26C126.11 285.82 120.23 284.37 112.9 284.06C105.57 283.75 99.61 284.69 99.55 286.13Z" fill="#007B58"/>
<path opacity="0.4" d="M99.55 286.13C99.55 286.268 99.5957 286.401 99.68 286.51C100.68 285.26 106.25 284.51 112.89 284.81C119.53 285.11 125.02 286.29 125.89 287.62C125.989 287.526 126.046 287.396 126.05 287.26C126.11 285.82 120.23 284.37 112.9 284.06C105.57 283.75 99.61 284.69 99.55 286.13Z" fill="#007B58"/>
<path opacity="0.4" d="M99.6801 286.51C100.59 287.84 106.06 289.04 112.68 289.32C119.3 289.6 124.89 288.87 125.89 287.62C125 286.29 119.53 285.09 112.89 284.81C106.25 284.53 100.7 285.28 99.6801 286.51Z" fill="#007B58"/>
<path d="M94.26 284.22C94.17 286.34 100.9 288.35 109.26 288.71C117.62 289.07 124.53 287.63 124.62 285.51C124.71 283.39 117.98 281.37 109.62 281.01C101.26 280.65 94.35 282.09 94.26 284.22Z" fill="#007B58"/>
<path d="M94.4171 280.344L94.2539 284.19L124.647 285.48L124.81 281.633L94.4171 280.344Z" fill="#007B58"/>
<path d="M94.4201 280.37C94.3301 282.49 101.06 284.5 109.42 284.86C117.78 285.22 124.69 283.78 124.78 281.66C124.87 279.54 118.14 277.52 109.78 277.16C101.42 276.8 94.5101 278.28 94.4201 280.37Z" fill="#007B58"/>
<path opacity="0.4" d="M94.4201 280.37C94.3301 282.49 101.06 284.5 109.42 284.86C117.78 285.22 124.69 283.78 124.78 281.66C124.87 279.54 118.14 277.52 109.78 277.16C101.42 276.8 94.5101 278.28 94.4201 280.37Z" fill="white"/>
<path d="M96.3602 280.28C96.354 280.419 96.4005 280.554 96.4902 280.66C97.4902 279.41 103.06 278.66 109.7 278.96C116.34 279.26 121.83 280.44 122.7 281.77C122.791 281.671 122.847 281.544 122.86 281.41C122.92 279.97 117.04 278.52 109.71 278.21C102.38 277.9 96.4202 278.86 96.3602 280.28Z" fill="#007B58"/>
<path opacity="0.4" d="M96.3602 280.28C96.354 280.419 96.4005 280.554 96.4902 280.66C97.4902 279.41 103.06 278.66 109.7 278.96C116.34 279.26 121.83 280.44 122.7 281.77C122.791 281.671 122.847 281.544 122.86 281.41C122.92 279.97 117.04 278.52 109.71 278.21C102.38 277.9 96.4202 278.86 96.3602 280.28Z" fill="#007B58"/>
<path opacity="0.4" d="M96.49 280.68C97.39 282.01 102.87 283.21 109.49 283.49C116.11 283.77 121.7 283.04 122.7 281.79C121.81 280.46 116.34 279.26 109.7 278.98C103.06 278.7 97.5 279.43 96.49 280.68Z" fill="#007B58"/>
<path d="M99.13 279.28C99.04 281.4 105.77 283.41 114.13 283.77C122.49 284.13 129.4 282.69 129.49 280.57C129.58 278.45 122.85 276.43 114.49 276.07C106.13 275.71 99.22 277.15 99.13 279.28Z" fill="#007B58"/>
<path d="M99.298 275.429L99.1348 279.275L129.527 280.565L129.691 276.718L99.298 275.429Z" fill="#007B58"/>
<path d="M99.3001 275.43C99.2101 277.55 105.94 279.56 114.3 279.92C122.66 280.28 129.57 278.84 129.66 276.72C129.75 274.6 123.02 272.58 114.66 272.22C106.3 271.86 99.3901 273.28 99.3001 275.43Z" fill="#007B58"/>
<path opacity="0.4" d="M99.3001 275.43C99.2101 277.55 105.94 279.56 114.3 279.92C122.66 280.28 129.57 278.84 129.66 276.72C129.75 274.6 123.02 272.58 114.66 272.22C106.3 271.86 99.3901 273.28 99.3001 275.43Z" fill="white"/>
<path d="M101.23 275.36C101.233 275.497 101.279 275.63 101.36 275.74C102.36 274.49 107.94 273.74 114.57 274.04C121.2 274.34 126.71 275.52 127.57 276.85C127.667 276.754 127.728 276.626 127.74 276.49C127.8 275.05 121.92 273.6 114.59 273.29C107.26 272.98 101.3 273.92 101.23 275.36Z" fill="#007B58"/>
<path opacity="0.4" d="M101.23 275.36C101.233 275.497 101.279 275.63 101.36 275.74C102.36 274.49 107.94 273.74 114.57 274.04C121.2 274.34 126.71 275.52 127.57 276.85C127.667 276.754 127.728 276.626 127.74 276.49C127.8 275.05 121.92 273.6 114.59 273.29C107.26 272.98 101.3 273.92 101.23 275.36Z" fill="#007B58"/>
<path opacity="0.4" d="M101.36 275.74C102.27 277.07 107.74 278.27 114.36 278.55C120.98 278.83 126.58 278.1 127.57 276.85C126.69 275.52 121.21 274.32 114.57 274.04C107.93 273.76 102.38 274.49 101.36 275.74Z" fill="#007B58"/>
<path d="M95.9401 273.45C95.8501 275.57 102.58 277.59 110.94 277.94C119.3 278.29 126.21 276.86 126.3 274.74C126.39 272.62 119.66 270.6 111.3 270.24C102.94 269.88 96.0001 271.28 95.9401 273.45Z" fill="#007B58"/>
<path d="M96.0981 269.589L95.9348 273.435L126.327 274.725L126.491 270.878L96.0981 269.589Z" fill="#007B58"/>
<path d="M96.1 269.6C96.01 271.72 102.74 273.74 111.1 274.09C119.46 274.44 126.37 273.02 126.46 270.89C126.55 268.76 119.82 266.75 111.46 266.39C103.1 266.03 96.19 267.47 96.1 269.6Z" fill="#007B58"/>
<path opacity="0.4" d="M96.1 269.6C96.01 271.72 102.74 273.74 111.1 274.09C119.46 274.44 126.37 273.02 126.46 270.89C126.55 268.76 119.82 266.75 111.46 266.39C103.1 266.03 96.19 267.47 96.1 269.6Z" fill="white"/>
<path d="M98 269.53C97.9967 269.668 98.0428 269.803 98.13 269.91C99.13 268.66 104.7 267.91 111.34 268.21C117.98 268.51 123.47 269.69 124.34 271.03C124.437 270.931 124.494 270.799 124.5 270.66C124.56 269.22 118.68 267.78 111.35 267.46C104.02 267.14 98.1 268.09 98 269.53Z" fill="#007B58"/>
<path opacity="0.4" d="M98 269.53C97.9967 269.668 98.0428 269.803 98.13 269.91C99.13 268.66 104.7 267.91 111.34 268.21C117.98 268.51 123.47 269.69 124.34 271.03C124.437 270.931 124.494 270.799 124.5 270.66C124.56 269.22 118.68 267.78 111.35 267.46C104.02 267.14 98.1 268.09 98 269.53Z" fill="#007B58"/>
<path opacity="0.4" d="M98.17 269.91C99.08 271.24 104.55 272.44 111.17 272.73C117.79 273.02 123.38 272.28 124.38 271.03C123.49 269.69 118.02 268.49 111.38 268.21C104.74 267.93 99.19 268.66 98.17 269.91Z" fill="#007B58"/>
<path d="M54.91 301.03C54.81 303.16 61.54 305.17 69.91 305.52C78.28 305.87 85.17 304.45 85.26 302.32C85.35 300.19 78.63 298.18 70.26 297.83C61.89 297.48 55 298.9 54.91 301.03Z" fill="#007B58"/>
<path d="M55.0636 297.171L54.9004 301.018L85.293 302.307L85.4563 298.461L55.0636 297.171Z" fill="#007B58"/>
<path d="M55.07 297.18C54.98 299.31 61.71 301.32 70.07 301.68C78.43 302.04 85.34 300.6 85.43 298.47C85.52 296.34 78.79 294.33 70.43 293.98C62.07 293.63 55.16 295.05 55.07 297.18Z" fill="#007B58"/>
<path opacity="0.4" d="M55.07 297.18C54.98 299.31 61.71 301.32 70.07 301.68C78.43 302.04 85.34 300.6 85.43 298.47C85.52 296.34 78.79 294.33 70.43 293.98C62.07 293.63 55.16 295.05 55.07 297.18Z" fill="white"/>
<path d="M57.0001 297.11C56.9919 297.249 57.0386 297.385 57.1301 297.49C58.1301 296.24 63.7001 295.49 70.3401 295.79C76.9801 296.09 82.4701 297.28 83.3401 298.61C83.4313 298.507 83.4873 298.377 83.5001 298.24C83.5601 296.8 77.6801 295.36 70.3501 295.05C63.0201 294.74 57.0701 295.67 57.0001 297.11Z" fill="#007B58"/>
<path opacity="0.4" d="M57.0001 297.11C56.9919 297.249 57.0386 297.385 57.1301 297.49C58.1301 296.24 63.7001 295.49 70.3401 295.79C76.9801 296.09 82.4701 297.28 83.3401 298.61C83.4313 298.507 83.4873 298.377 83.5001 298.24C83.5601 296.8 77.6801 295.36 70.3501 295.05C63.0201 294.74 57.0701 295.67 57.0001 297.11Z" fill="#007B58"/>
<path opacity="0.4" d="M57.1401 297.49C58.0401 298.82 63.5201 300.03 70.1401 300.31C76.7601 300.59 82.3501 299.86 83.3501 298.61C82.4601 297.28 76.9901 296.07 70.3501 295.79C63.7101 295.51 58.1501 296.28 57.1401 297.49Z" fill="#007B58"/>
<path d="M68.13 297.28C67.63 299.35 73.86 302.6 82.03 304.54C90.2 306.48 97.23 306.38 97.72 304.31C98.21 302.24 91.98 298.99 83.81 297.05C75.64 295.11 68.62 295.21 68.13 297.28Z" fill="#007B58"/>
<path d="M69.0181 293.554L68.1272 297.299L97.7215 304.339L98.6124 300.593L69.0181 293.554Z" fill="#007B58"/>
<path d="M69 293.53C68.5 295.6 74.73 298.85 82.9 300.8C91.07 302.75 98.1 302.64 98.59 300.57C99.08 298.5 92.88 295.28 84.7 293.28C76.52 291.28 69.51 291.46 69 293.53Z" fill="#007B58"/>
<path opacity="0.4" d="M69 293.53C68.5 295.6 74.73 298.85 82.9 300.8C91.07 302.75 98.1 302.64 98.59 300.57C99.08 298.5 92.88 295.28 84.7 293.28C76.52 291.28 69.51 291.46 69 293.53Z" fill="white"/>
<path d="M70.93 293.83C70.9004 293.966 70.9217 294.109 70.99 294.23C72.22 293.23 77.82 293.53 84.28 295.07C90.74 296.61 95.91 298.83 96.53 300.3C96.6429 300.22 96.7243 300.104 96.76 299.97C97.09 298.57 91.59 296.04 84.45 294.34C77.31 292.64 71.27 292.43 70.93 293.83Z" fill="#007B58"/>
<path opacity="0.4" d="M70.93 293.83C70.9004 293.966 70.9217 294.109 70.99 294.23C72.22 293.23 77.82 293.53 84.28 295.07C90.74 296.61 95.91 298.83 96.53 300.3C96.6429 300.22 96.7243 300.104 96.76 299.97C97.09 298.57 91.59 296.04 84.45 294.34C77.31 292.64 71.27 292.43 70.93 293.83Z" fill="#007B58"/>
<path opacity="0.4" d="M71 294.28C71.64 295.76 76.78 297.98 83.25 299.51C89.72 301.04 95.32 301.39 96.54 300.35C95.92 298.88 90.77 296.66 84.29 295.12C77.81 293.58 72.22 293.19 71 294.28Z" fill="#007B58"/>
<path d="M106.7 272.18C114.266 272.18 120.4 266.046 120.4 258.48C120.4 250.914 114.266 244.78 106.7 244.78C99.1337 244.78 93 250.914 93 258.48C93 266.046 99.1337 272.18 106.7 272.18Z" fill="#007B58"/>
<path d="M108.34 272.18C115.906 272.18 122.04 266.046 122.04 258.48C122.04 250.914 115.906 244.78 108.34 244.78C100.774 244.78 94.6401 250.914 94.6401 258.48C94.6401 266.046 100.774 272.18 108.34 272.18Z" fill="#007B58"/>
<path opacity="0.5" d="M108.34 272.18C115.906 272.18 122.04 266.046 122.04 258.48C122.04 250.914 115.906 244.78 108.34 244.78C100.774 244.78 94.6401 250.914 94.6401 258.48C94.6401 266.046 100.774 272.18 108.34 272.18Z" fill="white"/>
<path d="M115.596 265.744C119.603 261.737 119.603 255.241 115.596 251.234C111.589 247.228 105.093 247.228 101.086 251.234C97.0794 255.241 97.0794 261.737 101.086 265.744C105.093 269.751 111.589 269.751 115.596 265.744Z" fill="#007B58"/>
<path opacity="0.3" d="M112.49 261.87C112.075 262.299 111.576 262.636 111.023 262.86C110.47 263.084 109.876 263.19 109.28 263.17C108.367 263.199 107.466 262.948 106.701 262.449C105.935 261.95 105.342 261.228 105 260.38H110.52V259.2H104.7C104.69 259.02 104.69 258.84 104.7 258.66C104.69 258.48 104.69 258.3 104.7 258.12H110.51V256.94H105C105.342 256.091 105.938 255.368 106.705 254.869C107.473 254.369 108.375 254.119 109.29 254.15C109.885 254.129 110.479 254.233 111.032 254.455C111.584 254.678 112.085 255.013 112.5 255.44L112.66 255.6L113.77 254.51L113.62 254.35C113.051 253.768 112.366 253.313 111.61 253.013C110.854 252.713 110.043 252.576 109.23 252.61C107.89 252.557 106.571 252.955 105.483 253.74C104.396 254.525 103.602 255.652 103.23 256.94H101.28V258.12H103C103 258.3 103 258.48 103 258.66C103 258.84 103 259.02 103 259.2H101.26V260.38H103.21C103.582 261.669 104.376 262.795 105.463 263.58C106.551 264.365 107.87 264.763 109.21 264.71C110.024 264.741 110.836 264.6 111.592 264.297C112.349 263.994 113.033 263.535 113.6 262.95L113.75 262.79L112.64 261.7L112.49 261.87Z" fill="white"/>
<path d="M300.27 304.77C300.19 306.89 293.33 308.37 284.93 308.07C276.53 307.77 269.8 305.8 269.87 303.68C269.94 301.56 276.82 300.07 285.21 300.37C293.6 300.67 300.35 302.64 300.27 304.77Z" fill="#007B58"/>
<path d="M269.996 299.797L269.858 303.645L300.258 304.733L300.396 300.885L269.996 299.797Z" fill="#007B58"/>
<path d="M300.41 300.92C300.33 303.04 293.47 304.52 285.07 304.22C276.67 303.92 269.94 301.95 270.01 299.83C270.08 297.71 276.95 296.22 285.35 296.52C293.75 296.82 300.49 298.79 300.41 300.92Z" fill="#007B58"/>
<path opacity="0.4" d="M300.41 300.92C300.33 303.04 293.47 304.52 285.07 304.22C276.67 303.92 269.94 301.95 270.01 299.83C270.08 297.71 276.95 296.22 285.35 296.52C293.75 296.82 300.49 298.79 300.41 300.92Z" fill="white"/>
<path d="M298.48 300.7C298.474 300.839 298.417 300.971 298.32 301.07C297.41 299.74 291.93 298.57 285.32 298.34C278.71 298.11 273.11 298.87 272.12 300.12C272.032 300.016 271.983 299.886 271.98 299.75C272.04 298.31 277.98 297.33 285.34 297.59C292.7 297.85 298.53 299.28 298.48 300.7Z" fill="#007B58"/>
<path opacity="0.4" d="M298.48 300.7C298.474 300.839 298.417 300.971 298.32 301.07C297.41 299.74 291.93 298.57 285.32 298.34C278.71 298.11 273.11 298.87 272.12 300.12C272.032 300.016 271.983 299.886 271.98 299.75C272.04 298.31 277.98 297.33 285.34 297.59C292.7 297.85 298.53 299.28 298.48 300.7Z" fill="#007B58"/>
<path opacity="0.4" d="M298.32 301.07C297.32 302.32 291.76 303.07 285.12 302.85C278.48 302.63 272.98 301.45 272.12 300.12C273.12 298.87 278.66 298.12 285.32 298.34C291.98 298.56 297.41 299.74 298.32 301.07Z" fill="#007B58"/>
<path d="M303.91 299.21C303.83 301.33 296.97 302.81 288.57 302.51C280.17 302.21 273.44 300.24 273.51 298.11C273.58 295.98 280.46 294.51 288.85 294.81C297.24 295.11 304 297.08 303.91 299.21Z" fill="#007B58"/>
<path d="M273.667 294.292L273.529 298.139L303.929 299.233L304.068 295.385L273.667 294.292Z" fill="#007B58"/>
<path d="M304.05 295.36C303.97 297.48 297.11 298.96 288.71 298.66C280.31 298.36 273.57 296.39 273.65 294.26C273.73 292.13 280.59 290.66 288.99 290.96C297.39 291.26 304.12 293.28 304.05 295.36Z" fill="#007B58"/>
<path opacity="0.4" d="M304.05 295.36C303.97 297.48 297.11 298.96 288.71 298.66C280.31 298.36 273.57 296.39 273.65 294.26C273.73 292.13 280.59 290.66 288.99 290.96C297.39 291.26 304.12 293.28 304.05 295.36Z" fill="white"/>
<path d="M302.12 295.14C302.116 295.276 302.059 295.406 301.96 295.5C301.05 294.18 295.57 293.01 288.96 292.78C282.35 292.55 276.74 293.31 275.76 294.56C275.672 294.456 275.623 294.326 275.62 294.19C275.68 292.75 281.62 291.77 288.98 292.03C296.34 292.29 302.17 293.7 302.12 295.14Z" fill="#007B58"/>
<path opacity="0.4" d="M302.12 295.14C302.116 295.276 302.059 295.406 301.96 295.5C301.05 294.18 295.57 293.01 288.96 292.78C282.35 292.55 276.74 293.31 275.76 294.56C275.672 294.456 275.623 294.326 275.62 294.19C275.68 292.75 281.62 291.77 288.98 292.03C296.34 292.29 302.17 293.7 302.12 295.14Z" fill="#007B58"/>
<path opacity="0.4" d="M302 295.5C301 296.76 295.44 297.5 288.8 297.29C282.16 297.08 276.66 295.89 275.8 294.56C276.8 293.31 282.34 292.56 289 292.78C295.66 293 301.05 294.18 302 295.5Z" fill="#007B58"/>
<path d="M304.05 292.17C303.97 294.3 297.1 295.78 288.71 295.48C280.32 295.18 273.57 293.21 273.65 291.08C273.73 288.95 280.59 287.48 288.99 287.78C297.39 288.08 304.12 290.05 304.05 292.17Z" fill="#007B58"/>
<path d="M273.797 287.259L273.658 291.106L304.059 292.2L304.197 288.352L273.797 287.259Z" fill="#007B58"/>
<path d="M304.19 288.28C304.11 290.41 297.24 291.89 288.85 291.59C280.46 291.29 273.71 289.32 273.79 287.19C273.87 285.06 280.73 283.59 289.12 283.89C297.51 284.19 304.26 286.2 304.19 288.28Z" fill="#007B58"/>
<path opacity="0.4" d="M304.19 288.28C304.11 290.41 297.24 291.89 288.85 291.59C280.46 291.29 273.71 289.32 273.79 287.19C273.87 285.06 280.73 283.59 289.12 283.89C297.51 284.19 304.26 286.2 304.19 288.28Z" fill="white"/>
<path d="M302.26 288.11C302.247 288.244 302.191 288.371 302.1 288.47C301.18 287.15 295.7 285.98 289.1 285.74C282.5 285.5 276.89 286.27 275.9 287.53C275.813 287.423 275.767 287.288 275.77 287.15C275.77 285.71 281.77 284.74 289.13 285C296.49 285.26 302.31 286.67 302.26 288.11Z" fill="#007B58"/>
<path opacity="0.4" d="M302.26 288.11C302.247 288.244 302.191 288.371 302.1 288.47C301.18 287.15 295.7 285.98 289.1 285.74C282.5 285.5 276.89 286.27 275.9 287.53C275.813 287.423 275.767 287.288 275.77 287.15C275.77 285.71 281.77 284.74 289.13 285C296.49 285.26 302.31 286.67 302.26 288.11Z" fill="#007B58"/>
<path opacity="0.4" d="M302.1 288.47C301.1 289.73 295.54 290.47 288.9 290.26C282.26 290.05 276.76 288.86 275.9 287.53C276.9 286.27 282.44 285.53 289.1 285.74C295.76 285.95 301.18 287.15 302.1 288.47Z" fill="#007B58"/>
<path d="M307.69 286.61C307.61 288.74 300.74 290.22 292.35 289.92C283.96 289.62 277.21 287.65 277.29 285.52C277.37 283.39 284.23 281.92 292.63 282.22C301.03 282.52 307.76 284.49 307.69 286.61Z" fill="#007B58"/>
<path d="M277.402 281.652L277.265 285.5L307.665 286.588L307.803 282.741L277.402 281.652Z" fill="#007B58"/>
<path d="M307.82 282.76C307.75 284.89 300.88 286.37 292.49 286.07C284.1 285.77 277.35 283.8 277.43 281.67C277.51 279.54 284.37 278.07 292.76 278.37C301.15 278.67 307.9 280.64 307.82 282.76Z" fill="#007B58"/>
<path opacity="0.4" d="M307.82 282.76C307.75 284.89 300.88 286.37 292.49 286.07C284.1 285.77 277.35 283.8 277.43 281.67C277.51 279.54 284.37 278.07 292.76 278.37C301.15 278.67 307.9 280.64 307.82 282.76Z" fill="white"/>
<path d="M305.9 282.55C305.887 282.684 305.831 282.811 305.74 282.91C304.82 281.59 299.34 280.42 292.74 280.18C286.14 279.94 280.53 280.71 279.54 281.97C279.453 281.863 279.407 281.728 279.41 281.59C279.46 280.15 285.41 279.18 292.77 279.44C300.13 279.7 306 281.11 305.9 282.55Z" fill="#007B58"/>
<path opacity="0.4" d="M305.9 282.55C305.887 282.684 305.831 282.811 305.74 282.91C304.82 281.59 299.34 280.42 292.74 280.18C286.14 279.94 280.53 280.71 279.54 281.97C279.453 281.863 279.407 281.728 279.41 281.59C279.46 280.15 285.41 279.18 292.77 279.44C300.13 279.7 306 281.11 305.9 282.55Z" fill="#007B58"/>
<path opacity="0.4" d="M305.74 282.91C304.74 284.17 299.18 284.91 292.54 284.7C285.9 284.49 280.4 283.3 279.54 281.97C280.54 280.71 286.08 279.97 292.74 280.18C299.4 280.39 304.82 281.59 305.74 282.91Z" fill="#007B58"/>
<path d="M187 300.49C186.91 302.62 193.63 304.63 202 304.99C210.37 305.35 217.26 303.91 217.35 301.78C217.44 299.65 210.72 297.64 202.35 297.29C193.98 296.94 187.06 298.37 187 300.49Z" fill="#007B58"/>
<path d="M187.113 296.627L186.95 300.473L217.343 301.763L217.506 297.917L187.113 296.627Z" fill="#007B58"/>
<path d="M187.13 296.64C187.04 298.77 193.77 300.78 202.13 301.14C210.49 301.5 217.4 300.06 217.49 297.93C217.58 295.8 210.85 293.79 202.49 293.44C194.13 293.09 187.22 294.52 187.13 296.64Z" fill="#007B58"/>
<path opacity="0.4" d="M187.13 296.64C187.04 298.77 193.77 300.78 202.13 301.14C210.49 301.5 217.4 300.06 217.49 297.93C217.58 295.8 210.85 293.79 202.49 293.44C194.13 293.09 187.22 294.52 187.13 296.64Z" fill="white"/>
<path d="M189.07 296.58C189.064 296.715 189.111 296.848 189.2 296.95C190.2 295.7 195.77 294.95 202.41 295.25C209.05 295.55 214.54 296.74 215.41 298.07C215.501 297.967 215.557 297.837 215.57 297.7C215.63 296.26 209.75 294.82 202.42 294.51C195.09 294.2 189.13 295.14 189.07 296.58Z" fill="#007B58"/>
<path opacity="0.4" d="M189.07 296.58C189.064 296.715 189.111 296.848 189.2 296.95C190.2 295.7 195.77 294.95 202.41 295.25C209.05 295.55 214.54 296.74 215.41 298.07C215.501 297.967 215.557 297.837 215.57 297.7C215.63 296.26 209.75 294.82 202.42 294.51C195.09 294.2 189.13 295.14 189.07 296.58Z" fill="#007B58"/>
<path opacity="0.4" d="M189.2 296.95C190.1 298.29 195.58 299.49 202.2 299.77C208.82 300.05 214.41 299.32 215.41 298.07C214.52 296.74 209.05 295.54 202.41 295.25C195.77 294.96 190.21 295.7 189.2 296.95Z" fill="#007B58"/>
<path d="M183.77 294.66C183.68 296.79 190.41 298.8 198.77 299.16C207.13 299.52 214.04 298.08 214.13 295.95C214.22 293.82 207.49 291.81 199.13 291.46C190.77 291.11 183.86 292.54 183.77 294.66Z" fill="#007B58"/>
<path d="M183.933 290.827L183.77 294.673L214.162 295.963L214.326 292.117L183.933 290.827Z" fill="#007B58"/>
<path d="M183.94 290.81C183.85 292.94 190.58 294.95 198.94 295.31C207.3 295.67 214.21 294.23 214.3 292.1C214.39 289.97 207.66 287.97 199.3 287.61C190.94 287.25 184 288.69 183.94 290.81Z" fill="#007B58"/>
<path opacity="0.4" d="M183.94 290.81C183.85 292.94 190.58 294.95 198.94 295.31C207.3 295.67 214.21 294.23 214.3 292.1C214.39 289.97 207.66 287.97 199.3 287.61C190.94 287.25 184 288.69 183.94 290.81Z" fill="white"/>
<path d="M185.87 290.75C185.875 290.887 185.921 291.019 186 291.13C187 289.88 192.58 289.13 199.21 289.42C205.84 289.71 211.35 290.91 212.21 292.24C212.308 292.14 212.368 292.009 212.38 291.87C212.44 290.43 206.56 288.99 199.23 288.68C191.9 288.37 185.94 289.28 185.87 290.75Z" fill="#007B58"/>
<path opacity="0.4" d="M185.87 290.75C185.875 290.887 185.921 291.019 186 291.13C187 289.88 192.58 289.13 199.21 289.42C205.84 289.71 211.35 290.91 212.21 292.24C212.308 292.14 212.368 292.009 212.38 291.87C212.44 290.43 206.56 288.99 199.23 288.68C191.9 288.37 185.94 289.28 185.87 290.75Z" fill="#007B58"/>
<path opacity="0.4" d="M186 291.13C186.91 292.46 192.38 293.66 199 293.94C205.62 294.22 211.22 293.49 212.21 292.24C211.33 290.91 205.85 289.71 199.21 289.42C192.57 289.13 187 289.88 186 291.13Z" fill="#007B58"/>
<path d="M184.19 287.64C184.1 289.77 190.83 291.78 199.19 292.14C207.55 292.5 214.46 291.06 214.55 288.93C214.64 286.8 207.91 284.79 199.55 284.44C191.19 284.09 184.28 285.52 184.19 287.64Z" fill="#007B58"/>
<path d="M184.347 283.789L184.184 287.636L214.576 288.926L214.74 285.079L184.347 283.789Z" fill="#007B58"/>
<path d="M184.35 283.79C184.26 285.92 190.99 287.93 199.35 288.29C207.71 288.65 214.62 287.21 214.71 285.08C214.8 282.95 208.07 280.94 199.71 280.59C191.35 280.24 184.44 281.67 184.35 283.79Z" fill="#007B58"/>
<path opacity="0.4" d="M184.35 283.79C184.26 285.92 190.99 287.93 199.35 288.29C207.71 288.65 214.62 287.21 214.71 285.08C214.8 282.95 208.07 280.94 199.71 280.59C191.35 280.24 184.44 281.67 184.35 283.79Z" fill="white"/>
<path d="M186.29 283.73C186.284 283.865 186.331 283.998 186.42 284.1C187.42 282.86 192.99 282.1 199.63 282.4C206.27 282.7 211.76 283.89 212.63 285.22C212.721 285.117 212.777 284.987 212.79 284.85C212.85 283.41 206.97 281.97 199.64 281.66C192.31 281.35 186.35 282.28 186.29 283.73Z" fill="#007B58"/>
<path opacity="0.4" d="M186.29 283.73C186.284 283.865 186.331 283.998 186.42 284.1C187.42 282.86 192.99 282.1 199.63 282.4C206.27 282.7 211.76 283.89 212.63 285.22C212.721 285.117 212.777 284.987 212.79 284.85C212.85 283.41 206.97 281.97 199.64 281.66C192.31 281.35 186.35 282.28 186.29 283.73Z" fill="#007B58"/>
<path opacity="0.4" d="M186.42 284.1C187.32 285.44 192.8 286.64 199.42 286.92C206.04 287.2 211.63 286.47 212.63 285.22C211.74 283.89 206.27 282.69 199.63 282.4C192.99 282.11 187.43 282.86 186.42 284.1Z" fill="#007B58"/>
<path d="M181 281.81C180.91 283.94 187.64 285.95 196 286.31C204.36 286.67 211.27 285.23 211.36 283.1C211.45 280.97 204.72 278.97 196.36 278.61C188 278.25 181.08 279.69 181 281.81Z" fill="#007B58"/>
<path d="M181.147 277.95L180.983 281.796L211.376 283.086L211.539 279.24L181.147 277.95Z" fill="#007B58"/>
<path d="M181.16 277.96C181.07 280.09 187.8 282.1 196.16 282.46C204.52 282.82 211.43 281.38 211.52 279.25C211.61 277.12 204.88 275.12 196.52 274.76C188.16 274.4 181.25 275.84 181.16 277.96Z" fill="#007B58"/>
<path opacity="0.4" d="M181.16 277.96C181.07 280.09 187.8 282.1 196.16 282.46C204.52 282.82 211.43 281.38 211.52 279.25C211.61 277.12 204.88 275.12 196.52 274.76C188.16 274.4 181.25 275.84 181.16 277.96Z" fill="white"/>
<path d="M183.1 277.9C183.096 278.037 183.139 278.17 183.22 278.28C184.22 277.03 189.8 276.28 196.44 276.58C203.08 276.88 208.57 278.06 209.44 279.39C209.533 279.288 209.589 279.158 209.6 279.02C209.66 277.59 203.78 276.14 196.45 275.83C189.12 275.52 183.16 276.46 183.1 277.9Z" fill="#007B58"/>
<path opacity="0.4" d="M183.1 277.9C183.096 278.037 183.139 278.17 183.22 278.28C184.22 277.03 189.8 276.28 196.44 276.58C203.08 276.88 208.57 278.06 209.44 279.39C209.533 279.288 209.589 279.158 209.6 279.02C209.66 277.59 203.78 276.14 196.45 275.83C189.12 275.52 183.16 276.46 183.1 277.9Z" fill="#007B58"/>
<path opacity="0.4" d="M183.22 278.28C184.13 279.61 189.6 280.81 196.22 281.09C202.84 281.37 208.44 280.64 209.44 279.39C208.55 278.06 203.07 276.86 196.44 276.58C189.81 276.3 184.24 277.03 183.22 278.28Z" fill="#007B58"/>
<path d="M185.87 276.87C185.78 279 192.51 281.01 200.87 281.37C209.23 281.73 216.14 280.29 216.23 278.16C216.32 276.03 209.59 274.03 201.23 273.67C192.87 273.31 186 274.75 185.87 276.87Z" fill="#007B58"/>
<path d="M186.038 273.025L185.875 276.871L216.267 278.161L216.431 274.315L186.038 273.025Z" fill="#007B58"/>
<path d="M186 273.02C185.91 275.15 192.64 277.16 201 277.52C209.36 277.88 216.27 276.44 216.36 274.31C216.45 272.18 209.72 270.18 201.36 269.82C193 269.46 186.12 270.9 186 273.02Z" fill="#007B58"/>
<path opacity="0.4" d="M186 273.02C185.91 275.15 192.64 277.16 201 277.52C209.36 277.88 216.27 276.44 216.36 274.31C216.45 272.18 209.72 270.18 201.36 269.82C193 269.46 186.12 270.9 186 273.02Z" fill="white"/>
<path d="M188 272.96C188 273.098 188.046 273.231 188.13 273.34C189.13 272.09 194.7 271.34 201.34 271.64C207.98 271.94 213.47 273.12 214.34 274.45C214.39 274.402 214.43 274.345 214.457 274.281C214.485 274.218 214.499 274.149 214.5 274.08C214.56 272.65 208.68 271.2 201.35 270.89C194.02 270.58 188 271.52 188 272.96Z" fill="#007B58"/>
<path opacity="0.4" d="M188 272.96C188 273.098 188.046 273.231 188.13 273.34C189.13 272.09 194.7 271.34 201.34 271.64C207.98 271.94 213.47 273.12 214.34 274.45C214.39 274.402 214.43 274.345 214.457 274.281C214.485 274.218 214.499 274.149 214.5 274.08C214.56 272.65 208.68 271.2 201.35 270.89C194.02 270.58 188 271.52 188 272.96Z" fill="#007B58"/>
<path opacity="0.4" d="M188.1 273.34C189.01 274.67 194.48 275.87 201.1 276.15C207.72 276.43 213.31 275.7 214.31 274.45C213.42 273.12 207.95 271.92 201.31 271.64C194.67 271.36 189.12 272.09 188.1 273.34Z" fill="#007B58"/>
<path d="M182.68 271.05C182.59 273.17 189.32 275.18 197.68 275.54C206.04 275.9 212.94 274.46 213.04 272.34C213.14 270.22 206.4 268.2 198.04 267.84C189.68 267.48 182.77 268.92 182.68 271.05Z" fill="#007B58"/>
<path d="M182.828 267.185L182.665 271.031L213.057 272.321L213.221 268.474L182.828 267.185Z" fill="#007B58"/>
<path d="M182.84 267.2C182.75 269.32 189.48 271.33 197.84 271.69C206.2 272.05 213.11 270.61 213.2 268.49C213.29 266.37 206.56 264.35 198.2 263.99C189.84 263.63 182.93 265.07 182.84 267.2Z" fill="#007B58"/>
<path opacity="0.4" d="M182.84 267.2C182.75 269.32 189.48 271.33 197.84 271.69C206.2 272.05 213.11 270.61 213.2 268.49C213.29 266.37 206.56 264.35 198.2 263.99C189.84 263.63 182.93 265.07 182.84 267.2Z" fill="white"/>
<path d="M184.78 267.13C184.774 267.269 184.82 267.404 184.91 267.51C185.91 266.26 191.48 265.51 198.12 265.81C204.76 266.11 210.25 267.29 211.12 268.62C211.211 268.521 211.267 268.394 211.28 268.26C211.34 266.82 205.46 265.37 198.13 265.06C190.8 264.75 184.84 265.69 184.78 267.13Z" fill="#007B58"/>
<path opacity="0.4" d="M184.78 267.13C184.774 267.269 184.82 267.404 184.91 267.51C185.91 266.26 191.48 265.51 198.12 265.81C204.76 266.11 210.25 267.29 211.12 268.62C211.211 268.521 211.267 268.394 211.28 268.26C211.34 266.82 205.46 265.37 198.13 265.06C190.8 264.75 184.84 265.69 184.78 267.13Z" fill="#007B58"/>
<path opacity="0.4" d="M184.91 267.51C185.81 268.84 191.29 270.04 197.91 270.32C204.53 270.6 210.12 269.87 211.12 268.62C210.23 267.29 204.76 266.09 198.12 265.81C191.48 265.53 185.92 266.28 184.91 267.51Z" fill="#007B58"/>
<path d="M216.25 266.91C216.34 269.03 209.61 271.05 201.25 271.4C192.89 271.75 186 270.28 185.86 268.2C185.72 266.12 192.49 264.06 200.86 263.7C209.23 263.34 216.15 264.78 216.25 266.91Z" fill="#007B58"/>
<path d="M215.407 264.063L184.987 265.28L185.141 269.13L215.561 267.913L215.407 264.063Z" fill="#007B58"/>
<path d="M216.08 263.06C216.17 265.18 209.44 267.2 201.08 267.55C192.72 267.9 185.81 266.48 185.72 264.35C185.63 262.22 192.36 260.21 200.72 259.85C209.08 259.49 216 260.93 216.08 263.06Z" fill="#007B58"/>
<path opacity="0.4" d="M216.08 263.06C216.17 265.18 209.44 267.2 201.08 267.55C192.72 267.9 185.81 266.48 185.72 264.35C185.63 262.22 192.36 260.21 200.72 259.85C209.08 259.49 216 260.93 216.08 263.06Z" fill="white"/>
<path d="M214.14 262.99C214.148 263.129 214.102 263.265 214.01 263.37C213.01 262.12 207.44 261.37 200.8 261.67C194.16 261.97 188.67 263.15 187.8 264.49C187.711 264.386 187.655 264.257 187.64 264.12C187.58 262.68 193.46 261.24 200.79 260.93C208.12 260.62 214.08 261.55 214.14 262.99Z" fill="#007B58"/>
<path opacity="0.4" d="M214.14 262.99C214.148 263.129 214.102 263.265 214.01 263.37C213.01 262.12 207.44 261.37 200.8 261.67C194.16 261.97 188.67 263.15 187.8 264.49C187.711 264.386 187.655 264.257 187.64 264.12C187.58 262.68 193.46 261.24 200.79 260.93C208.12 260.62 214.08 261.55 214.14 262.99Z" fill="#007B58"/>
<path opacity="0.4" d="M214 263.37C213.1 264.7 207.62 265.9 201 266.19C194.38 266.48 188.79 265.74 187.79 264.49C188.68 263.15 194.15 261.95 200.79 261.67C207.43 261.39 213 262.12 214 263.37Z" fill="#007B58"/>
<path d="M219.44 261.08C219.53 263.21 212.8 265.22 204.44 265.57C196.08 265.92 189.17 264.5 189.08 262.37C188.99 260.24 195.72 258.23 204.08 257.88C212.44 257.53 219.35 258.95 219.44 261.08Z" fill="#007B58"/>
<path d="M219.277 257.23L188.885 258.52L189.048 262.367L219.441 261.077L219.277 257.23Z" fill="#007B58"/>
<path d="M219.27 257.28C219.36 259.41 212.64 261.42 204.27 261.78C195.9 262.14 189.01 260.7 188.92 258.57C188.83 256.44 195.55 254.43 203.92 254.08C212.29 253.73 219.18 255.1 219.27 257.28Z" fill="#007B58"/>
<path opacity="0.4" d="M219.27 257.28C219.36 259.41 212.64 261.42 204.27 261.78C195.9 262.14 189.01 260.7 188.92 258.57C188.83 256.44 195.55 254.43 203.92 254.08C212.29 253.73 219.18 255.1 219.27 257.28Z" fill="white"/>
<path d="M217.34 257.16C217.338 257.297 217.292 257.43 217.21 257.54C216.21 256.29 210.63 255.54 204 255.84C197.37 256.14 191.86 257.33 191 258.66C190.901 258.562 190.844 258.429 190.84 258.29C190.77 256.85 196.66 255.41 203.98 255.1C211.3 254.79 217.27 255.72 217.34 257.16Z" fill="#007B58"/>
<path opacity="0.4" d="M217.34 257.16C217.338 257.297 217.292 257.43 217.21 257.54C216.21 256.29 210.63 255.54 204 255.84C197.37 256.14 191.86 257.33 191 258.66C190.901 258.562 190.844 258.429 190.84 258.29C190.77 256.85 196.66 255.41 203.98 255.1C211.3 254.79 217.27 255.72 217.34 257.16Z" fill="#007B58"/>
<path opacity="0.4" d="M217.21 257.54C216.3 258.87 210.83 260.08 204.21 260.36C197.59 260.64 191.99 259.91 191 258.66C191.88 257.33 197.36 256.12 204 255.84C210.64 255.56 216.19 256.28 217.21 257.54Z" fill="#007B58"/>
<path d="M219 254.06C219.09 256.18 212.37 258.2 204 258.55C195.63 258.9 188.74 257.48 188.65 255.35C188.56 253.22 195.28 251.21 203.65 250.85C212.02 250.49 218.93 251.93 219 254.06Z" fill="#007B58"/>
<path d="M218.86 250.214L188.468 251.504L188.631 255.351L219.023 254.061L218.86 250.214Z" fill="#007B58"/>
<path d="M218.86 250.21C218.95 252.34 212.22 254.35 203.86 254.7C195.5 255.05 188.59 253.63 188.5 251.5C188.41 249.37 195.14 247.36 203.5 247.01C211.86 246.66 218.77 248.08 218.86 250.21Z" fill="#007B58"/>
<path opacity="0.4" d="M218.86 250.21C218.95 252.34 212.22 254.35 203.86 254.7C195.5 255.05 188.59 253.63 188.5 251.5C188.41 249.37 195.14 247.36 203.5 247.01C211.86 246.66 218.77 248.08 218.86 250.21Z" fill="white"/>
<path d="M216.92 250.14C216.928 250.279 216.882 250.415 216.79 250.52C215.79 249.27 210.22 248.52 203.58 248.82C196.94 249.12 191.45 250.31 190.58 251.64C190.491 251.536 190.435 251.407 190.42 251.27C190.36 249.83 196.24 248.39 203.57 248.08C210.9 247.77 216.86 248.7 216.92 250.14Z" fill="#007B58"/>
<path opacity="0.4" d="M216.92 250.14C216.928 250.279 216.882 250.415 216.79 250.52C215.79 249.27 210.22 248.52 203.58 248.82C196.94 249.12 191.45 250.31 190.58 251.64C190.491 251.536 190.435 251.407 190.42 251.27C190.36 249.83 196.24 248.39 203.57 248.08C210.9 247.77 216.86 248.7 216.92 250.14Z" fill="#007B58"/>
<path opacity="0.4" d="M216.79 250.52C215.89 251.85 210.41 253.06 203.79 253.34C197.17 253.62 191.58 252.89 190.58 251.64C191.47 250.31 196.94 249.1 203.58 248.82C210.22 248.54 215.78 249.28 216.79 250.52Z" fill="#007B58"/>
<path d="M222.22 248.28C222.31 250.41 215.58 252.42 207.22 252.78C198.86 253.14 191.95 251.7 191.86 249.57C191.77 247.44 198.5 245.43 206.86 245.08C215.22 244.73 222.13 246.1 222.22 248.28Z" fill="#007B58"/>
<path d="M222.03 244.394L191.637 245.684L191.801 249.531L222.193 248.241L222.03 244.394Z" fill="#007B58"/>
<path d="M222.05 244.38C222.14 246.51 215.41 248.52 207.05 248.88C198.69 249.24 191.78 247.8 191.69 245.67C191.6 243.54 198.33 241.53 206.69 241.18C215.05 240.83 222 242.28 222.05 244.38Z" fill="#007B58"/>
<path opacity="0.4" d="M222.05 244.38C222.14 246.51 215.41 248.52 207.05 248.88C198.69 249.24 191.78 247.8 191.69 245.67C191.6 243.54 198.33 241.53 206.69 241.18C215.05 240.83 222 242.28 222.05 244.38Z" fill="white"/>
<path d="M220.12 244.28C220.117 244.414 220.071 244.543 219.99 244.65C218.99 243.4 213.41 242.65 206.78 242.95C200.15 243.25 194.64 244.44 193.78 245.77C193.682 245.67 193.622 245.539 193.61 245.4C193.55 243.96 199.43 242.52 206.76 242.21C214.09 241.9 220.05 242.88 220.12 244.28Z" fill="#007B58"/>
<path opacity="0.4" d="M220.12 244.28C220.117 244.414 220.071 244.543 219.99 244.65C218.99 243.4 213.41 242.65 206.78 242.95C200.15 243.25 194.64 244.44 193.78 245.77C193.682 245.67 193.622 245.539 193.61 245.4C193.55 243.96 199.43 242.52 206.76 242.21C214.09 241.9 220.05 242.88 220.12 244.28Z" fill="#007B58"/>
<path opacity="0.4" d="M220 244.69C219.09 246.03 213.62 247.23 207 247.51C200.38 247.79 194.78 247.06 193.79 245.81C194.67 244.48 200.15 243.27 206.79 242.99C213.43 242.71 219 243.44 220 244.69Z" fill="#007B58"/>
<path d="M217.34 243.28C217.43 245.41 210.7 247.42 202.34 247.78C193.98 248.14 187 246.71 187 244.58C187 242.45 193.64 240.44 202 240.09C210.36 239.74 217.25 241.17 217.34 243.28Z" fill="#007B58"/>
<path d="M217.185 239.435L186.792 240.725L186.956 244.571L217.348 243.282L217.185 239.435Z" fill="#007B58"/>
<path d="M217.18 239.44C217.27 241.57 210.54 243.58 202.18 243.94C193.82 244.3 186.91 242.86 186.82 240.73C186.73 238.6 193.46 236.59 201.82 236.24C210.18 235.89 217.09 237.28 217.18 239.44Z" fill="#007B58"/>
<path opacity="0.4" d="M217.18 239.44C217.27 241.57 210.54 243.58 202.18 243.94C193.82 244.3 186.91 242.86 186.82 240.73C186.73 238.6 193.46 236.59 201.82 236.24C210.18 235.89 217.09 237.28 217.18 239.44Z" fill="white"/>
<path d="M215.24 239.38C215.246 239.515 215.199 239.648 215.11 239.75C214.11 238.5 208.54 237.75 201.9 238.05C195.26 238.35 189.77 239.54 188.9 240.87C188.805 240.769 188.748 240.638 188.74 240.5C188.68 239.06 194.56 237.62 201.89 237.31C209.22 237 215.18 237.94 215.24 239.38Z" fill="#007B58"/>
<path opacity="0.4" d="M215.24 239.38C215.246 239.515 215.199 239.648 215.11 239.75C214.11 238.5 208.54 237.75 201.9 238.05C195.26 238.35 189.77 239.54 188.9 240.87C188.805 240.769 188.748 240.638 188.74 240.5C188.68 239.06 194.56 237.62 201.89 237.31C209.22 237 215.18 237.94 215.24 239.38Z" fill="#007B58"/>
<path opacity="0.4" d="M215.11 239.75C214.2 241.09 208.73 242.29 202.11 242.57C195.49 242.85 189.9 242.12 188.9 240.87C189.79 239.54 195.26 238.34 201.9 238.05C208.54 237.76 214.09 238.5 215.11 239.75Z" fill="#007B58"/>
<path d="M220.54 237.46C220.63 239.59 213.9 241.6 205.54 241.96C197.18 242.32 190.28 240.88 190.19 238.75C190.1 236.62 196.82 234.61 205.19 234.26C213.56 233.91 220.44 235.34 220.54 237.46Z" fill="#007B58"/>
<path d="M220.365 233.625L189.973 234.915L190.136 238.761L220.529 237.472L220.365 233.625Z" fill="#007B58"/>
<path d="M220.37 233.61C220.46 235.74 213.73 237.75 205.37 238.11C197.01 238.47 190.1 237.03 190.01 234.9C189.92 232.77 196.65 230.77 205.01 230.41C213.37 230.05 220.28 231.49 220.37 233.61Z" fill="#007B58"/>
<path opacity="0.4" d="M220.37 233.61C220.46 235.74 213.73 237.75 205.37 238.11C197.01 238.47 190.1 237.03 190.01 234.9C189.92 232.77 196.65 230.77 205.01 230.41C213.37 230.05 220.28 231.49 220.37 233.61Z" fill="white"/>
<path d="M218.43 233.55C218.434 233.688 218.388 233.823 218.3 233.93C217.3 232.68 211.73 231.93 205.09 232.22C198.45 232.51 192.96 233.71 192.09 235.04C191.999 234.937 191.943 234.807 191.93 234.67C191.87 233.23 197.75 231.79 205.08 231.48C212.41 231.17 218.37 232.11 218.43 233.55Z" fill="#007B58"/>
<path opacity="0.4" d="M218.43 233.55C218.434 233.688 218.388 233.823 218.3 233.93C217.3 232.68 211.73 231.93 205.09 232.22C198.45 232.51 192.96 233.71 192.09 235.04C191.999 234.937 191.943 234.807 191.93 234.67C191.87 233.23 197.75 231.79 205.08 231.48C212.41 231.17 218.37 232.11 218.43 233.55Z" fill="#007B58"/>
<path opacity="0.4" d="M218.3 233.93C217.4 235.26 211.92 236.46 205.3 236.74C198.68 237.02 193.09 236.29 192.09 235.04C192.98 233.71 198.45 232.51 205.09 232.22C211.73 231.93 217.29 232.68 218.3 233.93Z" fill="#007B58"/>
<path d="M208.46 234.632C215.572 231.984 219.191 224.071 216.543 216.959C213.894 209.846 205.982 206.228 198.87 208.876C191.757 211.524 188.138 219.436 190.787 226.549C193.435 233.661 201.347 237.28 208.46 234.632Z" fill="#007B58"/>
<path d="M215.009 229.831C219.913 224.069 219.217 215.423 213.455 210.519C207.693 205.615 199.047 206.31 194.143 212.072C189.239 217.835 189.935 226.481 195.697 231.385C201.459 236.289 210.105 235.593 215.009 229.831Z" fill="#007B58"/>
<path opacity="0.4" d="M215.009 229.831C219.913 224.069 219.217 215.423 213.455 210.519C207.693 205.615 199.047 206.31 194.143 212.072C189.239 217.835 189.935 226.481 195.697 231.385C201.459 236.289 210.105 235.593 215.009 229.831Z" fill="white"/>
<path d="M213.91 225.17C213.07 227.015 211.702 228.569 209.979 229.636C208.256 230.704 206.255 231.236 204.23 231.167C202.204 231.097 200.245 230.428 198.599 229.245C196.953 228.062 195.695 226.418 194.984 224.52C194.272 222.622 194.14 220.556 194.602 218.583C195.065 216.609 196.102 214.817 197.583 213.434C199.064 212.05 200.922 211.136 202.922 210.808C204.922 210.48 206.975 210.752 208.82 211.59C211.295 212.717 213.221 214.78 214.176 217.327C215.13 219.873 215.035 222.694 213.91 225.17Z" fill="#007B58"/>
<path opacity="0.3" d="M209.33 223.97C209.172 223.345 208.822 222.786 208.33 222.37C208.853 222.348 209.36 222.178 209.79 221.88C210.227 221.579 210.573 221.164 210.79 220.68C210.978 220.289 211.066 219.858 211.045 219.425C211.024 218.992 210.895 218.571 210.67 218.2C210.241 217.524 209.645 216.97 208.94 216.59L209.29 215.82L208.11 215.29L207.79 216L206.61 215.46L206.93 214.75L205.75 214.21L205.43 214.93L202.87 213.76L198.07 224.33L200.62 225.5L200.28 226.25L201.46 226.78L201.8 226.03L202.98 226.57L202.64 227.32L203.82 227.85L204.18 227.07C205.07 227.47 206.052 227.618 207.02 227.5C207.465 227.418 207.881 227.224 208.231 226.937C208.581 226.65 208.852 226.28 209.02 225.86C209.334 225.283 209.444 224.617 209.33 223.97ZM204.49 216.71L206.92 217.82C207.411 218.005 207.838 218.328 208.15 218.75C208.251 218.923 208.304 219.12 208.304 219.32C208.304 219.52 208.251 219.717 208.15 219.89C208.081 220.08 207.962 220.247 207.805 220.374C207.648 220.5 207.46 220.582 207.26 220.61C206.735 220.664 206.205 220.56 205.74 220.31L203.31 219.2L204.49 216.71ZM205.81 225.24C205.254 225.277 204.699 225.156 204.21 224.89L201.36 223.6L202.54 220.98L205.4 222.28C206.69 222.87 207.14 223.61 206.75 224.48C206.681 224.686 206.556 224.869 206.391 225.01C206.225 225.151 206.025 225.244 205.81 225.28V225.24Z" fill="white"/>
<path d="M333.7 298.5C333.39 299.75 329.15 299.76 324.23 298.5C319.31 297.24 315.57 295.25 315.88 294.01C316.19 292.77 320.44 292.75 325.36 294.01C330.28 295.27 334 297.28 333.7 298.5Z" fill="#007B58"/>
<path d="M316.457 291.789L315.891 294.049L333.711 298.512L334.277 296.251L316.457 291.789Z" fill="#007B58"/>
<path d="M334.27 296.28C333.95 297.53 329.71 297.54 324.79 296.28C319.87 295.02 316.14 293.04 316.45 291.79C316.76 290.54 321 290.53 325.92 291.79C330.84 293.05 334.58 295 334.27 296.28Z" fill="#007B58"/>
<path opacity="0.4" d="M334.27 296.28C333.95 297.53 329.71 297.54 324.79 296.28C319.87 295.02 316.14 293.04 316.45 291.79C316.76 290.54 321 290.53 325.92 291.79C330.84 293.05 334.58 295 334.27 296.28Z" fill="white"/>
<path d="M333.15 295.87C333.142 295.911 333.125 295.95 333.101 295.984C333.077 296.019 333.046 296.048 333.01 296.07C332.64 295.17 329.55 293.79 325.66 292.82C321.77 291.85 318.38 291.6 317.66 292.22C317.641 292.141 317.641 292.059 317.66 291.98C317.88 291.13 321.53 291.31 325.83 292.38C330.13 293.45 333.37 295.03 333.15 295.87Z" fill="#007B58"/>
<path opacity="0.4" d="M333.15 295.87C333.142 295.911 333.125 295.95 333.101 295.984C333.077 296.019 333.046 296.048 333.01 296.07C332.64 295.17 329.55 293.79 325.66 292.82C321.77 291.85 318.38 291.6 317.66 292.22C317.641 292.141 317.641 292.059 317.66 291.98C317.88 291.13 321.53 291.31 325.83 292.38C330.13 293.45 333.37 295.03 333.15 295.87Z" fill="#007B58"/>
<path opacity="0.4" d="M333 296.07C332.25 296.68 328.88 296.44 325 295.47C321.12 294.5 318 293.11 317.64 292.22C318.39 291.6 321.76 291.84 325.64 292.82C329.52 293.8 332.64 295.17 333 296.07Z" fill="#007B58"/>
<path d="M342.26 302.6C342.32 303.88 338.26 305.1 333.18 305.31C328.1 305.52 323.96 304.66 323.91 303.38C323.86 302.1 327.91 300.88 332.99 300.66C338.07 300.44 342.21 301.28 342.26 302.6Z" fill="#007B58"/>
<path d="M342.141 300.303L323.788 301.082L323.886 303.41L342.24 302.631L342.141 300.303Z" fill="#007B58"/>
<path d="M342.16 300.28C342.22 301.57 338.16 302.78 333.09 303C328.02 303.22 323.87 302.35 323.81 301.06C323.75 299.77 327.81 298.56 332.89 298.35C337.97 298.14 342.11 298.99 342.16 300.28Z" fill="#007B58"/>
<path opacity="0.4" d="M342.16 300.28C342.22 301.57 338.16 302.78 333.09 303C328.02 303.22 323.87 302.35 323.81 301.06C323.75 299.77 327.81 298.56 332.89 298.35C337.97 298.14 342.11 298.99 342.16 300.28Z" fill="white"/>
<path d="M341 300.28C341.004 300.322 340.999 300.364 340.985 300.404C340.971 300.444 340.949 300.48 340.92 300.51C340.31 299.76 336.92 299.31 332.92 299.51C328.92 299.71 325.59 300.41 325.05 301.21C324.994 301.15 324.963 301.072 324.96 300.99C324.96 300.12 328.47 299.25 332.9 299.06C337.33 298.87 341 299.36 341 300.28Z" fill="#007B58"/>
<path opacity="0.4" d="M341 300.28C341.004 300.322 340.999 300.364 340.985 300.404C340.971 300.444 340.949 300.48 340.92 300.51C340.31 299.76 336.92 299.31 332.92 299.51C328.92 299.71 325.59 300.41 325.05 301.21C324.994 301.15 324.963 301.072 324.96 300.99C324.96 300.12 328.47 299.25 332.9 299.06C337.33 298.87 341 299.36 341 300.28Z" fill="#007B58"/>
<path opacity="0.4" d="M340.91 300.46C340.37 301.26 337.06 301.99 333.05 302.16C329.04 302.33 325.68 301.89 325.05 301.16C325.59 300.36 328.9 299.63 332.92 299.46C336.94 299.29 340.3 299.71 340.91 300.46Z" fill="#007B58"/>
<path d="M332.602 298.028C336.754 291.702 334.992 283.209 328.666 279.057C322.341 274.905 313.847 276.667 309.696 282.993C305.544 289.318 307.306 297.811 313.631 301.963C319.957 306.115 328.45 304.353 332.602 298.028Z" fill="#007B58"/>
<path d="M332.62 300.76C330.817 302.783 328.455 304.226 325.832 304.906C323.209 305.587 320.443 305.474 317.884 304.582C315.325 303.691 313.088 302.06 311.456 299.897C309.824 297.734 308.87 295.136 308.715 292.43C308.559 289.725 309.21 287.034 310.584 284.699C311.958 282.363 313.994 280.487 316.434 279.309C318.874 278.13 321.608 277.702 324.292 278.078C326.976 278.453 329.488 279.617 331.51 281.42C334.221 283.838 335.861 287.233 336.07 290.86C336.278 294.487 335.037 298.048 332.62 300.76Z" fill="#007B58"/>
<path opacity="0.4" d="M332.62 300.76C330.817 302.783 328.455 304.226 325.832 304.906C323.209 305.587 320.443 305.474 317.884 304.582C315.325 303.691 313.088 302.06 311.456 299.897C309.824 297.734 308.87 295.136 308.715 292.43C308.559 289.725 309.21 287.034 310.584 284.699C311.958 282.363 313.994 280.487 316.434 279.309C318.874 278.13 321.608 277.702 324.292 278.078C326.976 278.453 329.488 279.617 331.51 281.42C334.221 283.838 335.861 287.233 336.07 290.86C336.278 294.487 335.037 298.048 332.62 300.76Z" fill="white"/>
<path d="M330 298.47C328.65 299.986 326.881 301.067 324.916 301.576C322.952 302.086 320.88 302.002 318.964 301.334C317.047 300.667 315.372 299.445 314.149 297.825C312.927 296.205 312.212 294.259 312.096 292.233C311.98 290.206 312.467 288.191 313.497 286.442C314.526 284.693 316.051 283.288 317.879 282.406C319.706 281.523 321.755 281.203 323.765 281.485C325.775 281.767 327.656 282.639 329.17 283.99C330.176 284.886 330.996 285.971 331.582 287.184C332.168 288.397 332.509 289.713 332.586 291.058C332.664 292.403 332.475 293.75 332.031 295.021C331.587 296.293 330.897 297.465 330 298.47Z" fill="#007B58"/>
<g opacity="0.3">
<path d="M324.3 296.28C323.08 298.28 320.91 298.33 318.66 296.64L317.38 298.01L316.1 296.88L317.39 295.51C316.364 294.455 315.601 293.174 315.16 291.77L317.16 290.7C317.487 291.887 318.091 292.98 318.92 293.89L320.92 291.79C319.99 290.33 319.03 288.62 320.13 286.84C321.34 284.89 323.55 284.84 325.82 286.55L327.11 285.18L328.38 286.32L327.09 287.7C327.889 288.543 328.508 289.54 328.91 290.63L327 291.75C326.709 290.838 326.225 289.999 325.58 289.29L323.53 291.49C324.41 292.93 325.34 294.58 324.3 296.28ZM322.54 290.01L324.22 288.22C323.39 287.73 322.7 287.82 322.34 288.37C322.228 288.636 322.188 288.926 322.223 289.212C322.258 289.498 322.367 289.769 322.54 290V290.01ZM322 294.83C322.109 294.58 322.148 294.305 322.115 294.034C322.081 293.763 321.976 293.506 321.81 293.29L320.21 294.99C321 295.43 321.65 295.37 322 294.82V294.83Z" fill="white"/>
</g>
<path d="M152.78 303.87C152.73 305.15 156.78 306.37 161.86 306.58C166.94 306.79 171.08 305.93 171.13 304.65C171.18 303.37 167.13 302.15 162.06 301.93C156.99 301.71 152.84 302.58 152.78 303.87Z" fill="#007B58"/>
<path d="M152.886 301.56L152.787 303.888L171.141 304.667L171.24 302.339L152.886 301.56Z" fill="#007B58"/>
<path d="M152.88 301.54C152.82 302.83 156.88 304.04 161.96 304.26C167.04 304.48 171.18 303.61 171.23 302.32C171.28 301.03 167.23 299.82 162.15 299.61C157.07 299.4 152.93 300.28 152.88 301.54Z" fill="#007B58"/>
<path opacity="0.4" d="M152.88 301.54C152.82 302.83 156.88 304.04 161.96 304.26C167.04 304.48 171.18 303.61 171.23 302.32C171.28 301.03 167.23 299.82 162.15 299.61C157.07 299.4 152.93 300.28 152.88 301.54Z" fill="white"/>
<path d="M154.05 301.5C154.051 301.583 154.079 301.664 154.13 301.73C154.74 300.98 158.13 300.53 162.13 300.73C166.13 300.93 169.45 301.63 169.99 302.44C170.047 302.376 170.082 302.295 170.09 302.21C170.09 301.34 166.57 300.47 162.15 300.29C157.73 300.11 154.09 300.63 154.05 301.5Z" fill="#007B58"/>
<path opacity="0.4" d="M154.05 301.5C154.051 301.583 154.079 301.664 154.13 301.73C154.74 300.98 158.13 300.53 162.13 300.73C166.13 300.93 169.45 301.63 169.99 302.44C170.047 302.376 170.082 302.295 170.09 302.21C170.09 301.34 166.57 300.47 162.15 300.29C157.73 300.11 154.09 300.63 154.05 301.5Z" fill="#007B58"/>
<path opacity="0.4" d="M154.13 301.73C154.68 302.54 157.98 303.26 161.99 303.43C166 303.6 169.37 303.16 169.99 302.43C169.45 301.62 166.15 300.9 162.13 300.72C158.11 300.54 154.74 300.98 154.13 301.73Z" fill="#007B58"/>
<path d="M150.85 300.35C150.85 301.63 154.85 302.85 159.93 303.06C165.01 303.27 169.15 302.41 169.2 301.13C169.25 299.85 165.2 298.63 160.13 298.41C155.06 298.19 150.91 299.07 150.85 300.35Z" fill="#007B58"/>
<path d="M150.937 297.999L150.839 300.327L169.192 301.106L169.291 298.778L150.937 297.999Z" fill="#007B58"/>
<path d="M151 298.02C151 299.31 155 300.52 160.08 300.74C165.16 300.96 169.3 300.09 169.35 298.8C169.4 297.51 165.35 296.3 160.28 296.09C155.21 295.88 151 296.74 151 298.02Z" fill="#007B58"/>
<path opacity="0.4" d="M151 298.02C151 299.31 155 300.52 160.08 300.74C165.16 300.96 169.3 300.09 169.35 298.8C169.4 297.51 165.35 296.3 160.28 296.09C155.21 295.88 151 296.74 151 298.02Z" fill="white"/>
<path d="M152.12 297.98C152.121 298.063 152.149 298.144 152.2 298.21C152.81 297.46 156.2 297.02 160.2 297.21C164.2 297.4 167.52 298.1 168.06 298.91C168.117 298.846 168.152 298.765 168.16 298.68C168.16 297.82 164.64 296.94 160.22 296.76C155.8 296.58 152.16 297.11 152.12 297.98Z" fill="#007B58"/>
<path opacity="0.4" d="M152.12 297.98C152.121 298.063 152.149 298.144 152.2 298.21C152.81 297.46 156.2 297.02 160.2 297.21C164.2 297.4 167.52 298.1 168.06 298.91C168.117 298.846 168.152 298.765 168.16 298.68C168.16 297.82 164.64 296.94 160.22 296.76C155.8 296.58 152.16 297.11 152.12 297.98Z" fill="#007B58"/>
<path opacity="0.4" d="M152.2 298.21C152.75 299.02 156.05 299.74 160.06 299.91C164.07 300.08 167.44 299.64 168.06 298.91C167.52 298.1 164.22 297.38 160.2 297.21C156.18 297.04 152.81 297.46 152.2 298.21Z" fill="#007B58"/>
<path d="M151.1 296.11C151.1 297.39 155.1 298.61 160.18 298.82C165.26 299.03 169.4 298.17 169.45 296.89C169.5 295.61 165.45 294.39 160.38 294.17C155.31 293.95 151.16 294.83 151.1 296.11Z" fill="#007B58"/>
<path d="M151.182 293.76L151.083 296.087L169.436 296.866L169.535 294.538L151.182 293.76Z" fill="#007B58"/>
<path d="M151.2 293.78C151.2 295.07 155.2 296.28 160.28 296.5C165.36 296.72 169.5 295.85 169.55 294.56C169.6 293.27 165.55 292.06 160.48 291.85C155.41 291.64 151.26 292.5 151.2 293.78Z" fill="#007B58"/>
<path opacity="0.4" d="M151.2 293.78C151.2 295.07 155.2 296.28 160.28 296.5C165.36 296.72 169.5 295.85 169.55 294.56C169.6 293.27 165.55 292.06 160.48 291.85C155.41 291.64 151.26 292.5 151.2 293.78Z" fill="white"/>
<path d="M152.37 293.74C152.371 293.823 152.399 293.904 152.45 293.97C153.06 293.22 156.45 292.78 160.45 292.97C164.45 293.16 167.77 293.86 168.31 294.67C168.367 294.606 168.402 294.525 168.41 294.44C168.41 293.58 164.89 292.7 160.47 292.52C156.05 292.34 152.41 292.88 152.37 293.74Z" fill="#007B58"/>
<path opacity="0.4" d="M152.37 293.74C152.371 293.823 152.399 293.904 152.45 293.97C153.06 293.22 156.45 292.78 160.45 292.97C164.45 293.16 167.77 293.86 168.31 294.67C168.367 294.606 168.402 294.525 168.41 294.44C168.41 293.58 164.89 292.7 160.47 292.52C156.05 292.34 152.41 292.88 152.37 293.74Z" fill="#007B58"/>
<path opacity="0.4" d="M152.45 293.97C153 294.78 156.3 295.5 160.31 295.67C164.32 295.84 167.69 295.4 168.31 294.67C167.77 293.86 164.47 293.14 160.45 292.97C156.43 292.8 153.06 293.22 152.45 293.97Z" fill="#007B58"/>
<path d="M149.17 292.59C149.17 293.87 153.17 295.09 158.25 295.3C163.33 295.51 167.47 294.65 167.53 293.37C167.59 292.09 163.53 290.87 158.45 290.65C153.37 290.43 149.23 291.28 149.17 292.59Z" fill="#007B58"/>
<path d="M149.264 290.249L149.165 292.577L167.518 293.355L167.617 291.027L149.264 290.249Z" fill="#007B58"/>
<path d="M149.27 290.28C149.22 291.57 153.27 292.78 158.35 293C163.43 293.22 167.57 292.35 167.62 291.06C167.67 289.77 163.62 288.57 158.55 288.35C153.48 288.13 149.33 288.98 149.27 290.28Z" fill="#007B58"/>
<path opacity="0.4" d="M149.27 290.28C149.22 291.57 153.27 292.78 158.35 293C163.43 293.22 167.57 292.35 167.62 291.06C167.67 289.77 163.62 288.57 158.55 288.35C153.48 288.13 149.33 288.98 149.27 290.28Z" fill="white"/>
<path d="M150.44 290.22C150.441 290.303 150.469 290.384 150.52 290.45C151.14 289.7 154.52 289.26 158.52 289.45C162.52 289.64 165.85 290.34 166.38 291.15C166.439 291.091 166.475 291.013 166.48 290.93C166.48 290.06 162.96 289.18 158.54 289C154.12 288.82 150.48 289.36 150.44 290.22Z" fill="#007B58"/>
<path opacity="0.4" d="M150.44 290.22C150.441 290.303 150.469 290.384 150.52 290.45C151.14 289.7 154.52 289.26 158.52 289.45C162.52 289.64 165.85 290.34 166.38 291.15C166.439 291.091 166.475 291.013 166.48 290.93C166.48 290.06 162.96 289.18 158.54 289C154.12 288.82 150.48 289.36 150.44 290.22Z" fill="#007B58"/>
<path opacity="0.4" d="M150.52 290.45C151.07 291.26 154.37 291.98 158.38 292.15C162.39 292.32 165.76 291.88 166.38 291.15C165.85 290.34 162.54 289.62 158.52 289.45C154.5 289.28 151.14 289.7 150.52 290.45Z" fill="#007B58"/>
<path d="M152.12 289.61C152.06 290.89 156.12 292.11 161.2 292.32C166.28 292.53 170.42 291.67 170.47 290.39C170.52 289.11 166.47 287.89 161.39 287.67C156.31 287.45 152.17 288.28 152.12 289.61Z" fill="#007B58"/>
<path d="M152.201 287.255L152.102 289.583L170.456 290.362L170.554 288.034L152.201 287.255Z" fill="#007B58"/>
<path d="M152.22 287.28C152.16 288.57 156.22 289.78 161.29 290C166.36 290.22 170.51 289.35 170.57 288.06C170.63 286.77 166.57 285.56 161.49 285.35C156.41 285.14 152.27 286 152.22 287.28Z" fill="#007B58"/>
<path opacity="0.4" d="M152.22 287.28C152.16 288.57 156.22 289.78 161.29 290C166.36 290.22 170.51 289.35 170.57 288.06C170.63 286.77 166.57 285.56 161.49 285.35C156.41 285.14 152.27 286 152.22 287.28Z" fill="white"/>
<path d="M153.39 287.28C153.386 287.322 153.391 287.364 153.405 287.404C153.419 287.444 153.441 287.48 153.47 287.51C154.08 286.76 157.47 286.31 161.47 286.51C165.47 286.71 168.8 287.41 169.34 288.21C169.396 288.15 169.428 288.072 169.43 287.99C169.43 287.12 165.92 286.25 161.49 286.06C157.06 285.87 153.42 286.37 153.39 287.28Z" fill="#007B58"/>
<path opacity="0.4" d="M153.39 287.28C153.386 287.322 153.391 287.364 153.405 287.404C153.419 287.444 153.441 287.48 153.47 287.51C154.08 286.76 157.47 286.31 161.47 286.51C165.47 286.71 168.8 287.41 169.34 288.21C169.396 288.15 169.428 288.072 169.43 287.99C169.43 287.12 165.92 286.25 161.49 286.06C157.06 285.87 153.42 286.37 153.39 287.28Z" fill="#007B58"/>
<path opacity="0.4" d="M153.47 287.47C154.01 288.27 157.32 289 161.33 289.17C165.34 289.34 168.7 288.9 169.33 288.17C168.79 287.37 165.48 286.64 161.46 286.47C157.44 286.3 154.08 286.72 153.47 287.47Z" fill="#007B58"/>
<path d="M139.18 303.66C139.49 304.91 143.74 304.92 148.66 303.66C153.58 302.4 157.31 300.42 157 299.17C156.69 297.92 152.45 297.91 147.53 299.17C142.61 300.43 138.87 302.42 139.18 303.66Z" fill="#007B58"/>
<path d="M156.439 296.938L138.619 301.401L139.185 303.661L157.005 299.198L156.439 296.938Z" fill="#007B58"/>
<path d="M138.62 301.41C138.93 302.65 143.17 302.67 148.09 301.41C153.01 300.15 156.75 298.17 156.43 296.93C156.11 295.69 151.88 295.67 146.96 296.93C142.04 298.19 138.3 300.16 138.62 301.41Z" fill="#007B58"/>
<path opacity="0.4" d="M138.62 301.41C138.93 302.65 143.17 302.67 148.09 301.41C153.01 300.15 156.75 298.17 156.43 296.93C156.11 295.69 151.88 295.67 146.96 296.93C142.04 298.19 138.3 300.16 138.62 301.41Z" fill="white"/>
<path d="M139.73 301.04C139.752 301.118 139.802 301.186 139.87 301.23C140.24 300.34 143.33 298.96 147.23 297.98C151.13 297 154.5 296.76 155.23 297.38C155.26 297.303 155.26 297.217 155.23 297.14C155.02 296.3 151.36 296.47 147.07 297.55C142.78 298.63 139.52 300.19 139.73 301.04Z" fill="#007B58"/>
<path opacity="0.4" d="M139.73 301.04C139.752 301.118 139.802 301.186 139.87 301.23C140.24 300.34 143.33 298.96 147.23 297.98C151.13 297 154.5 296.76 155.23 297.38C155.26 297.303 155.26 297.217 155.23 297.14C155.02 296.3 151.36 296.47 147.07 297.55C142.78 298.63 139.52 300.19 139.73 301.04Z" fill="#007B58"/>
<path opacity="0.4" d="M139.87 301.28C140.62 301.9 144 301.66 147.87 300.68C151.74 299.7 154.87 298.33 155.23 297.43C154.48 296.81 151.11 297.06 147.23 298.03C143.35 299 140.24 300.34 139.87 301.28Z" fill="#007B58"/>
<path d="M130.67 303.87C130.67 305.15 134.67 306.37 139.75 306.58C144.83 306.79 148.97 305.93 149.02 304.65C149.07 303.37 145.02 302.15 139.95 301.93C134.88 301.71 130.73 302.58 130.67 303.87Z" fill="#007B58"/>
<path d="M130.759 301.52L130.66 303.848L149.013 304.627L149.112 302.299L130.759 301.52Z" fill="#007B58"/>
<path d="M130.77 301.54C130.72 302.83 134.77 304.04 139.85 304.26C144.93 304.48 149.07 303.61 149.12 302.32C149.17 301.03 145.12 299.82 140.05 299.61C134.98 299.4 130.83 300.28 130.77 301.54Z" fill="#007B58"/>
<path opacity="0.4" d="M130.77 301.54C130.72 302.83 134.77 304.04 139.85 304.26C144.93 304.48 149.07 303.61 149.12 302.32C149.17 301.03 145.12 299.82 140.05 299.61C134.98 299.4 130.83 300.28 130.77 301.54Z" fill="white"/>
<path d="M131.94 301.5C131.941 301.583 131.969 301.664 132.02 301.73C132.63 300.98 136.02 300.53 140.02 300.73C144.02 300.93 147.34 301.63 147.88 302.44C147.937 302.376 147.972 302.295 147.98 302.21C147.98 301.34 144.46 300.47 140.04 300.29C135.62 300.11 132 300.63 131.94 301.5Z" fill="#007B58"/>
<path opacity="0.4" d="M131.94 301.5C131.941 301.583 131.969 301.664 132.02 301.73C132.63 300.98 136.02 300.53 140.02 300.73C144.02 300.93 147.34 301.63 147.88 302.44C147.937 302.376 147.972 302.295 147.98 302.21C147.98 301.34 144.46 300.47 140.04 300.29C135.62 300.11 132 300.63 131.94 301.5Z" fill="#007B58"/>
<path opacity="0.4" d="M132 301.73C132.55 302.54 135.85 303.26 139.86 303.43C143.87 303.6 147.24 303.16 147.86 302.43C147.32 301.62 144.02 300.9 140 300.72C135.98 300.54 132.63 300.98 132 301.73Z" fill="#007B58"/>
<path d="M225.46 303.76C225.4 305.08 229.58 306.33 234.79 306.55C240 306.77 244.27 305.88 244.33 304.55C244.39 303.22 240.2 301.99 234.99 301.76C229.78 301.53 225.51 302.44 225.46 303.76Z" fill="#007B58"/>
<path d="M225.54 301.35L225.439 303.737L244.312 304.538L244.413 302.151L225.54 301.35Z" fill="#007B58"/>
<path d="M225.56 301.37C225.5 302.69 229.68 303.94 234.89 304.16C240.1 304.38 244.37 303.49 244.43 302.16C244.49 300.83 240.31 299.6 235.09 299.37C229.87 299.14 225.61 300.05 225.56 301.37Z" fill="#007B58"/>
<path opacity="0.4" d="M225.56 301.37C225.5 302.69 229.68 303.94 234.89 304.16C240.1 304.38 244.37 303.49 244.43 302.16C244.49 300.83 240.31 299.6 235.09 299.37C229.87 299.14 225.61 300.05 225.56 301.37Z" fill="white"/>
<path d="M226.76 301.33C226.762 301.416 226.79 301.5 226.84 301.57C227.47 300.79 230.92 300.34 235.05 300.51C239.18 300.68 242.58 301.43 243.13 302.26C243.191 302.199 243.227 302.117 243.23 302.03C243.23 301.14 239.62 300.24 235.07 300.03C230.52 299.82 226.8 300.44 226.76 301.33Z" fill="#007B58"/>
<path opacity="0.4" d="M226.76 301.33C226.762 301.416 226.79 301.5 226.84 301.57C227.47 300.79 230.92 300.34 235.05 300.51C239.18 300.68 242.58 301.43 243.13 302.26C243.191 302.199 243.227 302.117 243.23 302.03C243.23 301.14 239.62 300.24 235.07 300.03C230.52 299.82 226.8 300.44 226.76 301.33Z" fill="#007B58"/>
<path opacity="0.4" d="M226.84 301.57C227.41 302.39 230.84 303.14 234.93 303.32C239.02 303.5 242.51 303.04 243.13 302.26C242.58 301.43 239.18 300.69 235.05 300.51C230.92 300.33 227.47 300.79 226.84 301.57Z" fill="#007B58"/>
<path d="M223.47 300.14C223.42 301.46 227.6 302.71 232.81 302.94C238.02 303.17 242.29 302.27 242.34 300.94C242.39 299.61 238.22 298.37 233.01 298.14C227.8 297.91 223.53 298.82 223.47 300.14Z" fill="#007B58"/>
<path d="M223.569 297.754L223.468 300.142L242.341 300.943L242.442 298.555L223.569 297.754Z" fill="#007B58"/>
<path d="M223.58 297.75C223.52 299.07 227.7 300.32 232.91 300.55C238.12 300.78 242.39 299.88 242.45 298.55C242.51 297.22 238.32 295.98 233.11 295.75C227.9 295.52 223.63 296.43 223.58 297.75Z" fill="#007B58"/>
<path opacity="0.4" d="M223.58 297.75C223.52 299.07 227.7 300.32 232.91 300.55C238.12 300.78 242.39 299.88 242.45 298.55C242.51 297.22 238.32 295.98 233.11 295.75C227.9 295.52 223.63 296.43 223.58 297.75Z" fill="white"/>
<path d="M224.78 297.71C224.782 297.796 224.81 297.88 224.86 297.95C225.49 297.17 228.94 296.72 233.06 296.89C237.18 297.06 240.6 297.81 241.15 298.64C241.207 298.576 241.242 298.495 241.25 298.41C241.25 297.52 237.63 296.62 233.08 296.41C228.53 296.2 224.82 296.82 224.78 297.71Z" fill="#007B58"/>
<path opacity="0.4" d="M224.78 297.71C224.782 297.796 224.81 297.88 224.86 297.95C225.49 297.17 228.94 296.72 233.06 296.89C237.18 297.06 240.6 297.81 241.15 298.64C241.207 298.576 241.242 298.495 241.25 298.41C241.25 297.52 237.63 296.62 233.08 296.41C228.53 296.2 224.82 296.82 224.78 297.71Z" fill="#007B58"/>
<path opacity="0.4" d="M224.86 297.95C225.42 298.77 228.86 299.52 232.94 299.7C237.02 299.88 240.53 299.42 241.15 298.64C240.6 297.81 237.2 297.07 233.06 296.89C228.92 296.71 225.49 297.17 224.86 297.95Z" fill="#007B58"/>
<path d="M227.73 297.47C227.67 298.78 231.85 300.03 237.06 300.26C242.27 300.49 246.54 299.59 246.6 298.26C246.66 296.93 242.47 295.69 237.26 295.47C232.05 295.25 227.78 296.15 227.73 297.47Z" fill="#007B58"/>
<path d="M227.812 295.055L227.71 297.442L246.583 298.243L246.685 295.855L227.812 295.055Z" fill="#007B58"/>
<path d="M227.83 295.07C227.77 296.39 231.95 297.64 237.16 297.87C242.37 298.1 246.64 297.2 246.7 295.87C246.76 294.54 242.57 293.3 237.36 293.08C232.15 292.86 227.88 293.76 227.83 295.07Z" fill="#007B58"/>
<path opacity="0.4" d="M227.83 295.07C227.77 296.39 231.95 297.64 237.16 297.87C242.37 298.1 246.64 297.2 246.7 295.87C246.76 294.54 242.57 293.3 237.36 293.08C232.15 292.86 227.88 293.76 227.83 295.07Z" fill="white"/>
<path d="M229 295.03C229.002 295.116 229.03 295.2 229.08 295.27C229.71 294.49 233.16 294.04 237.28 294.21C241.4 294.38 244.82 295.13 245.37 295.96C245.427 295.896 245.462 295.815 245.47 295.73C245.47 294.84 241.85 293.94 237.3 293.73C232.75 293.52 229.07 294.14 229 295.03Z" fill="#007B58"/>
<path opacity="0.4" d="M229 295.03C229.002 295.116 229.03 295.2 229.08 295.27C229.71 294.49 233.16 294.04 237.28 294.21C241.4 294.38 244.82 295.13 245.37 295.96C245.427 295.896 245.462 295.815 245.47 295.73C245.47 294.84 241.85 293.94 237.3 293.73C232.75 293.52 229.07 294.14 229 295.03Z" fill="#007B58"/>
<path opacity="0.4" d="M229.11 295.28C229.67 296.11 233.11 296.85 237.19 297.03C241.27 297.21 244.78 296.75 245.4 295.97C244.85 295.14 241.45 294.4 237.31 294.22C233.17 294.04 229.74 294.49 229.11 295.28Z" fill="#007B58"/>
<path d="M227.78 293.85C227.72 295.17 231.9 296.42 237.11 296.64C242.32 296.86 246.59 295.97 246.65 294.64C246.71 293.31 242.52 292.07 237.31 291.85C232.1 291.63 227.83 292.53 227.78 293.85Z" fill="#007B58"/>
<path d="M227.518 290.233L227.423 292.623L246.313 293.379L246.408 290.989L227.518 290.233Z" fill="#007B58"/>
<path d="M227.88 291.46C227.82 292.78 232 294.03 237.21 294.25C242.42 294.47 246.69 293.58 246.75 292.25C246.81 290.92 242.62 289.68 237.41 289.46C232.2 289.24 227.93 290.14 227.88 291.46Z" fill="#007B58"/>
<path opacity="0.4" d="M227.88 291.46C227.82 292.78 232 294.03 237.21 294.25C242.42 294.47 246.69 293.58 246.75 292.25C246.81 290.92 242.62 289.68 237.41 289.46C232.2 289.24 227.93 290.14 227.88 291.46Z" fill="white"/>
<path d="M229.08 291.42C229.082 291.503 229.11 291.584 229.16 291.65C229.79 290.87 233.24 290.42 237.36 290.59C241.48 290.76 244.9 291.52 245.45 292.34C245.512 292.279 245.547 292.197 245.55 292.11C245.55 291.22 241.94 290.32 237.38 290.11C232.82 289.9 229.12 290.52 229.08 291.42Z" fill="#007B58"/>
<path opacity="0.4" d="M229.08 291.42C229.082 291.503 229.11 291.584 229.16 291.65C229.79 290.87 233.24 290.42 237.36 290.59C241.48 290.76 244.9 291.52 245.45 292.34C245.512 292.279 245.547 292.197 245.55 292.11C245.55 291.22 241.94 290.32 237.38 290.11C232.82 289.9 229.12 290.52 229.08 291.42Z" fill="#007B58"/>
<path opacity="0.4" d="M229.16 291.65C229.72 292.48 233.16 293.22 237.25 293.4C241.34 293.58 244.83 293.12 245.45 292.34C244.9 291.52 241.5 290.77 237.36 290.59C233.22 290.41 229.79 290.87 229.16 291.65Z" fill="#007B58"/>
<path d="M223.9 290.89C223.84 292.21 228.02 293.46 233.23 293.68C238.44 293.9 242.71 293.01 242.77 291.68C242.83 290.35 238.65 289.11 233.44 288.89C228.23 288.67 224 289.57 223.9 290.89Z" fill="#007B58"/>
<path d="M224.013 288.523L223.912 290.911L242.785 291.715L242.886 289.327L224.013 288.523Z" fill="#007B58"/>
<path d="M224 288.5C223.94 289.82 228.12 291.07 233.33 291.29C238.54 291.51 242.81 290.62 242.87 289.29C242.93 287.96 238.75 286.72 233.54 286.5C228.33 286.28 224.06 287.18 224 288.5Z" fill="#007B58"/>
<path opacity="0.4" d="M224 288.5C223.94 289.82 228.12 291.07 233.33 291.29C238.54 291.51 242.81 290.62 242.87 289.29C242.93 287.96 238.75 286.72 233.54 286.5C228.33 286.28 224.06 287.18 224 288.5Z" fill="white"/>
<path d="M225.2 288.46C225.202 288.543 225.23 288.624 225.28 288.69C225.92 287.92 229.37 287.46 233.49 287.64C237.61 287.82 241.02 288.56 241.57 289.38C241.631 289.323 241.667 289.244 241.67 289.16C241.67 288.26 238.06 287.37 233.51 287.16C228.96 286.95 225.24 287.56 225.2 288.46Z" fill="#007B58"/>
<path opacity="0.4" d="M225.2 288.46C225.202 288.543 225.23 288.624 225.28 288.69C225.92 287.92 229.37 287.46 233.49 287.64C237.61 287.82 241.02 288.56 241.57 289.38C241.631 289.323 241.667 289.244 241.67 289.16C241.67 288.26 238.06 287.37 233.51 287.16C228.96 286.95 225.24 287.56 225.2 288.46Z" fill="#007B58"/>
<path opacity="0.4" d="M225.28 288.69C225.85 289.52 229.28 290.27 233.37 290.44C237.46 290.61 240.95 290.16 241.57 289.38C241.02 288.56 237.62 287.81 233.49 287.64C229.36 287.47 225.92 287.92 225.28 288.69Z" fill="#007B58"/>
<path d="M248.26 298.09C247.71 299.26 250.99 301.95 255.58 304.09C260.17 306.23 264.34 307.09 264.88 305.89C265.42 304.69 262.15 302.04 257.56 299.89C252.97 297.74 248.8 296.93 248.26 298.09Z" fill="#007B58"/>
<path d="M249.253 296.019L248.262 298.128L264.888 305.941L265.879 303.832L249.253 296.019Z" fill="#007B58"/>
<path d="M249.25 295.99C248.7 297.15 251.98 299.84 256.57 301.99C261.16 304.14 265.33 304.99 265.87 303.79C266.41 302.59 263.14 299.93 258.55 297.79C253.96 295.65 249.79 294.82 249.25 295.99Z" fill="#007B58"/>
<path opacity="0.4" d="M249.25 295.99C248.7 297.15 251.98 299.84 256.57 301.99C261.16 304.14 265.33 304.99 265.87 303.79C266.41 302.59 263.14 299.93 258.55 297.79C253.96 295.65 249.79 294.82 249.25 295.99Z" fill="white"/>
<path d="M250.34 296.4C250.31 296.477 250.31 296.563 250.34 296.64C251.19 296.19 254.46 297.07 258.09 298.78C261.72 300.49 264.5 302.44 264.69 303.39C264.765 303.355 264.825 303.295 264.86 303.22C265.23 302.43 262.29 300.22 258.28 298.37C254.27 296.52 250.71 295.62 250.34 296.4Z" fill="#007B58"/>
<path opacity="0.4" d="M250.34 296.4C250.31 296.477 250.31 296.563 250.34 296.64C251.19 296.19 254.46 297.07 258.09 298.78C261.72 300.49 264.5 302.44 264.69 303.39C264.765 303.355 264.825 303.295 264.86 303.22C265.23 302.43 262.29 300.22 258.28 298.37C254.27 296.52 250.71 295.62 250.34 296.4Z" fill="#007B58"/>
<path opacity="0.4" d="M250.33 296.64C250.52 297.64 253.33 299.54 256.92 301.25C260.51 302.96 263.83 303.85 264.68 303.39C264.49 302.44 261.68 300.49 258.08 298.78C254.48 297.07 251.18 296.19 250.33 296.64Z" fill="#007B58"/>
<path d="M238.61 302.22C238.56 303.5 242.61 304.71 247.69 304.93C252.77 305.15 256.91 304.28 256.97 303C257.03 301.72 252.97 300.5 247.89 300.28C242.81 300.06 238.67 300.93 238.61 302.22Z" fill="#007B58"/>
<path d="M238.697 299.857L238.598 302.185L256.952 302.964L257.051 300.636L238.697 299.857Z" fill="#007B58"/>
<path d="M238.71 299.89C238.71 301.17 242.71 302.39 247.79 302.61C252.87 302.83 257.01 301.95 257.06 300.67C257.11 299.39 253.06 298.17 247.99 297.96C242.92 297.75 238.77 298.61 238.71 299.89Z" fill="#007B58"/>
<path opacity="0.4" d="M238.71 299.89C238.71 301.17 242.71 302.39 247.79 302.61C252.87 302.83 257.01 301.95 257.06 300.67C257.11 299.39 253.06 298.17 247.99 297.96C242.92 297.75 238.77 298.61 238.71 299.89Z" fill="white"/>
<path d="M239.88 299.85C239.881 299.933 239.909 300.014 239.96 300.08C240.58 299.32 243.96 298.88 247.96 299.08C251.96 299.28 255.29 299.98 255.82 300.78C255.881 300.723 255.917 300.644 255.92 300.56C255.92 299.69 252.4 298.82 247.98 298.63C243.56 298.44 239.92 298.98 239.88 299.85Z" fill="#007B58"/>
<path opacity="0.4" d="M239.88 299.85C239.881 299.933 239.909 300.014 239.96 300.08C240.58 299.32 243.96 298.88 247.96 299.08C251.96 299.28 255.29 299.98 255.82 300.78C255.881 300.723 255.917 300.644 255.92 300.56C255.92 299.69 252.4 298.82 247.98 298.63C243.56 298.44 239.92 298.98 239.88 299.85Z" fill="#007B58"/>
<path opacity="0.4" d="M240 300.08C240.55 300.88 243.85 301.61 247.86 301.78C251.87 301.95 255.24 301.51 255.86 300.78C255.33 299.98 252.02 299.25 248 299.08C243.98 298.91 240.58 299.28 240 300.08Z" fill="#007B58"/>
<path d="M119.3 38.94L126.95 49.32L171.03 31.02L214 46.31L252.93 21.13L255.72 24.84L264.97 9.7L244.24 8.07001L247.42 12.27L208.46 37.2L166.13 22.19L119.3 38.94Z" fill="#007B58"/>
<g opacity="0.5">
<path d="M119.3 38.94L126.95 49.32L171.03 31.02L214 46.31L252.93 21.13L255.72 24.84L264.97 9.7L244.24 8.07001L247.42 12.27L208.46 37.2L166.13 22.19L119.3 38.94Z" fill="white"/>
</g>
<path d="M189 49.69C189.26 50.93 189.51 52.01 189.8 53.14C190.09 54.27 190.4 55.33 190.73 56.47C191.38 58.66 192.13 60.84 192.96 63.05C194.619 67.6405 196.889 71.9863 199.71 75.97C200.541 77.0825 201.464 78.1229 202.47 79.08C203.598 80.162 204.883 81.0688 206.28 81.77C208.961 83.0736 211.937 83.6495 214.91 83.44C217.513 83.2602 220.07 82.659 222.48 81.66C223.616 81.1964 224.724 80.6689 225.8 80.08C226.338 79.7755 226.859 79.4417 227.36 79.08C227.86 78.71 228.36 78.4 228.92 77.99L226.25 73.28L224.85 73.65L223.38 74C222.38 74.22 221.38 74.41 220.38 74.54C218.576 74.8165 216.744 74.8535 214.93 74.65C213.478 74.5025 212.084 74.0012 210.87 73.19C210.347 72.8144 209.864 72.3855 209.43 71.91C208.899 71.2768 208.411 70.6086 207.97 69.91C206.955 68.3163 206.069 66.6443 205.32 64.91C204.5 63.1 203.78 61.19 203.1 59.23C202.42 57.27 201.81 55.23 201.2 53.23L200.34 50.23C200.07 49.23 199.77 48.17 199.56 47.3L189 49.69Z" fill="#FF8B7B"/>
<path d="M188.09 43.63C192.63 37.86 199.51 39.97 203.38 49.15C205.519 54.0327 207.219 59.096 208.46 64.28L192.32 69.95C188.08 61.28 183.43 49.54 188.09 43.63Z" fill="#007B58"/>
<path opacity="0.1" d="M188.09 43.63C192.63 37.86 199.51 39.97 203.38 49.15C205.519 54.0327 207.219 59.096 208.46 64.28L192.32 69.95C188.08 61.28 183.43 49.54 188.09 43.63Z" fill="black"/>
<path opacity="0.3" d="M194.83 53.28C193.51 52.38 190.78 57.63 189.52 63.81C190.41 65.97 191.36 68.04 192.31 69.96L202.02 66.55C200.43 60.74 197.82 55.28 194.83 53.28Z" fill="black"/>
<path d="M227.07 70.91L230.6 68.98L231.84 76.86C231.84 76.86 225.94 80.42 224.25 77.48L224.43 75.48C224.525 74.5756 224.809 73.7014 225.264 72.914C225.719 72.1267 226.334 71.4439 227.07 70.91Z" fill="#FF8B7B"/>
<path d="M235.03 68.6L238.12 74.93L231.81 76.87L230.57 68.99L235.03 68.6Z" fill="#FF8B7B"/>
<path d="M188 38.47L179.76 37.28L169.47 38.18C167.908 38.3162 166.434 38.9614 165.274 40.0164C164.114 41.0714 163.333 42.4779 163.05 44.02C161.896 51.5334 161.212 59.1114 161 66.71C160.64 75.26 161.59 87.88 163 99.28L197.38 95.12C197.71 65.12 199.98 55.83 200.26 47.88C200.316 46.3178 199.856 44.7806 198.953 43.505C198.05 42.2293 196.752 41.2859 195.26 40.82L188 38.47Z" fill="#007B58"/>
<path d="M198.42 187.24L205.74 189.26L212.29 172.08L204.99 170.05L198.42 187.24Z" fill="#FF8B7B"/>
<path d="M209 186.98C208.421 186.228 207.584 185.718 206.65 185.55L199.12 184.09C198.952 184.052 198.776 184.078 198.626 184.163C198.476 184.248 198.363 184.386 198.31 184.55L196 191.42C195.871 191.797 195.896 192.209 196.068 192.568C196.24 192.927 196.546 193.204 196.92 193.34H197C199.78 194.44 201.66 194.06 206 194.9C208.67 195.42 214.29 197.2 218 197.05C221.71 196.9 221.75 193.18 220.17 192.9C214.57 192.03 210.28 188.67 209 186.98Z" fill="#263238"/>
<g opacity="0.2">
<path d="M212.29 172.08L208.8 181.23L201.6 178.91L204.98 170.05L212.29 172.08Z" fill="black"/>
</g>
<path d="M230.54 121.39C230.266 124.112 229.771 126.808 229.06 129.45C227.13 136.91 223.83 144.51 221.06 151.92C215.7 166.56 211 179.28 211 179.28L201 175.82C201 175.82 210 133.46 216.07 129.13H178.85C178.154 129.13 177.459 129.083 176.77 128.99C183.18 128.16 193.17 124.21 202.44 120.26C210.63 116.76 218.29 113.26 222.44 111.94C227.52 114.11 230.93 117.12 230.54 121.39Z" fill="#263238"/>
<path opacity="0.1" d="M230.54 121.39C230.266 124.112 229.771 126.808 229.06 129.45C227.13 136.91 223.83 144.51 221.06 151.92C215.7 166.56 211 179.28 211 179.28L201 175.82C201 175.82 210 133.46 216.07 129.13H178.85C178.154 129.13 177.459 129.083 176.77 128.99C183.18 128.16 193.17 124.21 202.44 120.26C210.63 116.76 218.29 113.26 222.44 111.94C227.52 114.11 230.93 117.12 230.54 121.39Z" fill="black"/>
<path opacity="0.6" d="M222.45 111.98C218.29 113.33 210.63 116.8 202.45 120.3C193.18 124.25 183.19 128.2 176.78 129.03C165.98 127.59 161.92 114.72 173.21 99.88C180.54 99.88 187.91 106.88 187.91 106.88C187.91 106.88 210.07 106.77 222.45 111.98Z" fill="black"/>
<path d="M249.39 172.46H257.57L249 151.92L243.45 161.35L249.39 172.46Z" fill="#FF8B7B"/>
<path d="M256.9 170.52L247.29 168.33C247.127 168.286 246.953 168.305 246.804 168.385C246.655 168.465 246.543 168.6 246.49 168.76L243.81 176.15C243.701 176.525 243.746 176.928 243.933 177.271C244.12 177.614 244.436 177.869 244.81 177.98H244.86C248.23 178.69 249.86 178.86 254.11 179.81C256.71 180.41 263.29 182.13 266.88 182.95C270.47 183.77 271.41 180.25 269.98 179.58C263.58 176.58 260.1 173.78 258.24 171.36C257.907 170.93 257.432 170.633 256.9 170.52Z" fill="#263238"/>
<g opacity="0.2">
<path d="M249 151.93L252.65 160.67L245.28 164.79L243.45 161.36L249 151.93Z" fill="black"/>
</g>
<path d="M252.76 157.56L243.76 163.01C243.76 163.01 236.25 147.24 229.07 129.45C229.781 126.808 230.275 124.112 230.55 121.39C230.94 117.12 227.55 114.11 222.47 111.99C218.31 113.34 210.65 116.81 202.47 120.31C193.2 124.26 183.21 128.21 176.8 129.04C176.064 129.139 175.322 129.192 174.58 129.2C162.26 129.2 158.01 118.4 162.98 100.08C170.31 100.08 182.86 99.29 182.86 99.29C182.86 99.29 207.08 93.47 224.51 95.45C228.646 95.9375 232.521 97.7252 235.576 100.556C238.631 103.386 240.709 107.113 241.51 111.2C246 133.44 252.76 157.56 252.76 157.56Z" fill="#263238"/>
<path d="M252.76 157.56L243.76 163.01C243.76 163.01 236.25 147.24 229.07 129.45C229.781 126.808 230.275 124.112 230.55 121.39C230.94 117.12 227.55 114.11 222.47 111.99C218.31 113.34 210.65 116.81 202.47 120.31C193.2 124.26 183.21 128.21 176.8 129.04C176.064 129.139 175.322 129.192 174.58 129.2C162.26 129.2 158.01 118.4 162.98 100.08C170.31 100.08 182.86 99.29 182.86 99.29C182.86 99.29 207.08 93.47 224.51 95.45C228.646 95.9375 232.521 97.7252 235.576 100.556C238.631 103.386 240.709 107.113 241.51 111.2C246 133.44 252.76 157.56 252.76 157.56Z" fill="#263238"/>
<path d="M188 38.47L179.76 37.28L169.47 38.18C167.908 38.3162 166.434 38.9614 165.274 40.0164C164.114 41.0714 163.333 42.4779 163.05 44.02C161.896 51.5334 161.212 59.1114 161 66.71C160.64 75.26 161.59 87.88 163 99.28L197.38 95.12C197.71 65.12 199.98 55.83 200.26 47.88C200.316 46.3178 199.856 44.7806 198.953 43.505C198.05 42.2293 196.752 41.2859 195.26 40.82L188 38.47Z" fill="#007B58"/>
<path d="M162.92 97.38L162.03 100.17C161.92 100.38 162.16 100.61 162.53 100.62L196.85 98.57C197.13 98.57 197.37 98.44 197.39 98.26L197.76 95.46C197.76 95.26 197.54 95.09 197.24 95.08L163.47 97.15C163.366 97.1361 163.261 97.15 163.164 97.1904C163.067 97.2309 162.983 97.2963 162.92 97.38Z" fill="#263238"/>
<path opacity="0.1" d="M162.92 97.38L162.03 100.17C161.92 100.38 162.16 100.61 162.53 100.62L196.85 98.57C197.13 98.57 197.37 98.44 197.39 98.26L197.76 95.46C197.76 95.26 197.54 95.09 197.24 95.08L163.47 97.15C163.366 97.1361 163.261 97.15 163.164 97.1904C163.067 97.2309 162.983 97.2963 162.92 97.38Z" fill="black"/>
<path opacity="0.3" d="M166.4 41.22C173.25 40.02 172.91 55.59 169.79 66.98C168.89 70.28 164.99 68.9 163.67 68.04C159.34 65.28 157.88 46.2 166.4 41.22Z" fill="black"/>
<path d="M165.57 64.28C165.83 71.01 163.69 74.54 167.28 76.79C170.87 79.04 192.08 86.07 192.6 85.19C191.6 86.81 190.6 88.19 189.6 89.83C183.487 88.91 177.37 88.06 171.25 87.28C166.78 86.72 159.57 85.57 156.07 82.73C152.89 80.17 153.46 68.93 154 60.83C156.81 59.16 165.57 64.28 165.57 64.28Z" fill="#FF8B7B"/>
<path d="M163.74 38.48C170.74 36.41 173.45 42.05 171.31 51.74C170.231 56.966 168.682 62.0835 166.68 67.03L151.94 62.38C153.54 52.87 156.52 40.6 163.74 38.48Z" fill="#007B58"/>
<path d="M174 38.43C173.813 39.9243 174.195 41.4343 175.07 42.66C175.931 43.8696 176.939 44.9679 178.07 45.93C179.46 47.2 181.12 48.57 183 48.32C184.73 48.09 185.72 47.22 186.42 45.16C187.9 47.55 187.97 48.74 189.6 48.89C190.128 48.8616 190.644 48.7191 191.112 48.4723C191.58 48.2254 191.988 47.88 192.31 47.46C192.91 46.9658 193.407 46.3582 193.773 45.6719C194.138 44.9856 194.365 44.2339 194.44 43.46C194.83 40.46 192.38 37.64 189.52 36.57C186.608 35.5953 183.584 34.9971 180.52 34.79C177.85 34.51 174.49 35.34 174 38.43Z" fill="#007B58"/>
<path opacity="0.3" d="M174 38.43C173.813 39.9243 174.195 41.4343 175.07 42.66C175.931 43.8696 176.939 44.9679 178.07 45.93C179.46 47.2 181.12 48.57 183 48.32C184.73 48.09 185.72 47.22 186.42 45.16C187.9 47.55 187.97 48.74 189.6 48.89C190.128 48.8616 190.644 48.7191 191.112 48.4723C191.58 48.2254 191.988 47.88 192.31 47.46C192.91 46.9658 193.407 46.3582 193.773 45.6719C194.138 44.9856 194.365 44.2339 194.44 43.46C194.83 40.46 192.38 37.64 189.52 36.57C186.608 35.5953 183.584 34.9971 180.52 34.79C177.85 34.51 174.49 35.34 174 38.43Z" fill="black"/>
<path d="M181.16 23.92L184.89 28.23L189.96 34.09C189.506 34.7187 189.168 35.4229 188.96 36.17C188.615 36.9627 188.568 37.8534 188.827 38.6783C189.086 39.5031 189.634 40.2068 190.37 40.66C191.14 41.02 191.54 45.07 186.44 44.66C184.986 44.6349 183.552 44.3103 182.229 43.7064C180.906 43.1024 179.722 42.2322 178.75 41.15C177.82 39.9 177.57 39.23 178.53 37.86C181.25 33.99 181.47 28.38 181.16 23.92Z" fill="#FF8B7B"/>
<path opacity="0.2" d="M188.74 32.64L185.54 28.41C185.54 28.53 185.46 28.67 185.42 28.81C185.263 29.4068 185.156 30.0155 185.1 30.63C184.91 32.73 186.88 35.42 188.8 36.57L188.95 36.15C189.187 35.4393 189.524 34.7659 189.95 34.15C189.975 34.1151 190.005 34.0847 190.04 34.06L188.74 32.64Z" fill="black"/>
<path d="M181.51 15.99C180.93 22.94 180.29 26.99 183.27 30.93C187.78 36.93 196.76 34.79 199.38 28.11C201.74 22.11 202.23 11.74 195.85 8.10998C193.603 6.8696 190.956 6.57205 188.49 7.28274C186.024 7.99344 183.942 9.65421 182.7 11.9C182.001 13.1565 181.594 14.5545 181.51 15.99Z" fill="#FF8B7B"/>
<path d="M180.49 22.14L183.49 23.43C184.49 23.01 184.72 21.8 184.65 20.7C184.35 16.46 192 11.28 192 11.28C192 11.28 183.91 8.62001 181.48 8.22001C180.63 8.08001 177.57 10.3 177.1 11.22C176.471 12.57 176.231 14.0687 176.408 15.5474C176.585 17.0261 177.171 18.4262 178.1 19.59C178.812 20.5155 179.612 21.3695 180.49 22.14Z" fill="#263238"/>
<path d="M177.93 20.89C178.079 22.442 178.79 23.886 179.93 24.95C181.41 26.31 183.22 24.83 183.44 22.85C183.62 21.09 182.73 18.52 180.93 17.93C179.13 17.34 177.76 18.95 177.93 20.89Z" fill="#FF8B7B"/>
<path d="M191.94 20.16C191.83 20.73 192.04 21.26 192.41 21.34C192.78 21.42 193.13 21.03 193.28 20.46C193.43 19.89 193.17 19.36 192.8 19.28C192.43 19.2 192 19.58 191.94 20.16Z" fill="#263238"/>
<path d="M198.35 21.5699C198.24 22.1499 198.45 22.6799 198.83 22.7599C199.21 22.8399 199.58 22.44 199.69 21.88C199.8 21.32 199.58 20.78 199.21 20.7C198.84 20.62 198.46 20.9999 198.35 21.5699Z" fill="#263238"/>
<path d="M196.21 21.54C196.411 23.1725 196.821 24.7723 197.43 26.3C197.043 26.4396 196.629 26.4913 196.219 26.4516C195.809 26.4118 195.413 26.2815 195.06 26.07L196.21 21.54Z" fill="#FF5652"/>
<path d="M193.44 29.28C192.803 29.0589 192.218 28.7097 191.721 28.254C191.224 27.7982 190.825 27.2456 190.55 26.63C190.533 26.5888 190.533 26.5427 190.55 26.5016C190.567 26.4605 190.599 26.4276 190.64 26.41C190.684 26.3959 190.731 26.3982 190.774 26.4166C190.816 26.435 190.85 26.4682 190.87 26.51C191.178 27.1737 191.635 27.7573 192.206 28.2152C192.776 28.6732 193.445 28.9931 194.16 29.15C194.182 29.1524 194.204 29.1594 194.224 29.1703C194.243 29.1812 194.261 29.1959 194.275 29.2136C194.289 29.2313 194.299 29.2516 194.305 29.2732C194.311 29.2949 194.313 29.3176 194.31 29.34C194.302 29.386 194.277 29.4274 194.24 29.4554C194.203 29.4833 194.156 29.4958 194.11 29.49C193.88 29.4411 193.656 29.3708 193.44 29.28Z" fill="#263238"/>
<path d="M191.06 17.86C191.004 17.8485 190.954 17.8164 190.92 17.77C190.856 17.7063 190.821 17.62 190.821 17.53C190.821 17.44 190.856 17.3537 190.92 17.29C191.321 16.9299 191.805 16.6747 192.328 16.5473C192.852 16.4199 193.399 16.4243 193.92 16.56C194.006 16.5855 194.078 16.644 194.121 16.7226C194.165 16.8013 194.175 16.8938 194.15 16.98C194.12 17.0646 194.059 17.1341 193.978 17.1735C193.898 17.2128 193.805 17.2187 193.72 17.19C193.311 17.0961 192.886 17.1006 192.479 17.2032C192.072 17.3057 191.695 17.5035 191.38 17.78C191.34 17.8221 191.288 17.8519 191.231 17.8661C191.175 17.8802 191.115 17.8781 191.06 17.86Z" fill="#263238"/>
<path d="M199.08 17.87C199.065 17.8143 199.065 17.7556 199.08 17.7C199.091 17.6565 199.112 17.6157 199.139 17.5801C199.166 17.5444 199.201 17.5146 199.24 17.4922C199.279 17.4699 199.322 17.4556 199.367 17.45C199.411 17.4445 199.457 17.4479 199.5 17.46C200.016 17.5831 200.495 17.8293 200.895 18.1776C201.296 18.5258 201.606 18.9658 201.8 19.46C201.825 19.5475 201.815 19.6413 201.772 19.7216C201.729 19.8019 201.657 19.8623 201.57 19.89C201.484 19.9148 201.391 19.9045 201.313 19.8615C201.234 19.8184 201.175 19.746 201.15 19.66C200.995 19.2671 200.748 18.9174 200.43 18.6406C200.111 18.3638 199.73 18.168 199.32 18.07C199.266 18.0591 199.217 18.0351 199.175 18.0002C199.133 17.9653 199.1 17.9205 199.08 17.87Z" fill="#263238"/>
<path d="M201.2 96.66L245.08 96.79C245.845 96.7774 246.579 96.486 247.144 95.9704C247.71 95.4549 248.067 94.7506 248.15 93.99L250.15 71.77C250.188 71.4115 250.15 71.0489 250.038 70.7063C249.926 70.3636 249.742 70.0486 249.499 69.7821C249.256 69.5156 248.96 69.3037 248.629 69.1602C248.298 69.0168 247.94 68.9452 247.58 68.95L203.7 68.82C202.934 68.835 202.2 69.1286 201.635 69.6458C201.07 70.163 200.712 70.8684 200.63 71.63L198.63 93.84C198.592 94.1985 198.63 94.5611 198.742 94.9038C198.854 95.2464 199.038 95.5614 199.281 95.8279C199.524 96.0944 199.82 96.3063 200.151 96.4498C200.482 96.5932 200.839 96.6649 201.2 96.66Z" fill="#007B58"/>
<path opacity="0.3" d="M201.2 96.66L245.08 96.79C245.845 96.7774 246.579 96.486 247.144 95.9704C247.71 95.4549 248.067 94.7506 248.15 93.99L250.15 71.77C250.188 71.4115 250.15 71.0489 250.038 70.7063C249.926 70.3636 249.742 70.0486 249.499 69.7821C249.256 69.5156 248.96 69.3037 248.629 69.1602C248.298 69.0168 247.94 68.9452 247.58 68.95L203.7 68.82C202.934 68.835 202.2 69.1286 201.635 69.6458C201.07 70.163 200.712 70.8684 200.63 71.63L198.63 93.84C198.592 94.1985 198.63 94.5611 198.742 94.9038C198.854 95.2464 199.038 95.5614 199.281 95.8279C199.524 96.0944 199.82 96.3063 200.151 96.4498C200.482 96.5932 200.839 96.6649 201.2 96.66Z" fill="black"/>
<path d="M202.49 96.57L246.37 96.7C247.136 96.6871 247.872 96.3943 248.437 95.8766C249.003 95.359 249.359 94.6524 249.44 93.89L251.44 71.68C251.48 71.322 251.443 70.9596 251.332 70.617C251.221 70.2743 251.038 69.9592 250.796 69.6925C250.554 69.4258 250.258 69.2136 249.928 69.0701C249.597 68.9266 249.24 68.855 248.88 68.86L205 68.73C204.235 68.7471 203.502 69.0414 202.937 69.5582C202.372 70.075 202.015 70.7792 201.93 71.54L199.93 93.75C199.89 94.108 199.927 94.4703 200.038 94.813C200.149 95.1557 200.332 95.4708 200.574 95.7375C200.816 96.0042 201.112 96.2163 201.442 96.3599C201.773 96.5034 202.13 96.575 202.49 96.57Z" fill="#007B58"/>
<path opacity="0.2" d="M202.49 96.57L246.37 96.7C247.136 96.6871 247.872 96.3943 248.437 95.8766C249.003 95.359 249.359 94.6524 249.44 93.89L251.44 71.68C251.48 71.322 251.443 70.9596 251.332 70.617C251.221 70.2743 251.038 69.9592 250.796 69.6925C250.554 69.4258 250.258 69.2136 249.928 69.0701C249.597 68.9266 249.24 68.855 248.88 68.86L205 68.73C204.235 68.7471 203.502 69.0414 202.937 69.5582C202.372 70.075 202.015 70.7792 201.93 71.54L199.93 93.75C199.89 94.108 199.927 94.4703 200.038 94.813C200.149 95.1557 200.332 95.4708 200.574 95.7375C200.816 96.0042 201.112 96.2163 201.442 96.3599C201.773 96.5034 202.13 96.575 202.49 96.57Z" fill="white"/>
<path d="M228.77 83.03C228.708 83.6398 228.466 84.2175 228.075 84.6899C227.684 85.1622 227.162 85.5082 226.575 85.6839C225.988 85.8597 225.361 85.8574 224.775 85.6773C224.189 85.4972 223.67 85.1474 223.283 84.6721C222.896 84.1968 222.658 83.6174 222.6 83.0071C222.542 82.3969 222.666 81.7831 222.957 81.2434C223.248 80.7038 223.692 80.2624 224.234 79.9753C224.776 79.6881 225.39 79.5679 226 79.63C226.405 79.6712 226.798 79.7919 227.157 79.9851C227.515 80.1783 227.832 80.4403 228.09 80.756C228.347 81.0718 228.539 81.4351 228.656 81.8253C228.773 82.2155 228.812 82.6248 228.77 83.03Z" fill="white"/>
<path d="M247 96.67C247 98 246.21 99.08 245.25 99.08L199.96 98.9C199.47 98.9 199.07 98.36 199.07 97.7C199.07 97.04 199.47 96.48 199.96 96.48L247 96.67Z" fill="#007B58"/>
<path opacity="0.3" d="M247 96.67C247 98 246.21 99.08 245.25 99.08L199.96 98.9C199.47 98.9 199.07 98.36 199.07 97.7C199.07 97.04 199.47 96.48 199.96 96.48L247 96.67Z" fill="black"/>
<path d="M199.68 98.91H177.88C177.323 98.91 176.789 98.6887 176.395 98.2949C176.001 97.9011 175.78 97.3669 175.78 96.81C175.779 96.7671 175.786 96.7244 175.801 96.6844C175.817 96.6445 175.84 96.608 175.87 96.5772C175.9 96.5464 175.936 96.522 175.975 96.5053C176.015 96.4886 176.057 96.48 176.1 96.48H199.68C199.84 96.48 199.998 96.5116 200.145 96.573C200.293 96.6345 200.427 96.7245 200.539 96.8379C200.652 96.9513 200.741 97.0859 200.801 97.2339C200.861 97.3818 200.891 97.5402 200.89 97.7C200.89 98.0209 200.762 98.3287 200.536 98.5556C200.309 98.7825 200.001 98.91 199.68 98.91Z" fill="#007B58"/>
<path d="M187.9 82.08L191.52 81.02L191.19 89.93C191.19 89.93 183.33 91.78 182.84 88.16L183.84 86.21C184.71 84.53 185.91 82.57 187.9 82.08Z" fill="#FF8B7B"/>
<path d="M196.94 83.49L195.87 88.5L191.19 89.93L191.52 81.02L196.94 83.49Z" fill="#FF8B7B"/>
<path d="M198.37 175.09L213.37 180.18L216.43 173.99L199.85 168.72L198.37 175.09Z" fill="#007B58"/>
<path d="M241.46 164.25L255.29 156.52L252.75 150.1L237.72 158.87L241.46 164.25Z" fill="#007B58"/>
<path d="M201.69 15.92C203.75 15.8 204.59 13.37 204.34 12.33C204.035 10.9579 203.201 9.7614 202.02 8.99998C202.68 6.99998 201.79 4.55998 199.31 2.86998C198.408 2.34838 197.4 2.03784 196.36 1.96163C195.321 1.88543 194.278 2.04555 193.31 2.42998C193.31 0.619985 189.98 -0.570013 187.84 1.68999C186.958 1.14463 185.923 0.899573 184.89 0.991508C183.857 1.08344 182.882 1.50742 182.11 2.19998C181.841 2.43508 181.639 2.73814 181.526 3.07758C181.414 3.41703 181.394 3.78045 181.47 4.12998C180.619 4.14039 179.787 4.38011 179.061 4.82388C178.335 5.26764 177.742 5.89902 177.345 6.65149C176.948 7.40395 176.761 8.24964 176.804 9.09942C176.847 9.9492 177.119 10.7716 177.59 11.48C178.26 12.48 179.85 12.48 181.05 12.22C181.382 12.79 181.827 13.2857 182.359 13.6762C182.891 14.0667 183.497 14.3437 184.14 14.49C188.09 15.8 193.52 14.57 194.48 14.49C195.439 14.3304 196.424 14.526 197.25 15.04C197.069 15.292 196.834 15.5007 196.563 15.6512C196.291 15.8016 195.99 15.89 195.68 15.91C195.086 15.97 194.485 15.9396 193.9 15.82C195.237 16.7022 196.863 17.0353 198.44 16.75C199.117 16.4096 199.811 16.1059 200.52 15.84C201 15.77 201.74 15.99 201.69 15.92Z" fill="#263238"/>
</svg>
