<svg width="774" height="444" viewBox="0 0 774 444" fill="none" xmlns="http://www.w3.org/2000/svg">
<g filter="url(#filter0_d_0_274)">
<rect width="774" height="441" fill="url(#paint0_linear_0_274)"/>
<rect x="1" y="1" width="772" height="439" stroke="#2D3137" stroke-width="2"/>
</g>
<path d="M90 209.5L99.5 185L106 209.5L115 197.5L123 209.5L132 203L138 209.5L150.5 218.5L160.5 209.5L175 227L184.5 209.5L198 197.5L212.5 209.5L229.5 285L252.5 267.5L273 276.5L291 267.5L306.5 276.5L322.5 217.5L339.5 235L358 217.5L369 253L381.5 217.5L394 226.5L411 217.5L423.5 205.5L437 217.5L454 226.5L463.5 217.5L477 252.5L491.5 259L509.5 276.5L522.5 285L545 278.5L556 285L568.5 320.5L581.5 285L594.5 252.5L605 285H629L638 302.5L651.5 285L671 260.5L687.5 285L700 320.5L713 285" stroke="url(#paint1_linear_0_274)" stroke-width="2" stroke-linecap="round"/>
<path opacity="0.02" d="M99.5 185L90 209.5V373H713V285L700 320.5L687.5 285L671 260.5L651.5 285L638 302.5L629 285H605L594.5 252.5L581.5 285L568.5 320.5L556 285L545 278.5L522.5 285L509.5 276.5L491.5 259L477 252.5L463.5 217.5L454 226.5L437 217.5L423.5 205.5L411 217.5L394 226.5L381.5 217.5L369 253L358 217.5L339.5 235L322.5 217.5L306.5 276.5L291 267.5L273 276.5L252.5 267.5L229.5 285L212.5 209.5L198 197.5L184.5 209.5L175 227L160.5 209.5L150.5 218.5L138 209.5L132 203L123 209.5L115 197.5L106 209.5L99.5 185Z" fill="#E99C4A"/>
<path d="M40.206 35.45H36.342V47H34.095V35.45H30.231V33.56H40.206V35.45ZM49.1387 47H47.9207L47.4587 45.383C47.1647 45.866 46.6607 46.286 45.9047 46.622C45.1487 46.979 44.2667 47.147 43.2377 47.147C42.0197 47.147 41.0117 46.874 40.2347 46.307C39.4577 45.761 39.0797 44.942 39.0797 43.85C39.0797 42.884 39.4367 42.149 40.1507 41.645C40.8647 41.162 41.9987 40.847 43.5527 40.679L46.9337 40.343C46.8917 39.503 46.6817 38.894 46.2827 38.495C45.8627 38.096 45.1487 37.886 44.1407 37.886C43.1747 37.886 42.5237 38.075 42.1457 38.432C41.7677 38.789 41.5997 39.314 41.5997 40.028L39.4157 40.049C39.4157 38.81 39.7517 37.844 40.4447 37.151C41.1167 36.458 42.3557 36.101 44.1197 36.101C44.9597 36.101 45.6947 36.185 46.3247 36.332C46.9337 36.5 47.4167 36.689 47.7737 36.941C48.1307 37.193 48.4247 37.55 48.6347 37.97C48.8447 38.39 48.9707 38.831 49.0337 39.272C49.0967 39.734 49.1387 40.259 49.1387 40.889V47ZM46.9337 42.38V42.044L43.8887 42.38C42.9647 42.485 42.3137 42.653 41.9357 42.863C41.5577 43.094 41.3897 43.409 41.3897 43.829C41.3897 44.333 41.5787 44.711 41.9987 44.984C42.4187 45.257 43.0067 45.383 43.8047 45.383C44.7707 45.383 45.5477 45.131 46.0937 44.585C46.6397 44.06 46.9337 43.325 46.9337 42.38ZM56.4075 38.054H53.6565V43.913C53.6565 44.459 53.8245 44.837 54.2025 45.047C54.5595 45.257 55.2945 45.341 56.4075 45.278V47.084C54.6015 47.21 53.3205 47.021 52.5435 46.538C51.7455 46.055 51.3675 45.173 51.3675 43.913V38.054H49.8345V36.71L51.3675 36.248V33.56H53.5935V36.248H56.4075V38.054ZM66.9805 47H65.7625L65.3005 45.383C65.0065 45.866 64.5025 46.286 63.7465 46.622C62.9905 46.979 62.1085 47.147 61.0795 47.147C59.8615 47.147 58.8535 46.874 58.0765 46.307C57.2995 45.761 56.9215 44.942 56.9215 43.85C56.9215 42.884 57.2785 42.149 57.9925 41.645C58.7065 41.162 59.8405 40.847 61.3945 40.679L64.7755 40.343C64.7335 39.503 64.5235 38.894 64.1245 38.495C63.7045 38.096 62.9905 37.886 61.9825 37.886C61.0165 37.886 60.3655 38.075 59.9875 38.432C59.6095 38.789 59.4415 39.314 59.4415 40.028L57.2575 40.049C57.2575 38.81 57.5935 37.844 58.2865 37.151C58.9585 36.458 60.1975 36.101 61.9615 36.101C62.8015 36.101 63.5365 36.185 64.1665 36.332C64.7755 36.5 65.2585 36.689 65.6155 36.941C65.9725 37.193 66.2665 37.55 66.4765 37.97C66.6865 38.39 66.8125 38.831 66.8755 39.272C66.9385 39.734 66.9805 40.259 66.9805 40.889V47ZM64.7755 42.38V42.044L61.7305 42.38C60.8065 42.485 60.1555 42.653 59.7775 42.863C59.3995 43.094 59.2315 43.409 59.2315 43.829C59.2315 44.333 59.4205 44.711 59.8405 44.984C60.2605 45.257 60.8485 45.383 61.6465 45.383C62.6125 45.383 63.3895 45.131 63.9355 44.585C64.4815 44.06 64.7755 43.325 64.7755 42.38ZM89.8377 47H87.5277V36.353L83.0127 47H80.7027L76.1877 36.353V47H73.8987V33.56H77.3217L81.2277 42.716L81.8577 44.459C81.8367 44.459 81.8787 44.354 81.9627 44.123C82.0467 43.892 82.1307 43.64 82.2357 43.346C82.3407 43.052 82.4247 42.842 82.4877 42.716L86.3937 33.56H89.8377V47ZM102.535 41.624C102.535 42.401 102.451 43.094 102.283 43.724C102.115 44.354 101.821 44.921 101.443 45.467C101.044 46.013 100.477 46.412 99.7633 46.706C99.0493 47 98.1883 47.147 97.1803 47.147C93.6313 47.147 91.8673 45.32 91.8673 41.624C91.8673 40.868 91.9513 40.196 92.1193 39.566C92.2873 38.936 92.5603 38.369 92.9383 37.823C93.3163 37.277 93.8623 36.857 94.5973 36.563C95.3113 36.269 96.1933 36.101 97.2013 36.101C98.2093 36.101 99.0703 36.269 99.7843 36.563C100.498 36.857 101.065 37.277 101.443 37.823C101.821 38.369 102.115 38.936 102.283 39.566C102.451 40.196 102.535 40.868 102.535 41.624ZM100.246 41.624C100.246 40.49 100.015 39.587 99.5953 38.915C99.1543 38.264 98.3563 37.928 97.2013 37.928C96.0463 37.928 95.2483 38.264 94.8073 38.915C94.3663 39.587 94.1563 40.49 94.1563 41.624C94.1563 42.8 94.3663 43.703 94.8073 44.354C95.2273 45.005 96.0253 45.32 97.1803 45.32C98.3353 45.32 99.1333 45.005 99.5743 44.354C100.015 43.724 100.246 42.8 100.246 41.624ZM109.379 38.054H106.628V43.913C106.628 44.459 106.796 44.837 107.174 45.047C107.531 45.257 108.266 45.341 109.379 45.278V47.084C107.573 47.21 106.292 47.021 105.515 46.538C104.717 46.055 104.339 45.173 104.339 43.913V38.054H102.806V36.71L104.339 36.248V33.56H106.565V36.248H109.379V38.054ZM120.582 41.624C120.582 42.401 120.498 43.094 120.33 43.724C120.162 44.354 119.868 44.921 119.49 45.467C119.091 46.013 118.524 46.412 117.81 46.706C117.096 47 116.235 47.147 115.227 47.147C111.678 47.147 109.914 45.32 109.914 41.624C109.914 40.868 109.998 40.196 110.166 39.566C110.334 38.936 110.607 38.369 110.985 37.823C111.363 37.277 111.909 36.857 112.644 36.563C113.358 36.269 114.24 36.101 115.248 36.101C116.256 36.101 117.117 36.269 117.831 36.563C118.545 36.857 119.112 37.277 119.49 37.823C119.868 38.369 120.162 38.936 120.33 39.566C120.498 40.196 120.582 40.868 120.582 41.624ZM118.293 41.624C118.293 40.49 118.062 39.587 117.642 38.915C117.201 38.264 116.403 37.928 115.248 37.928C114.093 37.928 113.295 38.264 112.854 38.915C112.413 39.587 112.203 40.49 112.203 41.624C112.203 42.8 112.413 43.703 112.854 44.354C113.274 45.005 114.072 45.32 115.227 45.32C116.382 45.32 117.18 45.005 117.621 44.354C118.062 43.724 118.293 42.8 118.293 41.624ZM127.896 38.096C127.812 38.096 127.707 38.096 127.581 38.075C127.434 38.075 127.329 38.054 127.287 38.054C126.237 38.054 125.523 38.306 125.145 38.81C124.767 39.314 124.599 40.07 124.599 41.036V47H122.352V36.248H123.549L124.074 37.739C124.284 37.319 124.662 36.941 125.25 36.605C125.817 36.269 126.573 36.101 127.539 36.101H127.896V38.096ZM137.993 43.892C137.993 44.774 137.594 45.551 136.817 46.181C136.019 46.832 134.843 47.147 133.268 47.147C131.462 47.147 130.16 46.811 129.32 46.118C128.48 45.425 128.081 44.375 128.081 42.989H130.286C130.286 44.585 131.252 45.362 133.226 45.362C134.087 45.362 134.717 45.236 135.137 44.963C135.536 44.711 135.746 44.396 135.788 44.018C135.788 43.598 135.536 43.283 135.032 43.031C134.528 42.8 133.898 42.611 133.163 42.485C132.428 42.359 131.693 42.212 130.958 42.044C130.202 41.876 129.572 41.561 129.068 41.12C128.543 40.7 128.291 40.112 128.291 39.398C128.291 38.39 128.669 37.592 129.425 37.004C130.181 36.416 131.357 36.101 132.995 36.101C136.145 36.101 137.72 37.445 137.72 40.112H135.62C135.578 39.356 135.347 38.789 134.948 38.411C134.528 38.033 133.856 37.844 132.932 37.844C132.092 37.844 131.462 37.991 131.084 38.243C130.706 38.495 130.517 38.831 130.517 39.209C130.517 39.587 130.769 39.881 131.273 40.091C131.777 40.301 132.407 40.49 133.142 40.616C133.877 40.742 134.612 40.91 135.347 41.099C136.082 41.288 136.712 41.624 137.216 42.086C137.72 42.548 137.993 43.157 137.993 43.892ZM152.147 47H144.734V33.56H147.044V45.11H152.147V47ZM158.106 38.054H155.355V43.913C155.355 44.459 155.523 44.837 155.901 45.047C156.258 45.257 156.993 45.341 158.106 45.278V47.084C156.3 47.21 155.019 47.021 154.242 46.538C153.444 46.055 153.066 45.173 153.066 43.913V38.054H151.533V36.71L153.066 36.248V33.56H155.292V36.248H158.106V38.054ZM169.078 47H167.86L167.356 45.467C167.125 45.929 166.663 46.307 165.991 46.643C165.298 46.979 164.374 47.147 163.24 47.147C162.379 47.147 161.644 47 161.035 46.706C160.405 46.412 159.943 46.013 159.607 45.488C159.271 44.963 159.019 44.375 158.872 43.745C158.704 43.115 158.641 42.422 158.641 41.624C158.641 37.949 160.153 36.101 163.219 36.101C165.025 36.101 166.243 36.605 166.873 37.571V32.153H169.078V47ZM166.894 41.624C166.894 40.448 166.684 39.545 166.264 38.915C165.844 38.306 165.067 37.991 163.891 37.991C162.736 37.991 161.959 38.306 161.539 38.915C161.119 39.524 160.93 40.427 160.93 41.624C160.93 42.842 161.119 43.745 161.539 44.375C161.959 45.005 162.736 45.299 163.87 45.299C165.025 45.299 165.823 45.005 166.243 44.375C166.663 43.766 166.894 42.842 166.894 41.624ZM181.734 48.386C180.579 48.386 179.613 48.218 178.815 47.84C178.017 47.462 177.408 46.916 176.988 46.16C176.568 45.425 176.253 44.585 176.085 43.64C175.917 42.716 175.833 41.582 175.833 40.238C175.833 38.936 175.917 37.802 176.085 36.857C176.253 35.933 176.568 35.093 177.009 34.358C177.429 33.623 178.038 33.077 178.836 32.699C179.613 32.342 180.579 32.153 181.734 32.153V33.833C181.062 33.833 180.495 33.938 180.033 34.148C179.55 34.358 179.172 34.652 178.899 34.988C178.605 35.324 178.395 35.786 178.227 36.353C178.059 36.92 177.933 37.508 177.891 38.096C177.828 38.705 177.807 39.419 177.807 40.238C177.807 41.33 177.849 42.212 177.933 42.926C178.017 43.64 178.206 44.291 178.479 44.9C178.752 45.509 179.151 45.95 179.697 46.244C180.222 46.538 180.894 46.685 181.734 46.685V48.386ZM192.23 35.45H188.366V47H186.119V35.45H182.255V33.56H192.23V35.45ZM204.157 47H201.7L200.797 44.375H194.203L193.237 47H190.822L195.988 33.56H199.117L204.157 47ZM200.209 42.695L197.5 35.051L194.77 42.695H200.209ZM212.841 35.45H208.977V47H206.73V35.45H202.866V33.56H212.841V35.45ZM224.767 47H222.31L221.407 44.375H214.813L213.847 47H211.432L216.598 33.56H219.727L224.767 47ZM220.819 42.695L218.11 35.051L215.38 42.695H220.819ZM242.026 47H239.716V36.353L235.201 47H232.891L228.376 36.353V47H226.087V33.56H229.51L233.416 42.716L234.046 44.459C234.025 44.459 234.067 44.354 234.151 44.123C234.235 43.892 234.319 43.64 234.424 43.346C234.529 43.052 234.613 42.842 234.676 42.716L238.582 33.56H242.026V47ZM257.139 40.301C257.139 41.288 257.034 42.17 256.845 42.926C256.656 43.682 256.341 44.396 255.879 45.068C255.417 45.74 254.766 46.265 253.905 46.622C253.023 46.979 251.973 47.147 250.734 47.147C249.474 47.147 248.424 46.979 247.563 46.601C246.681 46.244 246.03 45.74 245.568 45.068C245.106 44.396 244.791 43.682 244.602 42.905C244.413 42.149 244.329 41.267 244.329 40.259C244.329 39.272 244.413 38.39 244.623 37.613C244.812 36.857 245.127 36.143 245.589 35.471C246.051 34.82 246.702 34.316 247.563 33.959C248.424 33.602 249.474 33.413 250.734 33.413C251.973 33.413 253.023 33.602 253.905 33.959C254.766 34.316 255.417 34.82 255.879 35.492C256.341 36.164 256.656 36.878 256.845 37.634C257.034 38.411 257.139 39.293 257.139 40.301ZM254.808 40.301C254.808 39.545 254.745 38.894 254.64 38.327C254.514 37.781 254.325 37.256 254.031 36.773C253.737 36.311 253.317 35.954 252.771 35.702C252.225 35.45 251.532 35.324 250.734 35.324C249.915 35.324 249.243 35.45 248.697 35.702C248.151 35.954 247.731 36.311 247.437 36.773C247.143 37.256 246.954 37.781 246.849 38.327C246.723 38.873 246.681 39.524 246.681 40.259C246.681 41.834 246.954 43.052 247.542 43.934C248.13 44.816 249.18 45.236 250.734 45.236C252.288 45.236 253.338 44.816 253.926 43.934C254.514 43.073 254.808 41.855 254.808 40.301ZM267.515 35.45H263.651V47H261.404V35.45H257.54V33.56H267.515V35.45ZM280.477 40.301C280.477 41.288 280.372 42.17 280.183 42.926C279.994 43.682 279.679 44.396 279.217 45.068C278.755 45.74 278.104 46.265 277.243 46.622C276.361 46.979 275.311 47.147 274.072 47.147C272.812 47.147 271.762 46.979 270.901 46.601C270.019 46.244 269.368 45.74 268.906 45.068C268.444 44.396 268.129 43.682 267.94 42.905C267.751 42.149 267.667 41.267 267.667 40.259C267.667 39.272 267.751 38.39 267.961 37.613C268.15 36.857 268.465 36.143 268.927 35.471C269.389 34.82 270.04 34.316 270.901 33.959C271.762 33.602 272.812 33.413 274.072 33.413C275.311 33.413 276.361 33.602 277.243 33.959C278.104 34.316 278.755 34.82 279.217 35.492C279.679 36.164 279.994 36.878 280.183 37.634C280.372 38.411 280.477 39.293 280.477 40.301ZM278.146 40.301C278.146 39.545 278.083 38.894 277.978 38.327C277.852 37.781 277.663 37.256 277.369 36.773C277.075 36.311 276.655 35.954 276.109 35.702C275.563 35.45 274.87 35.324 274.072 35.324C273.253 35.324 272.581 35.45 272.035 35.702C271.489 35.954 271.069 36.311 270.775 36.773C270.481 37.256 270.292 37.781 270.187 38.327C270.061 38.873 270.019 39.524 270.019 40.259C270.019 41.834 270.292 43.052 270.88 43.934C271.468 44.816 272.518 45.236 274.072 45.236C275.626 45.236 276.676 44.816 277.264 43.934C277.852 43.073 278.146 41.855 278.146 40.301ZM293.668 47H290.56L285.142 41.729V47H282.832V33.56H287.62C288.586 33.56 289.426 33.665 290.14 33.854C290.854 34.064 291.4 34.295 291.778 34.568C292.156 34.862 292.45 35.198 292.681 35.618C292.912 36.038 293.059 36.416 293.122 36.752C293.164 37.088 293.206 37.466 293.206 37.865C293.206 40.595 291.463 41.96 287.977 41.96L293.668 47ZM290.875 37.865C290.875 36.269 289.825 35.45 287.725 35.45H285.142V40.238H287.767C288.985 40.238 289.804 40.028 290.224 39.566C290.644 39.125 290.875 38.558 290.875 37.865ZM306.266 43.073C306.266 43.598 306.161 44.081 305.993 44.543C305.804 45.005 305.51 45.425 305.132 45.824C304.733 46.244 304.166 46.559 303.431 46.79C302.696 47.042 301.835 47.147 300.827 47.147C298.706 47.147 297.173 46.727 296.228 45.866C295.283 45.026 294.8 43.787 294.779 42.191H297.089C297.152 44.165 298.37 45.152 300.764 45.152C302.906 45.152 303.998 44.501 303.998 43.178C303.998 42.695 303.767 42.296 303.347 42.002C302.906 41.708 302.36 41.498 301.709 41.372C301.058 41.246 300.365 41.099 299.609 40.931C298.853 40.763 298.139 40.595 297.488 40.385C296.816 40.196 296.27 39.86 295.829 39.356C295.388 38.873 295.157 38.264 295.157 37.529C295.157 36.269 295.577 35.261 296.459 34.526C297.32 33.791 298.685 33.413 300.533 33.413C302.402 33.413 303.788 33.833 304.691 34.652C305.594 35.492 306.056 36.647 306.077 38.138H303.788C303.725 37.193 303.431 36.5 302.906 36.038C302.381 35.576 301.562 35.345 300.449 35.345C298.433 35.345 297.446 35.996 297.446 37.298C297.446 37.76 297.656 38.117 298.097 38.39C298.517 38.684 299.063 38.873 299.735 38.978C300.386 39.104 301.1 39.251 301.856 39.419C302.612 39.587 303.305 39.797 303.977 40.007C304.628 40.238 305.174 40.616 305.615 41.12C306.035 41.645 306.266 42.296 306.266 43.073ZM311.046 45.803C311.046 46.307 310.899 46.664 310.626 46.853C310.353 47.063 309.954 47.147 309.45 47.147C308.904 47.147 308.505 47.063 308.232 46.853C307.938 46.664 307.812 46.307 307.812 45.803C307.812 45.299 307.938 44.942 308.211 44.732C308.484 44.543 308.904 44.438 309.45 44.438C309.954 44.438 310.353 44.543 310.626 44.732C310.899 44.942 311.046 45.299 311.046 45.803ZM325.222 47H322.366L315.331 36.5V47H313.021V33.56H315.982L322.912 43.976V33.56H325.222V47ZM339.078 43.073C339.078 43.598 338.973 44.081 338.805 44.543C338.616 45.005 338.322 45.425 337.944 45.824C337.545 46.244 336.978 46.559 336.243 46.79C335.508 47.042 334.647 47.147 333.639 47.147C331.518 47.147 329.985 46.727 329.04 45.866C328.095 45.026 327.612 43.787 327.591 42.191H329.901C329.964 44.165 331.182 45.152 333.576 45.152C335.718 45.152 336.81 44.501 336.81 43.178C336.81 42.695 336.579 42.296 336.159 42.002C335.718 41.708 335.172 41.498 334.521 41.372C333.87 41.246 333.177 41.099 332.421 40.931C331.665 40.763 330.951 40.595 330.3 40.385C329.628 40.196 329.082 39.86 328.641 39.356C328.2 38.873 327.969 38.264 327.969 37.529C327.969 36.269 328.389 35.261 329.271 34.526C330.132 33.791 331.497 33.413 333.345 33.413C335.214 33.413 336.6 33.833 337.503 34.652C338.406 35.492 338.868 36.647 338.889 38.138H336.6C336.537 37.193 336.243 36.5 335.718 36.038C335.193 35.576 334.374 35.345 333.261 35.345C331.245 35.345 330.258 35.996 330.258 37.298C330.258 37.76 330.468 38.117 330.909 38.39C331.329 38.684 331.875 38.873 332.547 38.978C333.198 39.104 333.912 39.251 334.668 39.419C335.424 39.587 336.117 39.797 336.789 40.007C337.44 40.238 337.986 40.616 338.427 41.12C338.847 41.645 339.078 42.296 339.078 43.073ZM346.273 40.238C346.273 41.582 346.168 42.716 346 43.64C345.832 44.585 345.517 45.425 345.097 46.16C344.677 46.916 344.068 47.462 343.27 47.84C342.472 48.218 341.506 48.386 340.372 48.386V46.685C341.191 46.685 341.863 46.538 342.409 46.244C342.934 45.95 343.333 45.509 343.606 44.9C343.879 44.291 344.068 43.64 344.152 42.926C344.236 42.212 344.299 41.33 344.299 40.238C344.299 39.419 344.257 38.705 344.215 38.096C344.152 37.508 344.047 36.92 343.879 36.353C343.711 35.786 343.48 35.324 343.207 34.988C342.913 34.652 342.535 34.358 342.073 34.148C341.59 33.938 341.023 33.833 340.372 33.833V32.153C342.577 32.153 344.11 32.846 344.971 34.19C345.832 35.534 346.273 37.55 346.273 40.238Z" fill="url(#paint2_linear_0_274)"/>
<path d="M43.75 68.975C43.75 71.9 43.225 74 42.175 75.275C41.125 76.55 39.45 77.175 37.175 77.175C35.125 77.175 33.6 76.775 32.55 75.95C31.5 75.125 31 73.8 31 71.975H33.675C33.675 73.975 34.825 74.95 37.175 74.95C38 74.95 38.7 74.8 39.25 74.5C39.8 74.2 40.2 73.75 40.475 73.15C40.725 72.55 40.9 71.925 41 71.225C41.075 70.55 41.1 69.725 41.1 68.725C40.925 69.375 40.475 69.95 39.75 70.4C39.025 70.85 38.025 71.075 36.725 71.075C35.075 71.075 33.7 70.675 32.6 69.875C31.5 69.075 30.975 67.8 30.975 66.075C30.975 64.525 31.475 63.25 32.5 62.275C33.5 61.325 35.075 60.825 37.175 60.825C39.675 60.825 41.4 61.475 42.35 62.775C43.275 64.075 43.75 66.15 43.75 68.975ZM40.85 66.075C40.85 65.2 40.525 64.475 39.925 63.9C39.3 63.325 38.375 63.025 37.15 63.025C36.05 63.025 35.2 63.3 34.6 63.85C33.975 64.4 33.675 65.125 33.675 66.075C33.675 67.95 34.9 68.875 37.375 68.875C38.525 68.875 39.4 68.625 39.975 68.1C40.55 67.575 40.85 66.9 40.85 66.075ZM44.8287 61H56.1037V63.575L49.0787 77H46.1037L53.5287 63.25H44.8287V61ZM57.3043 61H68.5793V63.575L61.5543 77H58.5793L66.0043 63.25H57.3043V61ZM73.1475 75.575C73.1475 76.175 72.9725 76.6 72.6475 76.825C72.3225 77.075 71.8475 77.175 71.2475 77.175C70.5975 77.175 70.1225 77.075 69.7975 76.825C69.4475 76.6 69.2975 76.175 69.2975 75.575C69.2975 74.975 69.4475 74.55 69.7725 74.3C70.0975 74.075 70.5975 73.95 71.2475 73.95C71.8475 73.95 72.3225 74.075 72.6475 74.3C72.9725 74.55 73.1475 74.975 73.1475 75.575ZM88.1994 73.65H85.3994V77H82.6494V73.65H74.1994V71.15L81.7494 61H85.3994V71.45H88.1994V73.65ZM82.6494 63.725L76.8244 71.45H82.6494V63.725ZM108.588 71.725H102.863V77H100.463V71.725H94.7125V69.475H100.463V64.2H102.863V69.475H108.588V71.725ZM122.297 77.025L110.322 77V74.575C110.322 73.625 110.547 72.775 110.997 72.075C111.447 71.375 111.997 70.825 112.672 70.45C113.347 70.075 114.072 69.725 114.872 69.375C115.672 69.025 116.397 68.75 117.097 68.5C117.772 68.25 118.347 67.925 118.822 67.475C119.297 67.05 119.547 66.55 119.597 65.95C119.722 64.05 118.672 63.075 116.422 63.075C114.222 63.075 113.147 64.225 113.147 66.525H110.472C110.472 62.725 112.422 60.825 116.347 60.825C118.472 60.825 120.022 61.3 120.997 62.25C121.947 63.2 122.397 64.5 122.322 66.1C122.272 67.125 121.897 68 121.247 68.7C120.572 69.4 119.772 69.95 118.872 70.325C117.972 70.7 117.072 71.05 116.172 71.375C115.272 71.725 114.522 72.125 113.897 72.625C113.272 73.125 112.972 73.75 112.972 74.45V74.75H122.297V77.025ZM123.686 61H134.961V63.575L127.936 77H124.961L132.386 63.25H123.686V61ZM139.529 75.575C139.529 76.175 139.354 76.6 139.029 76.825C138.704 77.075 138.229 77.175 137.629 77.175C136.979 77.175 136.504 77.075 136.179 76.825C135.829 76.6 135.679 76.175 135.679 75.575C135.679 74.975 135.829 74.55 136.154 74.3C136.479 74.075 136.979 73.95 137.629 73.95C138.229 73.95 138.704 74.075 139.029 74.3C139.354 74.55 139.529 74.975 139.529 75.575ZM153.156 77.025L141.181 77V74.575C141.181 73.625 141.406 72.775 141.856 72.075C142.306 71.375 142.856 70.825 143.531 70.45C144.206 70.075 144.931 69.725 145.731 69.375C146.531 69.025 147.256 68.75 147.956 68.5C148.631 68.25 149.206 67.925 149.681 67.475C150.156 67.05 150.406 66.55 150.456 65.95C150.581 64.05 149.531 63.075 147.281 63.075C145.081 63.075 144.006 64.225 144.006 66.525H141.331C141.331 62.725 143.281 60.825 147.206 60.825C149.331 60.825 150.881 61.3 151.856 62.25C152.806 63.2 153.256 64.5 153.181 66.1C153.131 67.125 152.756 68 152.106 68.7C151.431 69.4 150.631 69.95 149.731 70.325C148.831 70.7 147.931 71.05 147.031 71.375C146.131 71.725 145.381 72.125 144.756 72.625C144.131 73.125 143.831 73.75 143.831 74.45V74.75H153.156V77.025ZM168.421 69.025C168.421 70.3 168.321 71.4 168.121 72.325C167.921 73.275 167.596 74.125 167.121 74.875C166.621 75.625 165.946 76.2 165.046 76.6C164.146 77 163.046 77.175 161.746 77.175C160.446 77.175 159.346 77 158.446 76.6C157.546 76.2 156.871 75.625 156.396 74.85C155.921 74.1 155.596 73.25 155.396 72.325C155.196 71.4 155.121 70.3 155.121 69C155.121 67.725 155.196 66.625 155.396 65.7C155.596 64.775 155.921 63.925 156.396 63.15C156.871 62.4 157.546 61.825 158.446 61.425C159.346 61.025 160.446 60.825 161.746 60.825C163.046 60.825 164.146 61.025 165.046 61.425C165.946 61.825 166.621 62.4 167.121 63.15C167.596 63.925 167.921 64.775 168.121 65.7C168.321 66.65 168.421 67.75 168.421 69.025ZM165.671 69.025C165.671 67.025 165.396 65.525 164.871 64.55C164.321 63.6 163.296 63.1 161.746 63.1C160.221 63.1 159.196 63.6 158.671 64.55C158.121 65.525 157.871 67 157.871 69C157.871 71 158.121 72.5 158.646 73.45C159.171 74.4 160.196 74.875 161.746 74.875C163.296 74.875 164.321 74.4 164.871 73.45C165.396 72.5 165.671 71.025 165.671 69.025ZM179.52 61.125C179.52 61.725 179.345 62.15 179.045 62.375C178.72 62.625 178.245 62.725 177.62 62.725C176.97 62.725 176.47 62.625 176.145 62.375C175.795 62.15 175.645 61.725 175.645 61.125C175.645 60.525 175.795 60.1 176.145 59.85C176.47 59.625 176.97 59.5 177.62 59.5C178.245 59.5 178.72 59.625 179.045 59.85C179.345 60.1 179.52 60.525 179.52 61.125ZM178.92 77H176.27V64.2H178.92V77ZM193.221 77H190.571V69.875C190.571 68.625 190.346 67.7 189.946 67.125C189.546 66.55 188.696 66.25 187.446 66.25C186.146 66.25 185.271 66.55 184.821 67.125C184.371 67.725 184.146 68.625 184.146 69.875V77H181.471V64.2H182.921L183.521 66C183.771 65.475 184.271 65.025 185.046 64.625C185.821 64.225 186.871 64.025 188.196 64.025C189.196 64.025 190.046 64.175 190.746 64.45C191.421 64.75 191.946 65.175 192.296 65.725C192.646 66.3 192.871 66.925 193.021 67.6C193.146 68.3 193.221 69.125 193.221 70.1V77ZM207.206 71.975C207.206 73.625 206.731 74.9 205.781 75.8C204.831 76.725 203.406 77.175 201.506 77.175C197.256 77.175 195.131 75 195.131 70.6C195.131 69.7 195.231 68.875 195.431 68.125C195.631 67.375 195.956 66.7 196.406 66.05C196.856 65.425 197.531 64.925 198.381 64.575C199.231 64.225 200.256 64.025 201.456 64.025C203.356 64.025 204.781 64.5 205.756 65.425C206.706 66.375 207.206 67.65 207.206 69.3H204.481C204.381 68.275 204.081 67.5 203.606 66.975C203.131 66.475 202.381 66.2 201.381 66.2C199.031 66.2 197.856 67.675 197.856 70.575C197.856 71.925 198.106 73 198.656 73.75C199.181 74.5 200.106 74.875 201.431 74.875C202.431 74.875 203.181 74.65 203.631 74.15C204.081 73.675 204.381 72.95 204.481 71.975H207.206ZM215.903 66.4C215.803 66.4 215.678 66.4 215.528 66.375C215.353 66.375 215.228 66.35 215.178 66.35C213.928 66.35 213.078 66.65 212.628 67.25C212.178 67.85 211.978 68.75 211.978 69.9V77H209.303V64.2H210.728L211.353 65.975C211.603 65.475 212.053 65.025 212.753 64.625C213.428 64.225 214.328 64.025 215.478 64.025H215.903V66.4ZM228.523 73.075C228.373 74.3 227.848 75.3 226.948 76.05C226.048 76.8 224.648 77.175 222.773 77.175C218.473 77.175 216.348 74.975 216.348 70.575C216.348 66.225 218.473 64.025 222.748 64.025C223.648 64.025 224.473 64.175 225.173 64.45C225.873 64.725 226.448 65.1 226.898 65.55C227.348 66.025 227.698 66.6 227.948 67.25C228.198 67.9 228.373 68.6 228.448 69.325C228.523 70.05 228.523 70.825 228.473 71.65H219.123C219.273 73.975 220.448 75.125 222.673 75.125C224.373 75.125 225.373 74.45 225.723 73.075H228.523ZM225.723 69.475C225.723 68.525 225.473 67.725 224.973 67.075C224.448 66.425 223.623 66.1 222.498 66.1C220.398 66.1 219.298 67.25 219.148 69.525H225.723C225.723 69.525 225.723 69.525 225.723 69.5V69.475ZM242.115 77H240.665L240.115 75.075C239.765 75.65 239.165 76.15 238.265 76.55C237.365 76.975 236.315 77.175 235.09 77.175C233.64 77.175 232.44 76.85 231.515 76.175C230.59 75.525 230.14 74.55 230.14 73.25C230.14 72.1 230.565 71.225 231.415 70.625C232.265 70.05 233.615 69.675 235.465 69.475L239.49 69.075C239.44 68.075 239.19 67.35 238.715 66.875C238.215 66.4 237.365 66.15 236.165 66.15C235.015 66.15 234.24 66.375 233.79 66.8C233.34 67.225 233.14 67.85 233.14 68.7L230.54 68.725C230.54 67.25 230.94 66.1 231.765 65.275C232.565 64.45 234.04 64.025 236.14 64.025C237.14 64.025 238.015 64.125 238.765 64.3C239.49 64.5 240.065 64.725 240.49 65.025C240.915 65.325 241.265 65.75 241.515 66.25C241.765 66.75 241.915 67.275 241.99 67.8C242.065 68.35 242.115 68.975 242.115 69.725V77ZM239.49 71.5V71.1L235.865 71.5C234.765 71.625 233.99 71.825 233.54 72.075C233.09 72.35 232.89 72.725 232.89 73.225C232.89 73.825 233.115 74.275 233.615 74.6C234.115 74.925 234.815 75.075 235.765 75.075C236.915 75.075 237.84 74.775 238.49 74.125C239.14 73.5 239.49 72.625 239.49 71.5ZM255.511 73.3C255.511 74.35 255.036 75.275 254.111 76.025C253.161 76.8 251.761 77.175 249.886 77.175C247.736 77.175 246.186 76.775 245.186 75.95C244.186 75.125 243.711 73.875 243.711 72.225H246.336C246.336 74.125 247.486 75.05 249.836 75.05C250.861 75.05 251.611 74.9 252.111 74.575C252.586 74.275 252.836 73.9 252.886 73.45C252.886 72.95 252.586 72.575 251.986 72.275C251.386 72 250.636 71.775 249.761 71.625C248.886 71.475 248.011 71.3 247.136 71.1C246.236 70.9 245.486 70.525 244.886 70C244.261 69.5 243.961 68.8 243.961 67.95C243.961 66.75 244.411 65.8 245.311 65.1C246.211 64.4 247.611 64.025 249.561 64.025C253.311 64.025 255.186 65.625 255.186 68.8H252.686C252.636 67.9 252.361 67.225 251.886 66.775C251.386 66.325 250.586 66.1 249.486 66.1C248.486 66.1 247.736 66.275 247.286 66.575C246.836 66.875 246.611 67.275 246.611 67.725C246.611 68.175 246.911 68.525 247.511 68.775C248.111 69.025 248.861 69.25 249.736 69.4C250.611 69.55 251.486 69.75 252.361 69.975C253.236 70.2 253.986 70.6 254.586 71.15C255.186 71.7 255.511 72.425 255.511 73.3ZM269.221 73.075C269.071 74.3 268.546 75.3 267.646 76.05C266.746 76.8 265.346 77.175 263.471 77.175C259.171 77.175 257.046 74.975 257.046 70.575C257.046 66.225 259.171 64.025 263.446 64.025C264.346 64.025 265.171 64.175 265.871 64.45C266.571 64.725 267.146 65.1 267.596 65.55C268.046 66.025 268.396 66.6 268.646 67.25C268.896 67.9 269.071 68.6 269.146 69.325C269.221 70.05 269.221 70.825 269.171 71.65H259.821C259.971 73.975 261.146 75.125 263.371 75.125C265.071 75.125 266.071 74.45 266.421 73.075H269.221ZM266.421 69.475C266.421 68.525 266.171 67.725 265.671 67.075C265.146 66.425 264.321 66.1 263.196 66.1C261.096 66.1 259.996 67.25 259.846 69.525H266.421C266.421 69.525 266.421 69.525 266.421 69.5V69.475ZM283.288 77H281.838L281.238 75.175C280.963 75.725 280.413 76.175 279.613 76.575C278.788 76.975 277.688 77.175 276.338 77.175C275.313 77.175 274.438 77 273.713 76.65C272.963 76.3 272.413 75.825 272.013 75.2C271.613 74.575 271.313 73.875 271.138 73.125C270.938 72.375 270.863 71.55 270.863 70.6C270.863 66.225 272.663 64.025 276.313 64.025C278.463 64.025 279.913 64.625 280.663 65.775V59.325H283.288V77ZM280.688 70.6C280.688 69.2 280.438 68.125 279.938 67.375C279.438 66.65 278.513 66.275 277.113 66.275C275.738 66.275 274.813 66.65 274.313 67.375C273.813 68.1 273.588 69.175 273.588 70.6C273.588 72.05 273.813 73.125 274.313 73.875C274.813 74.625 275.738 74.975 277.088 74.975C278.463 74.975 279.413 74.625 279.913 73.875C280.413 73.15 280.688 72.05 280.688 70.6ZM303.88 70.6C303.88 71.55 303.78 72.375 303.605 73.125C303.405 73.875 303.13 74.575 302.73 75.2C302.33 75.825 301.755 76.3 301.03 76.65C300.305 77 299.43 77.175 298.43 77.175C297.055 77.175 295.98 76.975 295.18 76.575C294.38 76.175 293.805 75.7 293.505 75.15L292.955 77H291.505V59.325H294.13V65.75C294.88 64.6 296.33 64.025 298.48 64.025C302.08 64.025 303.88 66.225 303.88 70.6ZM301.205 70.6C301.205 69.175 300.955 68.1 300.455 67.375C299.955 66.65 299.005 66.275 297.63 66.275C296.23 66.275 295.28 66.65 294.805 67.375C294.33 68.1 294.105 69.175 294.105 70.575C294.105 72.05 294.355 73.15 294.855 73.9C295.355 74.65 296.305 75 297.705 75C299.055 75 299.955 74.65 300.455 73.9C300.955 73.15 301.205 72.05 301.205 70.6ZM317.731 64.2V77.1C317.731 77.8 317.631 78.425 317.481 78.975C317.331 79.525 317.056 80.05 316.656 80.55C316.256 81.075 315.631 81.475 314.806 81.75C313.981 82.05 312.956 82.175 311.756 82.175C309.556 82.175 308.006 81.8 307.131 81.025C306.256 80.275 305.831 79.2 305.831 77.8H308.481C308.506 78.2 308.556 78.5 308.656 78.75C308.731 79 308.881 79.225 309.106 79.45C309.306 79.7 309.631 79.875 310.081 79.975C310.531 80.075 311.081 80.125 311.781 80.125C313.081 80.125 313.956 79.875 314.406 79.375C314.856 78.875 315.081 78.15 315.081 77.225V75.55C314.381 76.65 313.006 77.175 311.006 77.175C309.056 77.175 307.731 76.7 307.031 75.7C306.331 74.725 305.981 73.225 305.981 71.2V64.2H308.606V71.425C308.606 72.675 308.806 73.575 309.206 74.125C309.606 74.675 310.456 74.925 311.756 74.925C313.031 74.925 313.906 74.65 314.381 74.05C314.831 73.475 315.081 72.55 315.081 71.3V64.2H317.731ZM337.653 77.025L325.678 77V74.575C325.678 73.625 325.903 72.775 326.353 72.075C326.803 71.375 327.353 70.825 328.028 70.45C328.703 70.075 329.428 69.725 330.228 69.375C331.028 69.025 331.753 68.75 332.453 68.5C333.128 68.25 333.703 67.925 334.178 67.475C334.653 67.05 334.903 66.55 334.953 65.95C335.078 64.05 334.028 63.075 331.778 63.075C329.578 63.075 328.503 64.225 328.503 66.525H325.828C325.828 62.725 327.778 60.825 331.703 60.825C333.828 60.825 335.378 61.3 336.353 62.25C337.303 63.2 337.753 64.5 337.678 66.1C337.628 67.125 337.253 68 336.603 68.7C335.928 69.4 335.128 69.95 334.228 70.325C333.328 70.7 332.428 71.05 331.528 71.375C330.628 71.725 329.878 72.125 329.253 72.625C328.628 73.125 328.328 73.75 328.328 74.45V74.75H337.653V77.025ZM343.143 75.575C343.143 76.175 342.968 76.6 342.643 76.825C342.318 77.075 341.843 77.175 341.243 77.175C340.593 77.175 340.118 77.075 339.793 76.825C339.443 76.6 339.293 76.175 339.293 75.575C339.293 74.975 339.443 74.55 339.768 74.3C340.093 74.075 340.593 73.95 341.243 73.95C341.843 73.95 342.318 74.075 342.643 74.3C342.968 74.55 343.143 74.975 343.143 75.575ZM357.945 72.45C357.945 75.6 355.745 77.175 351.395 77.175C350.345 77.175 349.445 77.1 348.645 76.925C347.845 76.75 347.195 76.525 346.72 76.225C346.22 75.925 345.82 75.575 345.52 75.175C345.22 74.775 344.995 74.4 344.895 74C344.795 73.6 344.745 73.175 344.745 72.725C344.745 70.825 345.745 69.55 347.745 68.9C345.945 68.325 345.07 67.075 345.07 65.175C345.07 63.775 345.52 62.7 346.47 61.95C347.42 61.2 349.045 60.825 351.37 60.825C355.495 60.825 357.57 62.2 357.57 64.925C357.57 66.75 356.695 67.925 354.945 68.475C355.945 68.775 356.695 69.3 357.195 70C357.695 70.725 357.945 71.55 357.945 72.45ZM354.945 65.4C354.945 64.65 354.72 64.05 354.27 63.65C353.82 63.25 352.845 63.05 351.37 63.05C349.895 63.05 348.92 63.25 348.47 63.65C348.02 64.05 347.795 64.65 347.795 65.4C347.795 65.75 347.82 66.05 347.895 66.3C347.97 66.55 348.12 66.775 348.345 67.025C348.57 67.275 348.945 67.45 349.445 67.575C349.945 67.7 350.595 67.75 351.37 67.75C352.82 67.75 353.77 67.55 354.245 67.125C354.695 66.725 354.945 66.15 354.945 65.4ZM355.245 72.4C355.245 71.625 354.945 70.975 354.345 70.475C353.745 69.975 352.77 69.7 351.37 69.7C349.92 69.7 348.92 69.975 348.32 70.475C347.72 70.975 347.445 71.625 347.445 72.4C347.445 74.1 348.745 74.925 351.395 74.925C353.945 74.925 355.245 74.1 355.245 72.4ZM372.781 71.875C372.781 73.425 372.256 74.7 371.231 75.7C370.206 76.7 368.656 77.175 366.581 77.175C364.056 77.175 362.306 76.525 361.356 75.2C360.381 73.9 359.906 71.825 359.906 68.975C359.906 66.125 360.406 64.05 361.456 62.75C362.481 61.475 364.131 60.825 366.406 60.825C368.406 60.825 369.931 61.25 370.931 62.05C371.931 62.85 372.431 64.15 372.431 65.95H369.731C369.731 64.95 369.456 64.225 368.956 63.775C368.431 63.325 367.581 63.075 366.406 63.075C365.581 63.075 364.906 63.225 364.356 63.525C363.806 63.825 363.406 64.25 363.156 64.825C362.906 65.425 362.731 66.05 362.656 66.725C362.556 67.4 362.531 68.225 362.556 69.2C362.706 68.575 363.181 68.025 363.931 67.575C364.681 67.125 365.706 66.875 367.031 66.875C368.081 66.875 369.006 67.025 369.831 67.325C370.656 67.625 371.356 68.175 371.931 68.95C372.481 69.725 372.781 70.7 372.781 71.875ZM370.081 71.875C370.081 69.975 368.856 69.025 366.406 69.025C365.206 69.025 364.306 69.3 363.706 69.825C363.106 70.375 362.806 71.05 362.806 71.875C362.806 72.775 363.106 73.5 363.756 74.075C364.406 74.675 365.356 74.95 366.606 74.95C367.656 74.95 368.506 74.675 369.131 74.125C369.756 73.575 370.081 72.825 370.081 71.875ZM403.701 71.425C403.701 75.275 401.776 77.175 397.976 77.175C394.201 77.175 392.326 75.275 392.326 71.425C392.326 67.6 394.201 65.675 398.001 65.675C401.801 65.675 403.701 67.6 403.701 71.425ZM393.376 61L387.951 77H385.276L389.976 63.225H384.601C385.576 63.9 386.076 65.075 386.076 66.725C386.076 70.6 384.151 72.525 380.351 72.525C379.226 72.525 378.276 72.375 377.501 72.075C376.726 71.775 376.151 71.325 375.751 70.75C375.351 70.2 375.076 69.6 374.926 68.95C374.776 68.3 374.701 67.575 374.701 66.75C374.701 65.95 374.776 65.225 374.951 64.575C375.126 63.95 375.426 63.35 375.851 62.775C376.276 62.225 376.926 61.775 377.776 61.475C378.626 61.175 379.701 61 380.951 61H393.376ZM401.326 71.425C401.326 70.325 401.076 69.475 400.601 68.825C400.101 68.2 399.251 67.875 398.001 67.875C396.751 67.875 395.901 68.2 395.426 68.825C394.926 69.475 394.701 70.325 394.701 71.425C394.701 72.525 394.926 73.4 395.426 74.025C395.901 74.65 396.751 74.95 397.976 74.95C399.201 74.95 400.076 74.65 400.576 74.025C401.076 73.425 401.326 72.55 401.326 71.425ZM383.701 66.725C383.701 65.675 383.451 64.825 382.976 64.175C382.476 63.55 381.626 63.225 380.376 63.225C379.126 63.225 378.276 63.55 377.801 64.15C377.301 64.775 377.076 65.625 377.076 66.725C377.076 67.85 377.301 68.725 377.801 69.325C378.276 69.95 379.126 70.25 380.351 70.25C381.576 70.25 382.451 69.95 382.951 69.325C383.451 68.725 383.701 67.85 383.701 66.725Z" fill="url(#paint3_linear_0_274)"/>
<path d="M91.456 400.32V399.324H93.712V408H92.608V400.32H91.456ZM96.9918 405.672C97.0718 406.128 97.2558 406.48 97.5438 406.728C97.8398 406.976 98.2358 407.1 98.7318 407.1C99.3958 407.1 99.8838 406.84 100.196 406.32C100.516 405.8 100.668 404.924 100.652 403.692C100.484 404.052 100.204 404.336 99.8118 404.544C99.4198 404.744 98.9838 404.844 98.5038 404.844C97.9678 404.844 97.4878 404.736 97.0638 404.52C96.6478 404.296 96.3198 403.972 96.0798 403.548C95.8398 403.124 95.7198 402.612 95.7198 402.012C95.7198 401.156 95.9678 400.468 96.4638 399.948C96.9598 399.42 97.6638 399.156 98.5758 399.156C99.6958 399.156 100.48 399.52 100.928 400.248C101.384 400.976 101.612 402.06 101.612 403.5C101.612 404.508 101.52 405.34 101.336 405.996C101.16 406.652 100.856 407.152 100.424 407.496C99.9998 407.84 99.4158 408.012 98.6718 408.012C97.8558 408.012 97.2198 407.792 96.7638 407.352C96.3078 406.912 96.0478 406.352 95.9838 405.672H96.9918ZM98.6838 403.92C99.2198 403.92 99.6598 403.756 100.004 403.428C100.348 403.092 100.52 402.64 100.52 402.072C100.52 401.472 100.352 400.988 100.016 400.62C99.6798 400.252 99.2078 400.068 98.5998 400.068C98.0398 400.068 97.5918 400.244 97.2558 400.596C96.9278 400.948 96.7638 401.412 96.7638 401.988C96.7638 402.572 96.9278 403.04 97.2558 403.392C97.5838 403.744 98.0598 403.92 98.6838 403.92ZM103.674 408.072C103.466 408.072 103.29 408 103.146 407.856C103.002 407.712 102.93 407.536 102.93 407.328C102.93 407.12 103.002 406.944 103.146 406.8C103.29 406.656 103.466 406.584 103.674 406.584C103.874 406.584 104.042 406.656 104.178 406.8C104.322 406.944 104.394 407.12 104.394 407.328C104.394 407.536 104.322 407.712 104.178 407.856C104.042 408 103.874 408.072 103.674 408.072ZM103.674 402.936C103.466 402.936 103.29 402.864 103.146 402.72C103.002 402.576 102.93 402.4 102.93 402.192C102.93 401.984 103.002 401.808 103.146 401.664C103.29 401.52 103.466 401.448 103.674 401.448C103.874 401.448 104.042 401.52 104.178 401.664C104.322 401.808 104.394 401.984 104.394 402.192C104.394 402.4 104.322 402.576 104.178 402.72C104.042 402.864 103.874 402.936 103.674 402.936ZM105.701 403.572C105.701 402.196 105.925 401.124 106.373 400.356C106.821 399.58 107.605 399.192 108.725 399.192C109.837 399.192 110.617 399.58 111.065 400.356C111.513 401.124 111.737 402.196 111.737 403.572C111.737 404.972 111.513 406.06 111.065 406.836C110.617 407.612 109.837 408 108.725 408C107.605 408 106.821 407.612 106.373 406.836C105.925 406.06 105.701 404.972 105.701 403.572ZM110.657 403.572C110.657 402.876 110.609 402.288 110.513 401.808C110.425 401.32 110.237 400.928 109.949 400.632C109.669 400.336 109.261 400.188 108.725 400.188C108.181 400.188 107.765 400.336 107.477 400.632C107.197 400.928 107.009 401.32 106.913 401.808C106.825 402.288 106.781 402.876 106.781 403.572C106.781 404.292 106.825 404.896 106.913 405.384C107.009 405.872 107.197 406.264 107.477 406.56C107.765 406.856 108.181 407.004 108.725 407.004C109.261 407.004 109.669 406.856 109.949 406.56C110.237 406.264 110.425 405.872 110.513 405.384C110.609 404.896 110.657 404.292 110.657 403.572ZM113.236 403.572C113.236 402.196 113.46 401.124 113.908 400.356C114.356 399.58 115.14 399.192 116.26 399.192C117.372 399.192 118.152 399.58 118.6 400.356C119.048 401.124 119.272 402.196 119.272 403.572C119.272 404.972 119.048 406.06 118.6 406.836C118.152 407.612 117.372 408 116.26 408C115.14 408 114.356 407.612 113.908 406.836C113.46 406.06 113.236 404.972 113.236 403.572ZM118.192 403.572C118.192 402.876 118.144 402.288 118.048 401.808C117.96 401.32 117.772 400.928 117.484 400.632C117.204 400.336 116.796 400.188 116.26 400.188C115.716 400.188 115.3 400.336 115.012 400.632C114.732 400.928 114.544 401.32 114.448 401.808C114.36 402.288 114.316 402.876 114.316 403.572C114.316 404.292 114.36 404.896 114.448 405.384C114.544 405.872 114.732 406.264 115.012 406.56C115.3 406.856 115.716 407.004 116.26 407.004C116.796 407.004 117.204 406.856 117.484 406.56C117.772 406.264 117.96 405.872 118.048 405.384C118.144 404.896 118.192 404.292 118.192 403.572Z" fill="#9E9E9E"/>
<path d="M209.456 400.32V399.324H211.712V408H210.608V400.32H209.456ZM214.992 405.672C215.072 406.128 215.256 406.48 215.544 406.728C215.84 406.976 216.236 407.1 216.732 407.1C217.396 407.1 217.884 406.84 218.196 406.32C218.516 405.8 218.668 404.924 218.652 403.692C218.484 404.052 218.204 404.336 217.812 404.544C217.42 404.744 216.984 404.844 216.504 404.844C215.968 404.844 215.488 404.736 215.064 404.52C214.648 404.296 214.32 403.972 214.08 403.548C213.84 403.124 213.72 402.612 213.72 402.012C213.72 401.156 213.968 400.468 214.464 399.948C214.96 399.42 215.664 399.156 216.576 399.156C217.696 399.156 218.48 399.52 218.928 400.248C219.384 400.976 219.612 402.06 219.612 403.5C219.612 404.508 219.52 405.34 219.336 405.996C219.16 406.652 218.856 407.152 218.424 407.496C218 407.84 217.416 408.012 216.672 408.012C215.856 408.012 215.22 407.792 214.764 407.352C214.308 406.912 214.048 406.352 213.984 405.672H214.992ZM216.684 403.92C217.22 403.92 217.66 403.756 218.004 403.428C218.348 403.092 218.52 402.64 218.52 402.072C218.52 401.472 218.352 400.988 218.016 400.62C217.68 400.252 217.208 400.068 216.6 400.068C216.04 400.068 215.592 400.244 215.256 400.596C214.928 400.948 214.764 401.412 214.764 401.988C214.764 402.572 214.928 403.04 215.256 403.392C215.584 403.744 216.06 403.92 216.684 403.92ZM221.674 408.072C221.466 408.072 221.29 408 221.146 407.856C221.002 407.712 220.93 407.536 220.93 407.328C220.93 407.12 221.002 406.944 221.146 406.8C221.29 406.656 221.466 406.584 221.674 406.584C221.874 406.584 222.042 406.656 222.178 406.8C222.322 406.944 222.394 407.12 222.394 407.328C222.394 407.536 222.322 407.712 222.178 407.856C222.042 408 221.874 408.072 221.674 408.072ZM221.674 402.936C221.466 402.936 221.29 402.864 221.146 402.72C221.002 402.576 220.93 402.4 220.93 402.192C220.93 401.984 221.002 401.808 221.146 401.664C221.29 401.52 221.466 401.448 221.674 401.448C221.874 401.448 222.042 401.52 222.178 401.664C222.322 401.808 222.394 401.984 222.394 402.192C222.394 402.4 222.322 402.576 222.178 402.72C222.042 402.864 221.874 402.936 221.674 402.936ZM223.413 400.32V399.324H225.669V408H224.565V400.32H223.413ZM227.545 403.572C227.545 402.196 227.769 401.124 228.217 400.356C228.665 399.58 229.449 399.192 230.569 399.192C231.681 399.192 232.461 399.58 232.909 400.356C233.357 401.124 233.581 402.196 233.581 403.572C233.581 404.972 233.357 406.06 232.909 406.836C232.461 407.612 231.681 408 230.569 408C229.449 408 228.665 407.612 228.217 406.836C227.769 406.06 227.545 404.972 227.545 403.572ZM232.501 403.572C232.501 402.876 232.453 402.288 232.357 401.808C232.269 401.32 232.081 400.928 231.793 400.632C231.513 400.336 231.105 400.188 230.569 400.188C230.025 400.188 229.609 400.336 229.321 400.632C229.041 400.928 228.853 401.32 228.757 401.808C228.669 402.288 228.625 402.876 228.625 403.572C228.625 404.292 228.669 404.896 228.757 405.384C228.853 405.872 229.041 406.264 229.321 406.56C229.609 406.856 230.025 407.004 230.569 407.004C231.105 407.004 231.513 406.856 231.793 406.56C232.081 406.264 232.269 405.872 232.357 405.384C232.453 404.896 232.501 404.292 232.501 403.572Z" fill="#9E9E9E"/>
<path d="M323.456 400.32V399.324H325.712V408H324.608V400.32H323.456ZM328.992 405.672C329.072 406.128 329.256 406.48 329.544 406.728C329.84 406.976 330.236 407.1 330.732 407.1C331.396 407.1 331.884 406.84 332.196 406.32C332.516 405.8 332.668 404.924 332.652 403.692C332.484 404.052 332.204 404.336 331.812 404.544C331.42 404.744 330.984 404.844 330.504 404.844C329.968 404.844 329.488 404.736 329.064 404.52C328.648 404.296 328.32 403.972 328.08 403.548C327.84 403.124 327.72 402.612 327.72 402.012C327.72 401.156 327.968 400.468 328.464 399.948C328.96 399.42 329.664 399.156 330.576 399.156C331.696 399.156 332.48 399.52 332.928 400.248C333.384 400.976 333.612 402.06 333.612 403.5C333.612 404.508 333.52 405.34 333.336 405.996C333.16 406.652 332.856 407.152 332.424 407.496C332 407.84 331.416 408.012 330.672 408.012C329.856 408.012 329.22 407.792 328.764 407.352C328.308 406.912 328.048 406.352 327.984 405.672H328.992ZM330.684 403.92C331.22 403.92 331.66 403.756 332.004 403.428C332.348 403.092 332.52 402.64 332.52 402.072C332.52 401.472 332.352 400.988 332.016 400.62C331.68 400.252 331.208 400.068 330.6 400.068C330.04 400.068 329.592 400.244 329.256 400.596C328.928 400.948 328.764 401.412 328.764 401.988C328.764 402.572 328.928 403.04 329.256 403.392C329.584 403.744 330.06 403.92 330.684 403.92ZM335.674 408.072C335.466 408.072 335.29 408 335.146 407.856C335.002 407.712 334.93 407.536 334.93 407.328C334.93 407.12 335.002 406.944 335.146 406.8C335.29 406.656 335.466 406.584 335.674 406.584C335.874 406.584 336.042 406.656 336.178 406.8C336.322 406.944 336.394 407.12 336.394 407.328C336.394 407.536 336.322 407.712 336.178 407.856C336.042 408 335.874 408.072 335.674 408.072ZM335.674 402.936C335.466 402.936 335.29 402.864 335.146 402.72C335.002 402.576 334.93 402.4 334.93 402.192C334.93 401.984 335.002 401.808 335.146 401.664C335.29 401.52 335.466 401.448 335.674 401.448C335.874 401.448 336.042 401.52 336.178 401.664C336.322 401.808 336.394 401.984 336.394 402.192C336.394 402.4 336.322 402.576 336.178 402.72C336.042 402.864 335.874 402.936 335.674 402.936ZM337.569 407.124C338.585 406.308 339.381 405.64 339.957 405.12C340.533 404.592 341.017 404.044 341.409 403.476C341.809 402.9 342.009 402.336 342.009 401.784C342.009 401.264 341.881 400.856 341.625 400.56C341.377 400.256 340.973 400.104 340.413 400.104C339.869 400.104 339.445 400.276 339.141 400.62C338.845 400.956 338.685 401.408 338.661 401.976H337.605C337.637 401.08 337.909 400.388 338.421 399.9C338.933 399.412 339.593 399.168 340.401 399.168C341.225 399.168 341.877 399.396 342.357 399.852C342.845 400.308 343.089 400.936 343.089 401.736C343.089 402.4 342.889 403.048 342.489 403.68C342.097 404.304 341.649 404.856 341.145 405.336C340.641 405.808 339.997 406.36 339.213 406.992H343.341V407.904H337.569V407.124ZM344.603 403.572C344.603 402.196 344.827 401.124 345.275 400.356C345.723 399.58 346.507 399.192 347.627 399.192C348.739 399.192 349.519 399.58 349.967 400.356C350.415 401.124 350.639 402.196 350.639 403.572C350.639 404.972 350.415 406.06 349.967 406.836C349.519 407.612 348.739 408 347.627 408C346.507 408 345.723 407.612 345.275 406.836C344.827 406.06 344.603 404.972 344.603 403.572ZM349.559 403.572C349.559 402.876 349.511 402.288 349.415 401.808C349.327 401.32 349.139 400.928 348.851 400.632C348.571 400.336 348.163 400.188 347.627 400.188C347.083 400.188 346.667 400.336 346.379 400.632C346.099 400.928 345.911 401.32 345.815 401.808C345.727 402.288 345.683 402.876 345.683 403.572C345.683 404.292 345.727 404.896 345.815 405.384C345.911 405.872 346.099 406.264 346.379 406.56C346.667 406.856 347.083 407.004 347.627 407.004C348.163 407.004 348.571 406.856 348.851 406.56C349.139 406.264 349.327 405.872 349.415 405.384C349.511 404.896 349.559 404.292 349.559 403.572Z" fill="#9E9E9E"/>
<path d="M440.456 400.32V399.324H442.712V408H441.608V400.32H440.456ZM445.992 405.672C446.072 406.128 446.256 406.48 446.544 406.728C446.84 406.976 447.236 407.1 447.732 407.1C448.396 407.1 448.884 406.84 449.196 406.32C449.516 405.8 449.668 404.924 449.652 403.692C449.484 404.052 449.204 404.336 448.812 404.544C448.42 404.744 447.984 404.844 447.504 404.844C446.968 404.844 446.488 404.736 446.064 404.52C445.648 404.296 445.32 403.972 445.08 403.548C444.84 403.124 444.72 402.612 444.72 402.012C444.72 401.156 444.968 400.468 445.464 399.948C445.96 399.42 446.664 399.156 447.576 399.156C448.696 399.156 449.48 399.52 449.928 400.248C450.384 400.976 450.612 402.06 450.612 403.5C450.612 404.508 450.52 405.34 450.336 405.996C450.16 406.652 449.856 407.152 449.424 407.496C449 407.84 448.416 408.012 447.672 408.012C446.856 408.012 446.22 407.792 445.764 407.352C445.308 406.912 445.048 406.352 444.984 405.672H445.992ZM447.684 403.92C448.22 403.92 448.66 403.756 449.004 403.428C449.348 403.092 449.52 402.64 449.52 402.072C449.52 401.472 449.352 400.988 449.016 400.62C448.68 400.252 448.208 400.068 447.6 400.068C447.04 400.068 446.592 400.244 446.256 400.596C445.928 400.948 445.764 401.412 445.764 401.988C445.764 402.572 445.928 403.04 446.256 403.392C446.584 403.744 447.06 403.92 447.684 403.92ZM452.674 408.072C452.466 408.072 452.29 408 452.146 407.856C452.002 407.712 451.93 407.536 451.93 407.328C451.93 407.12 452.002 406.944 452.146 406.8C452.29 406.656 452.466 406.584 452.674 406.584C452.874 406.584 453.042 406.656 453.178 406.8C453.322 406.944 453.394 407.12 453.394 407.328C453.394 407.536 453.322 407.712 453.178 407.856C453.042 408 452.874 408.072 452.674 408.072ZM452.674 402.936C452.466 402.936 452.29 402.864 452.146 402.72C452.002 402.576 451.93 402.4 451.93 402.192C451.93 401.984 452.002 401.808 452.146 401.664C452.29 401.52 452.466 401.448 452.674 401.448C452.874 401.448 453.042 401.52 453.178 401.664C453.322 401.808 453.394 401.984 453.394 402.192C453.394 402.4 453.322 402.576 453.178 402.72C453.042 402.864 452.874 402.936 452.674 402.936ZM454.677 401.508C454.733 400.772 455.017 400.196 455.529 399.78C456.041 399.364 456.705 399.156 457.521 399.156C458.065 399.156 458.533 399.256 458.925 399.456C459.325 399.648 459.625 399.912 459.825 400.248C460.033 400.584 460.137 400.964 460.137 401.388C460.137 401.884 459.993 402.312 459.705 402.672C459.425 403.032 459.057 403.264 458.601 403.368V403.428C459.121 403.556 459.533 403.808 459.837 404.184C460.141 404.56 460.293 405.052 460.293 405.66C460.293 406.116 460.189 406.528 459.981 406.896C459.773 407.256 459.461 407.54 459.045 407.748C458.629 407.956 458.129 408.06 457.545 408.06C456.697 408.06 456.001 407.84 455.457 407.4C454.913 406.952 454.609 406.32 454.545 405.504H455.601C455.657 405.984 455.853 406.376 456.189 406.68C456.525 406.984 456.973 407.136 457.533 407.136C458.093 407.136 458.517 406.992 458.805 406.704C459.101 406.408 459.249 406.028 459.249 405.564C459.249 404.964 459.049 404.532 458.649 404.268C458.249 404.004 457.645 403.872 456.837 403.872H456.561V402.96H456.849C457.585 402.952 458.141 402.832 458.517 402.6C458.893 402.36 459.081 401.992 459.081 401.496C459.081 401.072 458.941 400.732 458.661 400.476C458.389 400.22 457.997 400.092 457.485 400.092C456.989 400.092 456.589 400.22 456.285 400.476C455.981 400.732 455.801 401.076 455.745 401.508H454.677ZM461.767 403.572C461.767 402.196 461.991 401.124 462.439 400.356C462.887 399.58 463.671 399.192 464.791 399.192C465.903 399.192 466.683 399.58 467.131 400.356C467.579 401.124 467.803 402.196 467.803 403.572C467.803 404.972 467.579 406.06 467.131 406.836C466.683 407.612 465.903 408 464.791 408C463.671 408 462.887 407.612 462.439 406.836C461.991 406.06 461.767 404.972 461.767 403.572ZM466.723 403.572C466.723 402.876 466.675 402.288 466.579 401.808C466.491 401.32 466.303 400.928 466.015 400.632C465.735 400.336 465.327 400.188 464.791 400.188C464.247 400.188 463.831 400.336 463.543 400.632C463.263 400.928 463.075 401.32 462.979 401.808C462.891 402.288 462.847 402.876 462.847 403.572C462.847 404.292 462.891 404.896 462.979 405.384C463.075 405.872 463.263 406.264 463.543 406.56C463.831 406.856 464.247 407.004 464.791 407.004C465.327 407.004 465.735 406.856 466.015 406.56C466.303 406.264 466.491 405.872 466.579 405.384C466.675 404.896 466.723 404.292 466.723 403.572Z" fill="#9E9E9E"/>
<path d="M557.456 400.32V399.324H559.712V408H558.608V400.32H557.456ZM562.992 405.672C563.072 406.128 563.256 406.48 563.544 406.728C563.84 406.976 564.236 407.1 564.732 407.1C565.396 407.1 565.884 406.84 566.196 406.32C566.516 405.8 566.668 404.924 566.652 403.692C566.484 404.052 566.204 404.336 565.812 404.544C565.42 404.744 564.984 404.844 564.504 404.844C563.968 404.844 563.488 404.736 563.064 404.52C562.648 404.296 562.32 403.972 562.08 403.548C561.84 403.124 561.72 402.612 561.72 402.012C561.72 401.156 561.968 400.468 562.464 399.948C562.96 399.42 563.664 399.156 564.576 399.156C565.696 399.156 566.48 399.52 566.928 400.248C567.384 400.976 567.612 402.06 567.612 403.5C567.612 404.508 567.52 405.34 567.336 405.996C567.16 406.652 566.856 407.152 566.424 407.496C566 407.84 565.416 408.012 564.672 408.012C563.856 408.012 563.22 407.792 562.764 407.352C562.308 406.912 562.048 406.352 561.984 405.672H562.992ZM564.684 403.92C565.22 403.92 565.66 403.756 566.004 403.428C566.348 403.092 566.52 402.64 566.52 402.072C566.52 401.472 566.352 400.988 566.016 400.62C565.68 400.252 565.208 400.068 564.6 400.068C564.04 400.068 563.592 400.244 563.256 400.596C562.928 400.948 562.764 401.412 562.764 401.988C562.764 402.572 562.928 403.04 563.256 403.392C563.584 403.744 564.06 403.92 564.684 403.92ZM569.674 408.072C569.466 408.072 569.29 408 569.146 407.856C569.002 407.712 568.93 407.536 568.93 407.328C568.93 407.12 569.002 406.944 569.146 406.8C569.29 406.656 569.466 406.584 569.674 406.584C569.874 406.584 570.042 406.656 570.178 406.8C570.322 406.944 570.394 407.12 570.394 407.328C570.394 407.536 570.322 407.712 570.178 407.856C570.042 408 569.874 408.072 569.674 408.072ZM569.674 402.936C569.466 402.936 569.29 402.864 569.146 402.72C569.002 402.576 568.93 402.4 568.93 402.192C568.93 401.984 569.002 401.808 569.146 401.664C569.29 401.52 569.466 401.448 569.674 401.448C569.874 401.448 570.042 401.52 570.178 401.664C570.322 401.808 570.394 401.984 570.394 402.192C570.394 402.4 570.322 402.576 570.178 402.72C570.042 402.864 569.874 402.936 569.674 402.936ZM571.437 406.068V405.24L575.649 399.408H576.957V405.12H578.157V406.068H576.957V408H575.877V406.068H571.437ZM575.925 400.548L572.697 405.12H575.925V400.548ZM579.248 403.572C579.248 402.196 579.472 401.124 579.92 400.356C580.368 399.58 581.152 399.192 582.272 399.192C583.384 399.192 584.164 399.58 584.612 400.356C585.06 401.124 585.284 402.196 585.284 403.572C585.284 404.972 585.06 406.06 584.612 406.836C584.164 407.612 583.384 408 582.272 408C581.152 408 580.368 407.612 579.92 406.836C579.472 406.06 579.248 404.972 579.248 403.572ZM584.204 403.572C584.204 402.876 584.156 402.288 584.06 401.808C583.972 401.32 583.784 400.928 583.496 400.632C583.216 400.336 582.808 400.188 582.272 400.188C581.728 400.188 581.312 400.336 581.024 400.632C580.744 400.928 580.556 401.32 580.46 401.808C580.372 402.288 580.328 402.876 580.328 403.572C580.328 404.292 580.372 404.896 580.46 405.384C580.556 405.872 580.744 406.264 581.024 406.56C581.312 406.856 581.728 407.004 582.272 407.004C582.808 407.004 583.216 406.856 583.496 406.56C583.784 406.264 583.972 405.872 584.06 405.384C584.156 404.896 584.204 404.292 584.204 403.572Z" fill="#9E9E9E"/>
<path d="M675.456 400.32V399.324H677.712V408H676.608V400.32H675.456ZM680.992 405.672C681.072 406.128 681.256 406.48 681.544 406.728C681.84 406.976 682.236 407.1 682.732 407.1C683.396 407.1 683.884 406.84 684.196 406.32C684.516 405.8 684.668 404.924 684.652 403.692C684.484 404.052 684.204 404.336 683.812 404.544C683.42 404.744 682.984 404.844 682.504 404.844C681.968 404.844 681.488 404.736 681.064 404.52C680.648 404.296 680.32 403.972 680.08 403.548C679.84 403.124 679.72 402.612 679.72 402.012C679.72 401.156 679.968 400.468 680.464 399.948C680.96 399.42 681.664 399.156 682.576 399.156C683.696 399.156 684.48 399.52 684.928 400.248C685.384 400.976 685.612 402.06 685.612 403.5C685.612 404.508 685.52 405.34 685.336 405.996C685.16 406.652 684.856 407.152 684.424 407.496C684 407.84 683.416 408.012 682.672 408.012C681.856 408.012 681.22 407.792 680.764 407.352C680.308 406.912 680.048 406.352 679.984 405.672H680.992ZM682.684 403.92C683.22 403.92 683.66 403.756 684.004 403.428C684.348 403.092 684.52 402.64 684.52 402.072C684.52 401.472 684.352 400.988 684.016 400.62C683.68 400.252 683.208 400.068 682.6 400.068C682.04 400.068 681.592 400.244 681.256 400.596C680.928 400.948 680.764 401.412 680.764 401.988C680.764 402.572 680.928 403.04 681.256 403.392C681.584 403.744 682.06 403.92 682.684 403.92ZM687.674 408.072C687.466 408.072 687.29 408 687.146 407.856C687.002 407.712 686.93 407.536 686.93 407.328C686.93 407.12 687.002 406.944 687.146 406.8C687.29 406.656 687.466 406.584 687.674 406.584C687.874 406.584 688.042 406.656 688.178 406.8C688.322 406.944 688.394 407.12 688.394 407.328C688.394 407.536 688.322 407.712 688.178 407.856C688.042 408 687.874 408.072 687.674 408.072ZM687.674 402.936C687.466 402.936 687.29 402.864 687.146 402.72C687.002 402.576 686.93 402.4 686.93 402.192C686.93 401.984 687.002 401.808 687.146 401.664C687.29 401.52 687.466 401.448 687.674 401.448C687.874 401.448 688.042 401.52 688.178 401.664C688.322 401.808 688.394 401.984 688.394 402.192C688.394 402.4 688.322 402.576 688.178 402.72C688.042 402.864 687.874 402.936 687.674 402.936ZM695.233 400.272H691.021V403.008C691.205 402.752 691.477 402.544 691.837 402.384C692.197 402.216 692.585 402.132 693.001 402.132C693.665 402.132 694.205 402.272 694.621 402.552C695.037 402.824 695.333 403.18 695.509 403.62C695.693 404.052 695.785 404.512 695.785 405C695.785 405.576 695.677 406.092 695.461 406.548C695.245 407.004 694.913 407.364 694.465 407.628C694.025 407.892 693.477 408.024 692.821 408.024C691.981 408.024 691.301 407.808 690.781 407.376C690.261 406.944 689.945 406.368 689.833 405.648H690.901C691.005 406.104 691.225 406.46 691.561 406.716C691.897 406.972 692.321 407.1 692.833 407.1C693.465 407.1 693.941 406.912 694.261 406.536C694.581 406.152 694.741 405.648 694.741 405.024C694.741 404.4 694.581 403.92 694.261 403.584C693.941 403.24 693.469 403.068 692.845 403.068C692.421 403.068 692.049 403.172 691.729 403.38C691.417 403.58 691.189 403.856 691.045 404.208H690.013V399.312H695.233V400.272ZM697.236 403.572C697.236 402.196 697.46 401.124 697.908 400.356C698.356 399.58 699.14 399.192 700.26 399.192C701.372 399.192 702.152 399.58 702.6 400.356C703.048 401.124 703.272 402.196 703.272 403.572C703.272 404.972 703.048 406.06 702.6 406.836C702.152 407.612 701.372 408 700.26 408C699.14 408 698.356 407.612 697.908 406.836C697.46 406.06 697.236 404.972 697.236 403.572ZM702.192 403.572C702.192 402.876 702.144 402.288 702.048 401.808C701.96 401.32 701.772 400.928 701.484 400.632C701.204 400.336 700.796 400.188 700.26 400.188C699.716 400.188 699.3 400.336 699.012 400.632C698.732 400.928 698.544 401.32 698.448 401.808C698.36 402.288 698.316 402.876 698.316 403.572C698.316 404.292 698.36 404.896 698.448 405.384C698.544 405.872 698.732 406.264 699.012 406.56C699.3 406.856 699.716 407.004 700.26 407.004C700.796 407.004 701.204 406.856 701.484 406.56C701.772 406.264 701.96 405.872 702.048 405.384C702.144 404.896 702.192 404.292 702.192 403.572Z" fill="#9E9E9E"/>
<path d="M38.276 166.272H34.064V169.008C34.248 168.752 34.52 168.544 34.88 168.384C35.24 168.216 35.628 168.132 36.044 168.132C36.708 168.132 37.248 168.272 37.664 168.552C38.08 168.824 38.376 169.18 38.552 169.62C38.736 170.052 38.828 170.512 38.828 171C38.828 171.576 38.72 172.092 38.504 172.548C38.288 173.004 37.956 173.364 37.508 173.628C37.068 173.892 36.52 174.024 35.864 174.024C35.024 174.024 34.344 173.808 33.824 173.376C33.304 172.944 32.988 172.368 32.876 171.648H33.944C34.048 172.104 34.268 172.46 34.604 172.716C34.94 172.972 35.364 173.1 35.876 173.1C36.508 173.1 36.984 172.912 37.304 172.536C37.624 172.152 37.784 171.648 37.784 171.024C37.784 170.4 37.624 169.92 37.304 169.584C36.984 169.24 36.512 169.068 35.888 169.068C35.464 169.068 35.092 169.172 34.772 169.38C34.46 169.58 34.232 169.856 34.088 170.208H33.056V165.312H38.276V166.272ZM40.2792 169.572C40.2792 168.196 40.5032 167.124 40.9512 166.356C41.3992 165.58 42.1832 165.192 43.3032 165.192C44.4152 165.192 45.1952 165.58 45.6432 166.356C46.0912 167.124 46.3152 168.196 46.3152 169.572C46.3152 170.972 46.0912 172.06 45.6432 172.836C45.1952 173.612 44.4152 174 43.3032 174C42.1832 174 41.3992 173.612 40.9512 172.836C40.5032 172.06 40.2792 170.972 40.2792 169.572ZM45.2352 169.572C45.2352 168.876 45.1872 168.288 45.0912 167.808C45.0032 167.32 44.8152 166.928 44.5272 166.632C44.2472 166.336 43.8392 166.188 43.3032 166.188C42.7592 166.188 42.3432 166.336 42.0552 166.632C41.7752 166.928 41.5872 167.32 41.4912 167.808C41.4032 168.288 41.3592 168.876 41.3592 169.572C41.3592 170.292 41.4032 170.896 41.4912 171.384C41.5872 171.872 41.7752 172.264 42.0552 172.56C42.3432 172.856 42.7592 173.004 43.3032 173.004C43.8392 173.004 44.2472 172.856 44.5272 172.56C44.8152 172.264 45.0032 171.872 45.0912 171.384C45.1872 170.896 45.2352 170.292 45.2352 169.572ZM48.3423 174.072C48.1343 174.072 47.9583 174 47.8143 173.856C47.6703 173.712 47.5983 173.536 47.5983 173.328C47.5983 173.12 47.6703 172.944 47.8143 172.8C47.9583 172.656 48.1343 172.584 48.3423 172.584C48.5423 172.584 48.7103 172.656 48.8463 172.8C48.9903 172.944 49.0623 173.12 49.0623 173.328C49.0623 173.536 48.9903 173.712 48.8463 173.856C48.7103 174 48.5423 174.072 48.3423 174.072ZM50.3338 169.572C50.3338 168.196 50.5578 167.124 51.0058 166.356C51.4538 165.58 52.2378 165.192 53.3578 165.192C54.4698 165.192 55.2498 165.58 55.6978 166.356C56.1458 167.124 56.3698 168.196 56.3698 169.572C56.3698 170.972 56.1458 172.06 55.6978 172.836C55.2498 173.612 54.4698 174 53.3578 174C52.2378 174 51.4538 173.612 51.0058 172.836C50.5578 172.06 50.3338 170.972 50.3338 169.572ZM55.2898 169.572C55.2898 168.876 55.2418 168.288 55.1458 167.808C55.0578 167.32 54.8698 166.928 54.5818 166.632C54.3018 166.336 53.8938 166.188 53.3578 166.188C52.8138 166.188 52.3978 166.336 52.1098 166.632C51.8298 166.928 51.6418 167.32 51.5458 167.808C51.4578 168.288 51.4138 168.876 51.4138 169.572C51.4138 170.292 51.4578 170.896 51.5458 171.384C51.6418 171.872 51.8298 172.264 52.1098 172.56C52.3978 172.856 52.8138 173.004 53.3578 173.004C53.8938 173.004 54.3018 172.856 54.5818 172.56C54.8698 172.264 55.0578 171.872 55.1458 171.384C55.2418 170.896 55.2898 170.292 55.2898 169.572ZM57.869 169.572C57.869 168.196 58.093 167.124 58.541 166.356C58.989 165.58 59.773 165.192 60.893 165.192C62.005 165.192 62.785 165.58 63.233 166.356C63.681 167.124 63.905 168.196 63.905 169.572C63.905 170.972 63.681 172.06 63.233 172.836C62.785 173.612 62.005 174 60.893 174C59.773 174 58.989 173.612 58.541 172.836C58.093 172.06 57.869 170.972 57.869 169.572ZM62.825 169.572C62.825 168.876 62.777 168.288 62.681 167.808C62.593 167.32 62.405 166.928 62.117 166.632C61.837 166.336 61.429 166.188 60.893 166.188C60.349 166.188 59.933 166.336 59.645 166.632C59.365 166.928 59.177 167.32 59.081 167.808C58.993 168.288 58.949 168.876 58.949 169.572C58.949 170.292 58.993 170.896 59.081 171.384C59.177 171.872 59.365 172.264 59.645 172.56C59.933 172.856 60.349 173.004 60.893 173.004C61.429 173.004 61.837 172.856 62.117 172.56C62.405 172.264 62.593 171.872 62.681 171.384C62.777 170.896 62.825 170.292 62.825 169.572ZM65.4042 169.572C65.4042 168.196 65.6282 167.124 66.0762 166.356C66.5242 165.58 67.3082 165.192 68.4282 165.192C69.5402 165.192 70.3202 165.58 70.7682 166.356C71.2162 167.124 71.4402 168.196 71.4402 169.572C71.4402 170.972 71.2162 172.06 70.7682 172.836C70.3202 173.612 69.5402 174 68.4282 174C67.3082 174 66.5242 173.612 66.0762 172.836C65.6282 172.06 65.4042 170.972 65.4042 169.572ZM70.3602 169.572C70.3602 168.876 70.3122 168.288 70.2162 167.808C70.1282 167.32 69.9402 166.928 69.6522 166.632C69.3722 166.336 68.9642 166.188 68.4282 166.188C67.8842 166.188 67.4682 166.336 67.1802 166.632C66.9002 166.928 66.7122 167.32 66.6162 167.808C66.5282 168.288 66.4842 168.876 66.4842 169.572C66.4842 170.292 66.5282 170.896 66.6162 171.384C66.7122 171.872 66.9002 172.264 67.1802 172.56C67.4682 172.856 67.8842 173.004 68.4282 173.004C68.9642 173.004 69.3722 172.856 69.6522 172.56C69.9402 172.264 70.1282 171.872 70.2162 171.384C70.3122 170.896 70.3602 170.292 70.3602 169.572Z" fill="#9E9E9E"/>
<path d="M32.48 223.068V222.24L36.692 216.408H38V222.12H39.2V223.068H38V225H36.92V223.068H32.48ZM36.968 217.548L33.74 222.12H36.968V217.548ZM40.2909 220.572C40.2909 219.196 40.5149 218.124 40.9629 217.356C41.4109 216.58 42.1949 216.192 43.3149 216.192C44.4269 216.192 45.2069 216.58 45.6549 217.356C46.1029 218.124 46.3269 219.196 46.3269 220.572C46.3269 221.972 46.1029 223.06 45.6549 223.836C45.2069 224.612 44.4269 225 43.3149 225C42.1949 225 41.4109 224.612 40.9629 223.836C40.5149 223.06 40.2909 221.972 40.2909 220.572ZM45.2469 220.572C45.2469 219.876 45.1989 219.288 45.1029 218.808C45.0149 218.32 44.8269 217.928 44.5389 217.632C44.2589 217.336 43.8509 217.188 43.3149 217.188C42.7709 217.188 42.3549 217.336 42.0669 217.632C41.7869 217.928 41.5989 218.32 41.5029 218.808C41.4149 219.288 41.3709 219.876 41.3709 220.572C41.3709 221.292 41.4149 221.896 41.5029 222.384C41.5989 222.872 41.7869 223.264 42.0669 223.56C42.3549 223.856 42.7709 224.004 43.3149 224.004C43.8509 224.004 44.2589 223.856 44.5389 223.56C44.8269 223.264 45.0149 222.872 45.1029 222.384C45.1989 221.896 45.2469 221.292 45.2469 220.572ZM48.354 225.072C48.146 225.072 47.97 225 47.826 224.856C47.682 224.712 47.61 224.536 47.61 224.328C47.61 224.12 47.682 223.944 47.826 223.8C47.97 223.656 48.146 223.584 48.354 223.584C48.554 223.584 48.722 223.656 48.858 223.8C49.002 223.944 49.074 224.12 49.074 224.328C49.074 224.536 49.002 224.712 48.858 224.856C48.722 225 48.554 225.072 48.354 225.072ZM50.3456 220.572C50.3456 219.196 50.5696 218.124 51.0176 217.356C51.4656 216.58 52.2496 216.192 53.3696 216.192C54.4816 216.192 55.2616 216.58 55.7096 217.356C56.1576 218.124 56.3816 219.196 56.3816 220.572C56.3816 221.972 56.1576 223.06 55.7096 223.836C55.2616 224.612 54.4816 225 53.3696 225C52.2496 225 51.4656 224.612 51.0176 223.836C50.5696 223.06 50.3456 221.972 50.3456 220.572ZM55.3016 220.572C55.3016 219.876 55.2536 219.288 55.1576 218.808C55.0696 218.32 54.8816 217.928 54.5936 217.632C54.3136 217.336 53.9056 217.188 53.3696 217.188C52.8256 217.188 52.4096 217.336 52.1216 217.632C51.8416 217.928 51.6536 218.32 51.5576 218.808C51.4696 219.288 51.4256 219.876 51.4256 220.572C51.4256 221.292 51.4696 221.896 51.5576 222.384C51.6536 222.872 51.8416 223.264 52.1216 223.56C52.4096 223.856 52.8256 224.004 53.3696 224.004C53.9056 224.004 54.3136 223.856 54.5936 223.56C54.8816 223.264 55.0696 222.872 55.1576 222.384C55.2536 221.896 55.3016 221.292 55.3016 220.572ZM57.8807 220.572C57.8807 219.196 58.1047 218.124 58.5527 217.356C59.0007 216.58 59.7847 216.192 60.9047 216.192C62.0167 216.192 62.7967 216.58 63.2447 217.356C63.6927 218.124 63.9167 219.196 63.9167 220.572C63.9167 221.972 63.6927 223.06 63.2447 223.836C62.7967 224.612 62.0167 225 60.9047 225C59.7847 225 59.0007 224.612 58.5527 223.836C58.1047 223.06 57.8807 221.972 57.8807 220.572ZM62.8367 220.572C62.8367 219.876 62.7887 219.288 62.6927 218.808C62.6047 218.32 62.4167 217.928 62.1287 217.632C61.8487 217.336 61.4407 217.188 60.9047 217.188C60.3607 217.188 59.9447 217.336 59.6567 217.632C59.3767 217.928 59.1887 218.32 59.0927 218.808C59.0047 219.288 58.9607 219.876 58.9607 220.572C58.9607 221.292 59.0047 221.896 59.0927 222.384C59.1887 222.872 59.3767 223.264 59.6567 223.56C59.9447 223.856 60.3607 224.004 60.9047 224.004C61.4407 224.004 61.8487 223.856 62.1287 223.56C62.4167 223.264 62.6047 222.872 62.6927 222.384C62.7887 221.896 62.8367 221.292 62.8367 220.572ZM65.4159 220.572C65.4159 219.196 65.6399 218.124 66.0879 217.356C66.5359 216.58 67.3199 216.192 68.4399 216.192C69.5519 216.192 70.3319 216.58 70.7799 217.356C71.2279 218.124 71.4519 219.196 71.4519 220.572C71.4519 221.972 71.2279 223.06 70.7799 223.836C70.3319 224.612 69.5519 225 68.4399 225C67.3199 225 66.5359 224.612 66.0879 223.836C65.6399 223.06 65.4159 221.972 65.4159 220.572ZM70.3719 220.572C70.3719 219.876 70.3239 219.288 70.2279 218.808C70.1399 218.32 69.9519 217.928 69.6639 217.632C69.3839 217.336 68.9759 217.188 68.4399 217.188C67.8959 217.188 67.4799 217.336 67.1919 217.632C66.9119 217.928 66.7239 218.32 66.6279 218.808C66.5399 219.288 66.4959 219.876 66.4959 220.572C66.4959 221.292 66.5399 221.896 66.6279 222.384C66.7239 222.872 66.9119 223.264 67.1919 223.56C67.4799 223.856 67.8959 224.004 68.4399 224.004C68.9759 224.004 69.3839 223.856 69.6639 223.56C69.9519 223.264 70.1399 222.872 70.2279 222.384C70.3239 221.896 70.3719 221.292 70.3719 220.572Z" fill="#9E9E9E"/>
<path d="M32.72 269.508C32.776 268.772 33.06 268.196 33.572 267.78C34.084 267.364 34.748 267.156 35.564 267.156C36.108 267.156 36.576 267.256 36.968 267.456C37.368 267.648 37.668 267.912 37.868 268.248C38.076 268.584 38.18 268.964 38.18 269.388C38.18 269.884 38.036 270.312 37.748 270.672C37.468 271.032 37.1 271.264 36.644 271.368V271.428C37.164 271.556 37.576 271.808 37.88 272.184C38.184 272.56 38.336 273.052 38.336 273.66C38.336 274.116 38.232 274.528 38.024 274.896C37.816 275.256 37.504 275.54 37.088 275.748C36.672 275.956 36.172 276.06 35.588 276.06C34.74 276.06 34.044 275.84 33.5 275.4C32.956 274.952 32.652 274.32 32.588 273.504H33.644C33.7 273.984 33.896 274.376 34.232 274.68C34.568 274.984 35.016 275.136 35.576 275.136C36.136 275.136 36.56 274.992 36.848 274.704C37.144 274.408 37.292 274.028 37.292 273.564C37.292 272.964 37.092 272.532 36.692 272.268C36.292 272.004 35.688 271.872 34.88 271.872H34.604V270.96H34.892C35.628 270.952 36.184 270.832 36.56 270.6C36.936 270.36 37.124 269.992 37.124 269.496C37.124 269.072 36.984 268.732 36.704 268.476C36.432 268.22 36.04 268.092 35.528 268.092C35.032 268.092 34.632 268.22 34.328 268.476C34.024 268.732 33.844 269.076 33.788 269.508H32.72ZM39.8104 271.572C39.8104 270.196 40.0344 269.124 40.4824 268.356C40.9304 267.58 41.7144 267.192 42.8344 267.192C43.9464 267.192 44.7264 267.58 45.1744 268.356C45.6224 269.124 45.8464 270.196 45.8464 271.572C45.8464 272.972 45.6224 274.06 45.1744 274.836C44.7264 275.612 43.9464 276 42.8344 276C41.7144 276 40.9304 275.612 40.4824 274.836C40.0344 274.06 39.8104 272.972 39.8104 271.572ZM44.7664 271.572C44.7664 270.876 44.7184 270.288 44.6224 269.808C44.5344 269.32 44.3464 268.928 44.0584 268.632C43.7784 268.336 43.3704 268.188 42.8344 268.188C42.2904 268.188 41.8744 268.336 41.5864 268.632C41.3064 268.928 41.1184 269.32 41.0224 269.808C40.9344 270.288 40.8904 270.876 40.8904 271.572C40.8904 272.292 40.9344 272.896 41.0224 273.384C41.1184 273.872 41.3064 274.264 41.5864 274.56C41.8744 274.856 42.2904 275.004 42.8344 275.004C43.3704 275.004 43.7784 274.856 44.0584 274.56C44.3464 274.264 44.5344 273.872 44.6224 273.384C44.7184 272.896 44.7664 272.292 44.7664 271.572ZM47.8736 276.072C47.6656 276.072 47.4896 276 47.3456 275.856C47.2016 275.712 47.1296 275.536 47.1296 275.328C47.1296 275.12 47.2016 274.944 47.3456 274.8C47.4896 274.656 47.6656 274.584 47.8736 274.584C48.0736 274.584 48.2416 274.656 48.3776 274.8C48.5216 274.944 48.5936 275.12 48.5936 275.328C48.5936 275.536 48.5216 275.712 48.3776 275.856C48.2416 276 48.0736 276.072 47.8736 276.072ZM49.8651 271.572C49.8651 270.196 50.0891 269.124 50.5371 268.356C50.9851 267.58 51.7691 267.192 52.8891 267.192C54.0011 267.192 54.7811 267.58 55.2291 268.356C55.6771 269.124 55.9011 270.196 55.9011 271.572C55.9011 272.972 55.6771 274.06 55.2291 274.836C54.7811 275.612 54.0011 276 52.8891 276C51.7691 276 50.9851 275.612 50.5371 274.836C50.0891 274.06 49.8651 272.972 49.8651 271.572ZM54.8211 271.572C54.8211 270.876 54.7731 270.288 54.6771 269.808C54.5891 269.32 54.4011 268.928 54.1131 268.632C53.8331 268.336 53.4251 268.188 52.8891 268.188C52.3451 268.188 51.9291 268.336 51.6411 268.632C51.3611 268.928 51.1731 269.32 51.0771 269.808C50.9891 270.288 50.9451 270.876 50.9451 271.572C50.9451 272.292 50.9891 272.896 51.0771 273.384C51.1731 273.872 51.3611 274.264 51.6411 274.56C51.9291 274.856 52.3451 275.004 52.8891 275.004C53.4251 275.004 53.8331 274.856 54.1131 274.56C54.4011 274.264 54.5891 273.872 54.6771 273.384C54.7731 272.896 54.8211 272.292 54.8211 271.572ZM57.4003 271.572C57.4003 270.196 57.6243 269.124 58.0723 268.356C58.5203 267.58 59.3043 267.192 60.4243 267.192C61.5363 267.192 62.3163 267.58 62.7643 268.356C63.2122 269.124 63.4362 270.196 63.4362 271.572C63.4362 272.972 63.2122 274.06 62.7643 274.836C62.3163 275.612 61.5363 276 60.4243 276C59.3043 276 58.5203 275.612 58.0723 274.836C57.6243 274.06 57.4003 272.972 57.4003 271.572ZM62.3563 271.572C62.3563 270.876 62.3083 270.288 62.2123 269.808C62.1243 269.32 61.9363 268.928 61.6483 268.632C61.3683 268.336 60.9603 268.188 60.4243 268.188C59.8803 268.188 59.4643 268.336 59.1763 268.632C58.8963 268.928 58.7083 269.32 58.6123 269.808C58.5243 270.288 58.4803 270.876 58.4803 271.572C58.4803 272.292 58.5243 272.896 58.6123 273.384C58.7083 273.872 58.8963 274.264 59.1763 274.56C59.4643 274.856 59.8803 275.004 60.4243 275.004C60.9603 275.004 61.3683 274.856 61.6483 274.56C61.9363 274.264 62.1243 273.872 62.2123 273.384C62.3083 272.896 62.3563 272.292 62.3563 271.572ZM64.9354 271.572C64.9354 270.196 65.1594 269.124 65.6074 268.356C66.0554 267.58 66.8394 267.192 67.9594 267.192C69.0714 267.192 69.8514 267.58 70.2994 268.356C70.7474 269.124 70.9714 270.196 70.9714 271.572C70.9714 272.972 70.7474 274.06 70.2994 274.836C69.8514 275.612 69.0714 276 67.9594 276C66.8394 276 66.0554 275.612 65.6074 274.836C65.1594 274.06 64.9354 272.972 64.9354 271.572ZM69.8914 271.572C69.8914 270.876 69.8434 270.288 69.7474 269.808C69.6594 269.32 69.4714 268.928 69.1834 268.632C68.9034 268.336 68.4954 268.188 67.9594 268.188C67.4154 268.188 66.9994 268.336 66.7114 268.632C66.4314 268.928 66.2434 269.32 66.1474 269.808C66.0594 270.288 66.0154 270.876 66.0154 271.572C66.0154 272.292 66.0594 272.896 66.1474 273.384C66.2434 273.872 66.4314 274.264 66.7114 274.56C66.9994 274.856 67.4154 275.004 67.9594 275.004C68.4954 275.004 68.9034 274.856 69.1834 274.56C69.4714 274.264 69.6594 273.872 69.7474 273.384C69.8434 272.896 69.8914 272.292 69.8914 271.572Z" fill="#9E9E9E"/>
<path d="M32.612 326.124C33.628 325.308 34.424 324.64 35 324.12C35.576 323.592 36.06 323.044 36.452 322.476C36.852 321.9 37.052 321.336 37.052 320.784C37.052 320.264 36.924 319.856 36.668 319.56C36.42 319.256 36.016 319.104 35.456 319.104C34.912 319.104 34.488 319.276 34.184 319.62C33.888 319.956 33.728 320.408 33.704 320.976H32.648C32.68 320.08 32.952 319.388 33.464 318.9C33.976 318.412 34.636 318.168 35.444 318.168C36.268 318.168 36.92 318.396 37.4 318.852C37.888 319.308 38.132 319.936 38.132 320.736C38.132 321.4 37.932 322.048 37.532 322.68C37.14 323.304 36.692 323.856 36.188 324.336C35.684 324.808 35.04 325.36 34.256 325.992H38.384V326.904H32.612V326.124ZM39.6463 322.572C39.6463 321.196 39.8703 320.124 40.3183 319.356C40.7663 318.58 41.5503 318.192 42.6703 318.192C43.7823 318.192 44.5623 318.58 45.0103 319.356C45.4583 320.124 45.6823 321.196 45.6823 322.572C45.6823 323.972 45.4583 325.06 45.0103 325.836C44.5623 326.612 43.7823 327 42.6703 327C41.5503 327 40.7663 326.612 40.3183 325.836C39.8703 325.06 39.6463 323.972 39.6463 322.572ZM44.6023 322.572C44.6023 321.876 44.5543 321.288 44.4583 320.808C44.3703 320.32 44.1823 319.928 43.8943 319.632C43.6143 319.336 43.2063 319.188 42.6703 319.188C42.1263 319.188 41.7103 319.336 41.4223 319.632C41.1423 319.928 40.9543 320.32 40.8583 320.808C40.7703 321.288 40.7263 321.876 40.7263 322.572C40.7263 323.292 40.7703 323.896 40.8583 324.384C40.9543 324.872 41.1423 325.264 41.4223 325.56C41.7103 325.856 42.1263 326.004 42.6703 326.004C43.2063 326.004 43.6143 325.856 43.8943 325.56C44.1823 325.264 44.3703 324.872 44.4583 324.384C44.5543 323.896 44.6023 323.292 44.6023 322.572ZM47.7095 327.072C47.5015 327.072 47.3255 327 47.1815 326.856C47.0375 326.712 46.9655 326.536 46.9655 326.328C46.9655 326.12 47.0375 325.944 47.1815 325.8C47.3255 325.656 47.5015 325.584 47.7095 325.584C47.9095 325.584 48.0775 325.656 48.2135 325.8C48.3575 325.944 48.4295 326.12 48.4295 326.328C48.4295 326.536 48.3575 326.712 48.2135 326.856C48.0775 327 47.9095 327.072 47.7095 327.072ZM49.701 322.572C49.701 321.196 49.925 320.124 50.373 319.356C50.821 318.58 51.605 318.192 52.725 318.192C53.837 318.192 54.617 318.58 55.065 319.356C55.513 320.124 55.737 321.196 55.737 322.572C55.737 323.972 55.513 325.06 55.065 325.836C54.617 326.612 53.837 327 52.725 327C51.605 327 50.821 326.612 50.373 325.836C49.925 325.06 49.701 323.972 49.701 322.572ZM54.657 322.572C54.657 321.876 54.609 321.288 54.513 320.808C54.425 320.32 54.237 319.928 53.949 319.632C53.669 319.336 53.261 319.188 52.725 319.188C52.181 319.188 51.765 319.336 51.477 319.632C51.197 319.928 51.009 320.32 50.913 320.808C50.825 321.288 50.781 321.876 50.781 322.572C50.781 323.292 50.825 323.896 50.913 324.384C51.009 324.872 51.197 325.264 51.477 325.56C51.765 325.856 52.181 326.004 52.725 326.004C53.261 326.004 53.669 325.856 53.949 325.56C54.237 325.264 54.425 324.872 54.513 324.384C54.609 323.896 54.657 323.292 54.657 322.572ZM57.2362 322.572C57.2362 321.196 57.4602 320.124 57.9082 319.356C58.3562 318.58 59.1402 318.192 60.2602 318.192C61.3722 318.192 62.1522 318.58 62.6002 319.356C63.0482 320.124 63.2722 321.196 63.2722 322.572C63.2722 323.972 63.0482 325.06 62.6002 325.836C62.1522 326.612 61.3722 327 60.2602 327C59.1402 327 58.3562 326.612 57.9082 325.836C57.4602 325.06 57.2362 323.972 57.2362 322.572ZM62.1922 322.572C62.1922 321.876 62.1442 321.288 62.0482 320.808C61.9602 320.32 61.7722 319.928 61.4842 319.632C61.2042 319.336 60.7962 319.188 60.2602 319.188C59.7162 319.188 59.3002 319.336 59.0122 319.632C58.7322 319.928 58.5442 320.32 58.4482 320.808C58.3602 321.288 58.3162 321.876 58.3162 322.572C58.3162 323.292 58.3602 323.896 58.4482 324.384C58.5442 324.872 58.7322 325.264 59.0122 325.56C59.3002 325.856 59.7162 326.004 60.2602 326.004C60.7962 326.004 61.2042 325.856 61.4842 325.56C61.7722 325.264 61.9602 324.872 62.0482 324.384C62.1442 323.896 62.1922 323.292 62.1922 322.572ZM64.7713 322.572C64.7713 321.196 64.9953 320.124 65.4433 319.356C65.8913 318.58 66.6753 318.192 67.7953 318.192C68.9073 318.192 69.6873 318.58 70.1353 319.356C70.5833 320.124 70.8073 321.196 70.8073 322.572C70.8073 323.972 70.5833 325.06 70.1353 325.836C69.6873 326.612 68.9073 327 67.7953 327C66.6753 327 65.8913 326.612 65.4433 325.836C64.9953 325.06 64.7713 323.972 64.7713 322.572ZM69.7273 322.572C69.7273 321.876 69.6793 321.288 69.5833 320.808C69.4953 320.32 69.3073 319.928 69.0193 319.632C68.7393 319.336 68.3313 319.188 67.7953 319.188C67.2513 319.188 66.8353 319.336 66.5473 319.632C66.2673 319.928 66.0793 320.32 65.9833 320.808C65.8953 321.288 65.8513 321.876 65.8513 322.572C65.8513 323.292 65.8953 323.896 65.9833 324.384C66.0793 324.872 66.2673 325.264 66.5473 325.56C66.8353 325.856 67.2513 326.004 67.7953 326.004C68.3313 326.004 68.7393 325.856 69.0193 325.56C69.3073 325.264 69.4953 324.872 69.5833 324.384C69.6793 323.896 69.7273 323.292 69.7273 322.572Z" fill="#9E9E9E"/>
<path d="M32.456 370.32V369.324H34.712V378H33.608V370.32H32.456ZM36.5878 373.572C36.5878 372.196 36.8118 371.124 37.2598 370.356C37.7078 369.58 38.4918 369.192 39.6118 369.192C40.7238 369.192 41.5038 369.58 41.9518 370.356C42.3997 371.124 42.6237 372.196 42.6237 373.572C42.6237 374.972 42.3997 376.06 41.9518 376.836C41.5038 377.612 40.7238 378 39.6118 378C38.4918 378 37.7078 377.612 37.2598 376.836C36.8118 376.06 36.5878 374.972 36.5878 373.572ZM41.5438 373.572C41.5438 372.876 41.4958 372.288 41.3998 371.808C41.3118 371.32 41.1238 370.928 40.8358 370.632C40.5558 370.336 40.1478 370.188 39.6118 370.188C39.0678 370.188 38.6518 370.336 38.3638 370.632C38.0838 370.928 37.8958 371.32 37.7998 371.808C37.7118 372.288 37.6678 372.876 37.6678 373.572C37.6678 374.292 37.7118 374.896 37.7998 375.384C37.8958 375.872 38.0838 376.264 38.3638 376.56C38.6518 376.856 39.0678 377.004 39.6118 377.004C40.1478 377.004 40.5558 376.856 40.8358 376.56C41.1238 376.264 41.3118 375.872 41.3998 375.384C41.4958 374.896 41.5438 374.292 41.5438 373.572ZM44.6509 378.072C44.4429 378.072 44.2669 378 44.1229 377.856C43.9789 377.712 43.9069 377.536 43.9069 377.328C43.9069 377.12 43.9789 376.944 44.1229 376.8C44.2669 376.656 44.4429 376.584 44.6509 376.584C44.8509 376.584 45.0189 376.656 45.1549 376.8C45.2989 376.944 45.3709 377.12 45.3709 377.328C45.3709 377.536 45.2989 377.712 45.1549 377.856C45.0189 378 44.8509 378.072 44.6509 378.072ZM46.6424 373.572C46.6424 372.196 46.8664 371.124 47.3144 370.356C47.7624 369.58 48.5464 369.192 49.6664 369.192C50.7784 369.192 51.5584 369.58 52.0064 370.356C52.4544 371.124 52.6784 372.196 52.6784 373.572C52.6784 374.972 52.4544 376.06 52.0064 376.836C51.5584 377.612 50.7784 378 49.6664 378C48.5464 378 47.7624 377.612 47.3144 376.836C46.8664 376.06 46.6424 374.972 46.6424 373.572ZM51.5984 373.572C51.5984 372.876 51.5504 372.288 51.4544 371.808C51.3664 371.32 51.1784 370.928 50.8904 370.632C50.6104 370.336 50.2024 370.188 49.6664 370.188C49.1224 370.188 48.7064 370.336 48.4184 370.632C48.1384 370.928 47.9504 371.32 47.8544 371.808C47.7664 372.288 47.7224 372.876 47.7224 373.572C47.7224 374.292 47.7664 374.896 47.8544 375.384C47.9504 375.872 48.1384 376.264 48.4184 376.56C48.7064 376.856 49.1224 377.004 49.6664 377.004C50.2024 377.004 50.6104 376.856 50.8904 376.56C51.1784 376.264 51.3664 375.872 51.4544 375.384C51.5504 374.896 51.5984 374.292 51.5984 373.572ZM54.1776 373.572C54.1776 372.196 54.4016 371.124 54.8496 370.356C55.2976 369.58 56.0816 369.192 57.2016 369.192C58.3136 369.192 59.0936 369.58 59.5416 370.356C59.9896 371.124 60.2136 372.196 60.2136 373.572C60.2136 374.972 59.9896 376.06 59.5416 376.836C59.0936 377.612 58.3136 378 57.2016 378C56.0816 378 55.2976 377.612 54.8496 376.836C54.4016 376.06 54.1776 374.972 54.1776 373.572ZM59.1336 373.572C59.1336 372.876 59.0856 372.288 58.9896 371.808C58.9016 371.32 58.7136 370.928 58.4256 370.632C58.1456 370.336 57.7376 370.188 57.2016 370.188C56.6576 370.188 56.2416 370.336 55.9536 370.632C55.6736 370.928 55.4856 371.32 55.3896 371.808C55.3016 372.288 55.2576 372.876 55.2576 373.572C55.2576 374.292 55.3016 374.896 55.3896 375.384C55.4856 375.872 55.6736 376.264 55.9536 376.56C56.2416 376.856 56.6576 377.004 57.2016 377.004C57.7376 377.004 58.1456 376.856 58.4256 376.56C58.7136 376.264 58.9016 375.872 58.9896 375.384C59.0856 374.896 59.1336 374.292 59.1336 373.572ZM61.7128 373.572C61.7128 372.196 61.9368 371.124 62.3848 370.356C62.8328 369.58 63.6168 369.192 64.7368 369.192C65.8488 369.192 66.6288 369.58 67.0768 370.356C67.5247 371.124 67.7487 372.196 67.7487 373.572C67.7487 374.972 67.5247 376.06 67.0768 376.836C66.6288 377.612 65.8488 378 64.7368 378C63.6168 378 62.8328 377.612 62.3848 376.836C61.9368 376.06 61.7128 374.972 61.7128 373.572ZM66.6688 373.572C66.6688 372.876 66.6208 372.288 66.5248 371.808C66.4368 371.32 66.2488 370.928 65.9608 370.632C65.6808 370.336 65.2728 370.188 64.7368 370.188C64.1928 370.188 63.7768 370.336 63.4888 370.632C63.2088 370.928 63.0208 371.32 62.9248 371.808C62.8368 372.288 62.7928 372.876 62.7928 373.572C62.7928 374.292 62.8368 374.896 62.9248 375.384C63.0208 375.872 63.2088 376.264 63.4888 376.56C63.7768 376.856 64.1928 377.004 64.7368 377.004C65.2728 377.004 65.6808 376.856 65.9608 376.56C66.2488 376.264 66.4368 375.872 66.5248 375.384C66.6208 374.896 66.6688 374.292 66.6688 373.572Z" fill="#9E9E9E"/>
<line x1="84" y1="373.5" x2="712" y2="373.5" stroke="#31353F"/>
<g opacity="0.1">
<rect x="90" y="358" width="8" height="16" fill="#50EC5F"/>
<rect x="103" y="352" width="8" height="22" fill="#50EC5F"/>
<rect x="116" y="342" width="8" height="32" fill="#50EC5F"/>
<rect x="129" y="357" width="8" height="17" fill="#50EC5F"/>
<rect x="142" y="364" width="8" height="10" fill="#50EC5F"/>
<rect x="155" y="361" width="8" height="13" fill="#50EC5F"/>
<rect x="168" y="350" width="8" height="24" fill="#50EC5F"/>
<rect x="181" y="360" width="8" height="14" fill="#50EC5F"/>
<rect x="194" y="366" width="8" height="8" fill="#50EC5F"/>
<rect x="207" y="358" width="8" height="16" fill="#50EC5F"/>
<rect x="220" y="352" width="8" height="22" fill="#50EC5F"/>
<rect x="233" y="342" width="8" height="32" fill="#50EC5F"/>
<rect x="246" y="357" width="8" height="17" fill="#50EC5F"/>
<rect x="259" y="364" width="8" height="10" fill="#50EC5F"/>
<rect x="272" y="360" width="8" height="14" fill="#50EC5F"/>
<rect x="285" y="366" width="8" height="8" fill="#50EC5F"/>
<rect x="298" y="342" width="8" height="32" fill="#50EC5F"/>
<rect x="311" y="357" width="8" height="17" fill="#50EC5F"/>
<rect x="324" y="364" width="8" height="10" fill="#50EC5F"/>
<rect x="337" y="361" width="8" height="13" fill="#50EC5F"/>
<rect x="350" y="350" width="8" height="24" fill="#50EC5F"/>
<rect x="363" y="358" width="8" height="16" fill="#50EC5F"/>
<rect x="376" y="360" width="8" height="14" fill="#50EC5F"/>
<rect x="389" y="366" width="8" height="8" fill="#50EC5F"/>
<rect x="402" y="342" width="8" height="32" fill="#50EC5F"/>
<rect x="415" y="357" width="8" height="17" fill="#50EC5F"/>
<rect x="428" y="364" width="8" height="10" fill="#50EC5F"/>
<rect x="441" y="360" width="8" height="14" fill="#50EC5F"/>
<rect x="454" y="366" width="8" height="8" fill="#50EC5F"/>
<rect x="467" y="342" width="8" height="32" fill="#50EC5F"/>
<rect x="480" y="357" width="8" height="17" fill="#50EC5F"/>
<rect x="493" y="364" width="8" height="10" fill="#50EC5F"/>
<rect x="506" y="350" width="8" height="24" fill="#50EC5F"/>
<rect x="519" y="360" width="8" height="14" fill="#50EC5F"/>
<rect x="532" y="366" width="8" height="8" fill="#50EC5F"/>
<rect x="545" y="358" width="8" height="16" fill="#50EC5F"/>
<rect x="558" y="352" width="8" height="22" fill="#50EC5F"/>
<rect x="571" y="342" width="8" height="32" fill="#50EC5F"/>
<rect x="584" y="357" width="8" height="17" fill="#50EC5F"/>
<rect x="597" y="364" width="8" height="10" fill="#50EC5F"/>
<rect x="610" y="360" width="8" height="14" fill="#50EC5F"/>
<rect x="623" y="366" width="8" height="8" fill="#50EC5F"/>
<rect x="636" y="352" width="8" height="22" fill="#50EC5F"/>
<rect x="649" y="342" width="8" height="32" fill="#50EC5F"/>
<rect x="662" y="357" width="8" height="17" fill="#50EC5F"/>
<rect x="675" y="364" width="8" height="10" fill="#50EC5F"/>
<rect x="688" y="352" width="8" height="22" fill="#50EC5F"/>
<rect x="701" y="342" width="8" height="32" fill="#50EC5F"/>
</g>
<defs>
<filter id="filter0_d_0_274" x="0" y="0" width="774" height="444" filterUnits="userSpaceOnUse" color-interpolation-filters="sRGB">
<feFlood flood-opacity="0" result="BackgroundImageFix"/>
<feColorMatrix in="SourceAlpha" type="matrix" values="0 0 0 0 0 0 0 0 0 0 0 0 0 0 0 0 0 0 127 0" result="hardAlpha"/>
<feOffset dy="3"/>
<feComposite in2="hardAlpha" operator="out"/>
<feColorMatrix type="matrix" values="0 0 0 0 0.21031 0 0 0 0 0.589675 0 0 0 0 0.246787 0 0 0 1 0"/>
<feBlend mode="normal" in2="BackgroundImageFix" result="effect1_dropShadow_0_274"/>
<feBlend mode="normal" in="SourceGraphic" in2="effect1_dropShadow_0_274" result="shape"/>
</filter>
<linearGradient id="paint0_linear_0_274" x1="185.117" y1="60.5" x2="740.336" y2="270.575" gradientUnits="userSpaceOnUse">
<stop stop-color="#24262C"/>
<stop offset="1"/>
</linearGradient>
<linearGradient id="paint1_linear_0_274" x1="401.5" y1="185" x2="401.5" y2="320.5" gradientUnits="userSpaceOnUse">
<stop stop-color="#501FBB"/>
<stop offset="0.455" stop-color="#9D37B3"/>
<stop offset="1" stop-color="#E39453"/>
</linearGradient>
<linearGradient id="paint2_linear_0_274" x1="30" y1="41.5" x2="348" y2="41.5" gradientUnits="userSpaceOnUse">
<stop stop-color="white"/>
<stop offset="1" stop-color="#999999"/>
</linearGradient>
<linearGradient id="paint3_linear_0_274" x1="30" y1="70" x2="405" y2="70" gradientUnits="userSpaceOnUse">
<stop stop-color="#4FED5E"/>
<stop offset="1" stop-color="#999999"/>
</linearGradient>
</defs>
</svg>
